<svg width="96" height="70" fill="none" xmlns="http://www.w3.org/2000/svg"><path d="M46.14 34.198C39.444 20.617 22.14-3.867 6.514 6.85c-15.628 10.717 16.11 38.663 22.25 40.895 6.14 2.233 9.421-3.817 2.866-10.197-8.448-8.221-18.977 24.558-7.256 30.14 9.377 4.465 23.925-19.385 24.558-24 .634-4.616-2.79-9.489-2.79-9.489z" stroke="#000" stroke-width="3"/><path d="M49.753 31.966c6.697-13.582 24-38.065 39.628-27.35 15.628 10.717-16.11 38.663-22.25 40.896-6.14 2.232-9.422-3.818-2.867-10.197 8.448-8.222 18.977 24.558 7.256 30.14-9.376 4.464-23.924-19.385-24.558-24-.634-4.616 2.79-9.49 2.79-9.49z" stroke="#000" stroke-width="3"/></svg>