<svg width="492" height="492" fill="none" xmlns="http://www.w3.org/2000/svg"><g filter="url(#filter0_dd_60_1818)"><path opacity=".9" d="M48.944 247.781C25.87 328.134 175.28 366.048 255.122 354.338c101.007-14.76 157.942-69.864 156.397-154.734-1.526-84.092-96.295-132.269-167.694-96.815-35.187 17.475-60.958 49.2-96.058 67.345-41.662 21.598-84.407 27.434-98.823 77.647z" fill="#DDD0A4"/><path d="M246 420.719c105.369 0 190.788-4.987 190.788-11.139 0-6.152-85.419-11.139-190.788-11.139-105.369 0-190.788 4.987-190.788 11.139 0 6.152 85.419 11.139 190.788 11.139z" fill="#A89060"/><path d="M161.376 99.758c-7.429-6.977-19.68-8.315-24.265-1.053-4.586 7.262-1.968 14.937-11.376 22.986-6.396 5.501-1.653 22.357 34.834 20.812 17.269-.728 11.424-18.696 10.962-27.188-.463-8.492-.492-18.883-10.155-15.557z" fill="#263238"/><path d="M147 395.981l-8.837.345-.167-9.565 8.837-.344.167 9.564z" fill="#FDCEA4"/><path d="M137.612 394.495h9.988a.774.774 0 01.485.166c.138.11.234.263.273.435l1.731 7.921a1.323 1.323 0 01-.274 1.105 1.326 1.326 0 01-1.034.479c-3.493-.059-5.186-.266-9.584-.266-2.706 0-9.722.286-13.462.286-3.739 0-4.211-3.7-2.686-4.035 6.888-1.505 10.893-3.572 13.097-5.549.404-.357.927-.55 1.466-.542z" fill="#263238"/><path opacity=".2" d="M137.996 386.771l.079 4.448 8.836-.384-.078-4.408-8.837.344z" fill="#000"/><path d="M124.968 203.344c-1.968 10.607.295 62.454 3.296 85.352 3.995 30.405 8.128 101.007 8.128 101.007l11.808-.708s2.952-74.351.541-98.764c1.368-31.419 4.753-86.297 4.753-86.297l-28.526-.59z" fill="#4A607A"/><path opacity=".2" d="M151.536 238.128c.413-7.961-5.225-15.036-7.498 0-1.437 9.555 1.535 26.302 5.432 38.13.6-12.31 1.367-26.017 2.066-38.13z" fill="#000"/><path d="M211.924 366.235l-5.747 5.491-7.783-8.345 5.737-5.481 7.793 8.335z" fill="#FDCEA4"/><path d="M204.672 371.873l5.904-8.088a.668.668 0 01.895-.197l6.888 4.054a1.514 1.514 0 01.394 2.145c-2.096 2.785-3.247 4.015-5.835 7.577-1.594 2.185-3.434 5.196-5.629 8.226-2.194 3.031-5.195.856-4.546-.61 2.952-6.583 1.703-8.413 1.545-11.552a2.447 2.447 0 01.384-1.555z" fill="#263238"/><path opacity=".2" d="M198.394 363.391l4.015 4.29 5.697-5.53-3.965-4.251-5.747 5.491z" fill="#000"/><path d="M138.665 203.629s12.714 66.912 16.02 92.89c1.968 15.517 45.362 71.349 45.362 71.349l7.41-7.803s-15.882-40.875-35.011-65.121c-.758-28.418 2.47-75.197-8.512-90.794l-25.269-.521z" fill="#4A607A"/><path d="M127.507 152.323c0 5.747-.266 11.385-.689 17.082-.423 5.698-.984 11.366-1.899 17.073l-.167 1.072-.227 1.211c-.17.794-.357 1.571-.561 2.332-.433 1.505-.984 2.952-1.476 4.349a82.688 82.688 0 01-3.66 8.03 117.117 117.117 0 01-9.141 14.651 2.44 2.44 0 01-4.182-2.46v-.059c2.312-4.998 4.555-10.125 6.514-15.203a99.582 99.582 0 002.607-7.626c.354-1.259.669-2.509.915-3.729.128-.61.217-1.21.305-1.801l.099-.875.098-.984c.502-5.452.797-10.982 1.073-16.522.275-5.54.403-11.129.561-16.619v-.05a4.918 4.918 0 018.454-3.344 4.924 4.924 0 011.386 3.502l-.01-.03z" fill="#FDCEA4"/><path d="M124.299 145.13c-12.084 3.533-10.529 25.515-10.529 25.515l17.181 4.625s2.853-16.098 2.597-21.874c-.255-6.003-2.587-10.204-9.249-8.266z" fill="#4A607A"/><path d="M106.784 214.394l-6.052 5.146 8.482 3.464s2.627-4.005 1.407-7.803l-3.837-.807z" fill="#FDCEA4"/><path d="M101.805 227.393l3.867.482a1.97 1.97 0 002.066-1.211l1.476-3.66-8.482-3.464-.64 5.678a1.968 1.968 0 001.713 2.175z" fill="#FDCEA4"/><path d="M120.392 150.847c-.541 22.042 4.527 38.13 4.586 52.497l38.956.807c-.285-14.387-.167-23.774 6.022-49.555a8.308 8.308 0 00-6.888-10.155c-2.332-.344-4.92-.669-7.547-.846a124.524 124.524 0 00-17.712-.374c-4.152.295-8.62.906-11.808 1.388a6.582 6.582 0 00-5.609 6.238z" fill="#4A607A"/><path d="M156.702 171.216l-11.552-.079a.803.803 0 01-.617-.252.792.792 0 01-.21-.633l.64-5.471a1.051 1.051 0 011.033-.876l11.542.079a.787.787 0 01.827.875l-.64 5.481a1.038 1.038 0 01-1.023.876z" fill="#fff"/><path opacity=".4" d="M137.868 143.231s-6.356 4.448.364 15.606a230.24 230.24 0 0117.329-15.242l-17.693-.364z" fill="#fff"/><path d="M154.222 123.64c-1.23 5.667-2.568 16.078 1.339 19.955a55.742 55.742 0 00-16.728 10.313c-4.32-7.932-.984-10.687-.984-10.687 6.376-1.377 6.317-6.091 5.303-10.538l11.07-9.043z" fill="#FDCEA4"/><path opacity=".2" d="M153.022 124.624a23.8 23.8 0 01-2.568 9.722c-1.073 2.076-3.936 2.952-6.82 3.119a15.469 15.469 0 00-.462-4.782l9.85-8.059z" fill="#000"/><path d="M163.442 116.702c-2.952 9.073-3.936 12.97-9.84 16.512-8.806 5.323-19.306-.236-19.168-9.988.138-8.777 4.92-22.13 14.829-23.498a12.984 12.984 0 0111.829 4.528 12.984 12.984 0 012.35 12.446z" fill="#FDCEA4"/><path d="M139.384 104.786c4.92 1.388 16.905 2.421 19.306.984-2.254 3.464-.109 12.93 3.375 15.223 4.693-3.769 5.736-12.881 1.397-17.397-4.339-4.517-18.056-9.92-24.078 1.19z" fill="#263238"/><path d="M164.82 122.252a6.896 6.896 0 01-3.621 3.936c-2.224.984-3.7-.905-3.385-3.198.285-2.056 1.791-5.058 4.172-5.097a3.13 3.13 0 012.834 4.359z" fill="#FDCEA4"/><path d="M164.564 201.877l1.693 3.533c.128.266-.197.541-.65.531l-40.865-.856c-.345 0-.63-.187-.65-.413l-.285-3.493c0-.236.295-.433.679-.433l39.458.826a.7.7 0 01.62.305z" fill="#263238"/><path d="M159.182 206.178h1.053c.206 0 .374-.109.364-.237l-.404-4.546c0-.128-.197-.246-.403-.246h-1.063c-.207 0-.364.099-.354.236l.393 4.537c.02.147.197.256.414.256zm-31.478-.65h1.062c.207 0 .374-.098.364-.236l-.403-4.546c0-.128-.197-.236-.404-.246h-1.062c-.207 0-.374.098-.355.236l.394 4.536c.02.138.197.246.404.256zm15.734.325h1.062c.207 0 .374-.099.365-.236l-.404-4.537c0-.137-.197-.246-.403-.246h-1.063c-.207 0-.364.109-.354.237l.393 4.546c.02.118.197.236.404.236z" fill="#4A607A"/><path d="M149.283 115.945c-.197.748-.748 1.259-1.24 1.131-.492-.128-.728-.836-.541-1.584.187-.748.747-1.259 1.239-1.132.492.128.729.837.542 1.585zm-8.482-2.165c-.187.758-.738 1.259-1.23 1.132-.492-.128-.738-.827-.542-1.585.197-.757.738-1.249 1.23-1.131.492.118.738.836.542 1.584z" fill="#263238"/><path d="M140.466 112.294l-1.673-.984s.571 1.653 1.673.984z" fill="#263238"/><path d="M142.68 115.64a20.741 20.741 0 01-3.887 4.113 3.337 3.337 0 002.539 1.181l1.348-5.294z" fill="#D19146"/><path d="M143.152 123.876a.244.244 0 01-.078-.246.219.219 0 01.112-.133.226.226 0 01.173-.015 6.153 6.153 0 005.471-.905.226.226 0 11.295.344 6.47 6.47 0 01-5.904.984l-.069-.029zm10.755-11.385a.703.703 0 01-.147-.187 3.592 3.592 0 00-2.441-2.194.454.454 0 01.158-.896 4.546 4.546 0 013.129 2.736.458.458 0 01-.15.528.464.464 0 01-.549.013zm-14.779-3.493l-.059-.059a.453.453 0 010-.64 4.536 4.536 0 013.936-1.151.46.46 0 01.28.212.446.446 0 01.044.349.453.453 0 01-.551.324 3.595 3.595 0 00-3.148.935.455.455 0 01-.502.03z" fill="#263238"/><path d="M169.947 151.398a209.287 209.287 0 018.137 11.572c1.289 1.968 2.569 3.936 3.779 6.062a61.105 61.105 0 013.503 6.671c.311.715.581 1.448.807 2.194.164.576.276 1.166.334 1.762a5.06 5.06 0 010 .718v.443a4.92 4.92 0 01-.088.58l-.069.305v.246l-.079.217c-.462 1.181-.826 2.371-1.377 3.513a44.183 44.183 0 01-3.582 6.721 33.585 33.585 0 01-4.979 5.904 24.384 24.384 0 01-3.08 2.45c-.561.364-1.132.718-1.722 1.043l-.935.452c-.354.158-.61.266-1.122.453l-1.869-4.487c.133-.13.274-.252.423-.364l.541-.472c.364-.325.718-.679 1.063-1.043a26.73 26.73 0 001.968-2.372 34.535 34.535 0 003.129-5.363c.413-.984.866-1.909 1.21-2.952.345-1.043.728-1.968 1.043-2.952.315-.984.561-2.066.866-3.089v-.286.286c0 .118-.049.295-.059.364a1.704 1.704 0 000 .226v.344c0-.098-.275-.629-.482-1.043-.896-1.682-2.096-3.621-3.326-5.471a257.144 257.144 0 00-3.818-5.609 1530.495 1530.495 0 00-7.931-11.197l7.715-5.826z" fill="#FDCEA4"/><path d="M172.082 201.543l-7.587 5.363-3.404-7.754s4.605-2.47 8.236-.817l2.755 3.208z" fill="#FDCEA4"/><path d="M159.211 207.545l-1.899-2.647a2.4 2.4 0 01.522-3.306l3.257-2.44 3.404 7.754-2.086 1.289a2.388 2.388 0 01-3.198-.65z" fill="#FDCEA4"/><path d="M154.764 149.056c-2.579 10.244 13.323 27.779 13.323 27.779l13.373-13.885s-6.111-13.047-14.091-17.141c-5.57-2.853-11.464-1.269-12.605 3.247z" fill="#4A607A"/><path d="M148.948 114.459l-1.673-.984s.561 1.653 1.673.984zm-17.092 61.962a.364.364 0 01-.335-.226.353.353 0 01.207-.453l1.535-.59a7.53 7.53 0 004.92-7.026l.108-14.386a4.779 4.779 0 00-3.653-4.783 4.786 4.786 0 00-5.439 2.579l-6.652 12.792a7.56 7.56 0 00.984 8.502l1.083 1.23a.375.375 0 01.085.12.36.36 0 01-.005.289.354.354 0 01-.612.053L123 173.184a8.219 8.219 0 01-1.112-9.289l6.652-12.792a5.484 5.484 0 0110.342 2.578l-.108 14.386a8.24 8.24 0 01-1.475 4.666 8.239 8.239 0 01-3.859 3.009l-1.535.581-.049.098z" fill="#263238"/><path d="M138.537 156.948a.362.362 0 01-.354-.344 5.666 5.666 0 00-7.604-4.621 5.667 5.667 0 00-2.659 2.052.365.365 0 01-.089.106.364.364 0 01-.261.074.365.365 0 01-.238-.131.368.368 0 01-.063-.123.34.34 0 01-.011-.138.34.34 0 01.042-.132 6.379 6.379 0 016.822-2.614 6.372 6.372 0 014.799 5.507.366.366 0 01-.099.251.367.367 0 01-.245.113h-.04zm-3.837-7.862a.37.37 0 01-.295-.158 3.084 3.084 0 010-2.538 5.556 5.556 0 013.316-3.494.345.345 0 01.269.011.33.33 0 01.173.206.353.353 0 01-.216.443 4.976 4.976 0 00-2.844 3.06 2.551 2.551 0 00-.25.973 2.55 2.55 0 00.142.995.352.352 0 01-.008.396.352.352 0 01-.1.096.408.408 0 01-.187.01zm-3.651 26.794c-.167.64 0 1.25.472 1.358.473.108.906-.335 1.063-.984.158-.649-.059-1.259-.482-1.358-.423-.098-.895.335-1.053.984zm27.926-16.994c.315 1.486 1.378 2.51 2.352 2.303.974-.207 1.505-1.594 1.181-3.07-.325-1.476-1.378-2.519-2.352-2.303-.974.217-1.506 1.624-1.181 3.07z" fill="#263238"/><path d="M162.055 158.424a.357.357 0 01-.133-.022.352.352 0 01-.221-.313c-.207-5.441-2.273-12.201-6.298-14.199a.354.354 0 01-.157-.472.348.348 0 01.202-.18.354.354 0 01.27.023c4.31 2.135 6.465 8.974 6.681 14.76a.336.336 0 01-.199.336.35.35 0 01-.135.028l-.01.039z" fill="#263238"/><path d="M157.922 159.014c.207 1.27 1.122 2.175 2.047 2.027.925-.147 1.515-1.298 1.309-2.578-.207-1.279-1.132-2.174-2.057-2.027-.925.148-1.506 1.299-1.299 2.578z" fill="#fff"/><path d="M157.843 159.123c.296 1.574 1.122 2.735 1.841 2.597.718-.137 1.043-1.515.747-3.089-.295-1.575-1.121-2.736-1.84-2.598-.718.138-1.053 1.515-.748 3.09zM123.61 174.02c-.157.65.059 1.26.482 1.358.423.099.896-.324 1.063-.984.167-.659-.059-1.249-.482-1.358-.423-.108-.896.345-1.063.984zm107.787-80.127c-6.228 1.112-7.016.541-7.094-3.936-.079-4.477-2.342-11.945.807-14.287a1.702 1.702 0 012.824.826 2.044 2.044 0 012.568-1.19c.128-.925.275-3.297 1.968-3.936 1.692-.64 3.247.895 3.247.895s-.128-3.65 2.332-3.296a3.696 3.696 0 013.031 2.863s1.417-2.066 3.336-1.25c1.918.817 1.515 3.218 1.515 3.218s2.037-.984 3.552.128c1.516 1.112.414 2.893.414 2.893s1.377-3.543 4.004-1.584c2.362 1.77.217 4.546.217 4.546s2.598-.423 3.227.885c2.126 4.458-5.972 9.437-6.238 16.964-12.438 4.704-19.71-3.739-19.71-3.739z" fill="#263238"/><path d="M186.507 213.528l-4.152-.768-5.491 5.245a2.947 2.947 0 00-.915 2.214l.079 4.29a2.948 2.948 0 002.706 2.903l1.909.167a2.95 2.95 0 003.129-2.174l.984-3.503s5.422-6.406 1.751-8.374z" fill="#FFB573"/><path d="M228.445 135.064c-2.784 7.213-5.559 14.455-8.236 21.717-2.676 7.262-5.333 14.553-7.822 21.726l-.443 1.329-.305.866c-.118.324-.236.659-.345.915-.462 1.171-.925 2.135-1.387 3.109-.925 1.968-1.86 3.73-2.805 5.511-1.899 3.542-3.857 6.957-5.835 10.361a1244.358 1244.358 0 01-11.945 20.241l-12.527-7.793c4.133-6.426 8.118-13.058 11.936-19.68 1.88-3.326 3.73-6.662 5.452-9.968a102.307 102.307 0 002.41-4.92c.345-.777.689-1.575.915-2.224.079-.187.109-.315.158-.443l.157-.511.453-1.437c2.371-7.557 4.861-14.858 7.262-22.268l7.203-22.15 15.704 5.619z" fill="#C2D4FE"/><path opacity=".6" d="M228.445 135.064c-2.784 7.213-5.559 14.455-8.236 21.717-2.676 7.262-5.333 14.553-7.822 21.726l-.443 1.329-.305.866c-.118.324-.236.659-.345.915-.462 1.171-.925 2.135-1.387 3.109-.925 1.968-1.86 3.73-2.805 5.511-1.899 3.542-3.857 6.957-5.835 10.361a1244.358 1244.358 0 01-11.945 20.241l-12.527-7.793c4.133-6.426 8.118-13.058 11.936-19.68 1.88-3.326 3.73-6.662 5.452-9.968a102.307 102.307 0 002.41-4.92c.345-.777.689-1.575.915-2.224.079-.187.109-.315.158-.443l.157-.511.453-1.437c2.371-7.557 4.861-14.858 7.262-22.268l7.203-22.15 15.704 5.619z" fill="#fff"/><path d="M190.916 398.431l-8.827.433 4.172-22.986 8.394 1.929-3.739 20.624zm63.32.335h-8.826l.029-20.438h8.817l-.02 20.438z" fill="#FFB573"/><path d="M244.573 397.743h10.755a.728.728 0 01.728.6l1.417 7.872a1.345 1.345 0 01-.776 1.451 1.356 1.356 0 01-.572.123c-3.463-.059-5.982-.265-10.341-.265-2.677 0-10.825.275-14.485.275s-4.034-3.66-2.509-3.995c6.888-1.486 12.074-3.532 14.327-5.491a2.202 2.202 0 011.456-.57z" fill="#263238"/><path opacity=".2" d="M186.261 375.888l-1.928 10.627 8.393 1.929 1.929-10.627-8.394-1.929zm67.995 2.44h-8.827v10.529h8.827v-10.529z" fill="#000"/><path d="M261.36 134.808c-6.888 30.986-5.058 61.569-5.796 68.191l-47.104-3.109c-4.92-37.392.571-61.244 3.69-71.025a8.855 8.855 0 017.321-6.131 135.642 135.642 0 0121.097-.659 78.722 78.722 0 0114.131 2.145 8.854 8.854 0 016.661 10.588z" fill="#C2D4FE"/><path d="M247.161 101.076c-1.555 5.836-3.395 16.168-.433 21.393.463.816-.423 1.515-.462 2.46-.109 2.893-4.025 3.759-11.031 3.798-7.006.039-10.007-2.883-8.098-5.638.292-.42.737-.71 1.24-.807 6.563-1.466 6.691-6.613 5.795-11.523l12.989-9.683z" fill="#FFB573"/><path opacity=".4" d="M234.733 127.123a18.793 18.793 0 013.395 8.669c6.996-3.287 10.332-11.267 10.332-11.267l-2.106-2.253s-7.773 1.466-11.621 4.851zm-.689.029a27.448 27.448 0 00-6.415 7.518c-4.891-3.03-3.277-11.67-3.277-11.67l3.985-.787s1.781 1.643 5.707 4.939z" fill="#000"/><path d="M234.359 126.936l-1.505.148-2.549 1.682a4.619 4.619 0 00.512 2.952c1.48.289 2.991.392 4.497.305a4.755 4.755 0 002.273-2.342l-1.87-2.391-1.358-.354z" fill="#263238"/><path d="M234.359 126.936a25.28 25.28 0 014.281 7.931c6.996-3.287 11.07-11.139 11.07-11.139l-3.375-2.952s-8.128 2.795-11.976 6.16zm0 0a25.91 25.91 0 00-6.967 6.455c-4.92-3.021-3.04-11.159-3.04-11.159l3.985-.787s2.106 2.214 6.022 5.491z" fill="#C2D4FE"/><path opacity=".2" d="M241.867 105.022l-7.675 5.727c.232 1.184.361 2.386.384 3.592 2.765-.207 6.74-2.952 7.222-5.825a9.838 9.838 0 00.069-3.494z" fill="#000"/><path d="M248.568 91.433c-1.112 8.689-1.318 13.776-6.022 18.017-7.075 6.288-17.574 1.585-19.08-7.262-1.358-7.96.689-20.83 9.457-23.734a11.944 11.944 0 0115.645 12.98z" fill="#FFB573"/><path d="M246.443 99.286c-1.968-1.9-.738-10.992.256-13.6-4.92.473-20.822.453-20.222-3.935.601-4.389 6.387-8.118 15.843-5.038 7.872 2.568 9.84 6.494 9.84 9.702.118 6.593-5.717 12.87-5.717 12.87z" fill="#263238"/><path d="M251.619 99.384a7.716 7.716 0 01-4.448 3.759c-2.509.777-3.749-1.535-3.041-4.015.63-2.224 2.706-5.323 5.216-5.008 2.509.314 3.424 3.05 2.273 5.264z" fill="#FFB573"/><path d="M181.459 383.819l14.593 3.218s14.189-55.606 18.401-82.784c1.289-8.266 4.28-20.064 7.006-32.472 3.434-15.646 7.754-32.571 11.296-45.825 3.74-13.963 6.514-24 6.514-24l-30.809-2.037s-14.336 72.728-17.229 99.502c-3.021 27.828-9.772 84.398-9.772 84.398z" fill="#263238"/><path opacity=".2" d="M221.459 271.761c3.434-15.646 7.754-32.57 11.296-45.825l-3.237-6.888c-7.646 9.132-9.604 37.382-8.059 52.713z" fill="#000"/><path d="M223.142 200.864s6.376 74.321 8.856 100.053c2.755 28.182 10.145 85.913 10.145 85.913h14.819s.669-61.48-1.968-88.698c-.374-53.51.561-95.123.561-95.123l-32.413-2.145z" fill="#263238"/><path d="M240.253 387.174h19.031v-5.687l-19.769-1.092.738 6.779zm-60.703-3.414l17.388 3.838 1.24-5.619-18.204-4.585-.424 6.366z" fill="#C2D4FE"/><path d="M235.865 92.988c0 .709-.463 1.26-.925 1.23-.463-.03-.807-.63-.758-1.338.049-.709.463-1.26.925-1.23.463.03.807.63.758 1.338zm-8.03-.492c0 .709-.462 1.26-.925 1.23-.462-.03-.806-.63-.757-1.338.049-.709.462-1.26.925-1.23.462.03.807.59.757 1.338z" fill="#263238"/><path d="M229.675 92.988a25.726 25.726 0 01-3.788 5.845c1.171 1.259 3.346.866 3.346.866l.442-6.711z" fill="#ED893E"/><path d="M232.106 101.795a5.909 5.909 0 004.162-2.067.205.205 0 000-.285.217.217 0 00-.295 0 5.651 5.651 0 01-4.733 1.909.202.202 0 00-.152.046.205.205 0 00-.074.141.216.216 0 00.196.226c.298.028.597.038.896.03zm5.717-11.267a.425.425 0 00.325-.65 4.185 4.185 0 00-3.287-1.968.424.424 0 000 .837 3.329 3.329 0 012.588 1.574.405.405 0 00.374.207zm-13.953-1.053a.428.428 0 00.334-.206 3.316 3.316 0 012.48-1.693.43.43 0 00.394-.443.423.423 0 00-.443-.394 4.146 4.146 0 00-3.159 2.155.416.416 0 00.158.56.343.343 0 00.236.021z" fill="#263238"/><path d="M241.592 399.278a10.64 10.64 0 002.322-.315.203.203 0 00.104-.06.201.201 0 00.053-.107.187.187 0 00-.078-.207c-.315-.207-3.09-1.968-4.094-1.457a.706.706 0 00-.374.591 1.219 1.219 0 00.384 1.112 2.592 2.592 0 001.683.443zm1.722-.61c-1.506.305-2.657.246-3.12-.158a.813.813 0 01-.255-.758c0-.157.078-.216.137-.246.522-.255 2.116.492 3.238 1.162z" fill="#C2D4FE"/><path d="M243.865 398.973a.154.154 0 00.108 0 .217.217 0 00.08-.079.196.196 0 00.028-.108c0-.109-.108-2.657-1.102-3.494a1.116 1.116 0 00-.886-.265.696.696 0 00-.678.541c-.227.984 1.456 2.952 2.351 3.414a.168.168 0 00.099-.009zm-1.634-3.582a.71.71 0 01.473.187c.629.531.856 2.017.925 2.765-.876-.689-1.968-2.155-1.811-2.736 0-.049 0-.177.315-.206h.098v-.01z" fill="#C2D4FE"/><path d="M180.771 394.978l10.351 2.952a.737.737 0 01.532.777l-.768 7.941a1.372 1.372 0 01-1.149 1.178c-.194.03-.393.017-.583-.037-3.316-.984-5.677-1.879-9.84-3.07-2.578-.728-10.971-3.739-14.032-5.825-3.06-2.086-1.259-5.304.187-4.714 6.505 2.638 11.08 2.214 13.776.984a2.24 2.24 0 011.526-.186z" fill="#263238"/><path d="M177.474 395.647a11.17 11.17 0 002.323.324.214.214 0 00.206-.118.197.197 0 000-.226c-.246-.275-2.44-2.716-3.532-2.509a.728.728 0 00-.532.472 1.232 1.232 0 00.069 1.161c.375.454.891.769 1.466.896zm1.831-.118c-1.536-.118-2.628-.492-2.953-.984a.844.844 0 010-.797c.06-.158.138-.187.207-.197.561-.128 1.84 1.033 2.746 2.017v-.039z" fill="#C2D4FE"/><path d="M179.747 395.962a.231.231 0 00.219-.057.222.222 0 00.057-.101c0-.098.61-2.578-.109-3.66a1.122 1.122 0 00-.777-.492.707.707 0 00-.807.334c-.492.886.61 3.208 1.329 3.936a.191.191 0 00.088.04zm-.6-3.887a.69.69 0 01.403.305c.473.689.276 2.184.148 2.952-.659-.896-1.289-2.598-.984-3.119 0-.05.089-.158.364-.119l.069-.019zm68.162-270.374a.704.704 0 00-.586.177.698.698 0 00-.221.571c.344 5.274-7.872 14.76-9.84 43.168-1.171 17.279-2.244 71.153-1.456 99.177a2.412 2.412 0 00.99 1.879 2.42 2.42 0 002.089.375c14.524-4.054 21.383 5.776 24.177-5.816-.147-13.884-4.349-63.733-3.267-75.551 1.083-11.818 5.58-43.926 6.701-52.487.994-7.439-14.523-10.755-18.587-11.493z" fill="#C2D4FE"/><path opacity=".7" d="M247.309 121.701a.704.704 0 00-.586.177.698.698 0 00-.221.571c.344 5.274-7.872 14.76-9.84 43.168-1.171 17.279-2.244 71.153-1.456 99.177a2.412 2.412 0 00.99 1.879 2.42 2.42 0 002.089.375c14.524-4.054 21.383 5.776 24.177-5.816-.147-13.884-4.349-63.733-3.267-75.551 1.083-11.818 5.58-43.926 6.701-52.487.994-7.439-14.523-10.755-18.587-11.493z" fill="#fff"/><path opacity=".2" d="M256.883 145.78c-.64 4.388-.886 22.12 3.336 30.651.708-5.904 1.633-12.92 2.529-19.68l-5.865-10.971z" fill="#C2D4FE"/><path d="M262.915 222.463l-4.192.492-3.71 6.622a2.964 2.964 0 00-.236 2.381l1.338 4.074a2.95 2.95 0 003.444 1.968l1.87-.394a2.949 2.949 0 002.362-3.011l-.118-3.621s3.326-7.685-.758-8.511z" fill="#FFB573"/><path d="M265.218 129.888a495.653 495.653 0 013.808 11.759c1.23 3.936 2.46 7.872 3.621 11.808a310.695 310.695 0 013.316 12.064c.512 2.056.984 4.132 1.436 6.307a72.16 72.16 0 01.581 3.385c.079.61.167 1.171.216 1.85l.089.984.049 1.112c.02.373.02.748 0 1.122 0 .393 0 .767-.049 1.072l-.089.984-.108.886a70.614 70.614 0 01-.492 3.355c-.354 2.145-.767 4.212-1.19 6.258-.847 4.094-1.791 8.099-2.746 12.084-.954 3.985-1.968 7.96-2.952 11.926l-2.952 11.897-14.248-3.868c2.204-7.685 4.211-15.507 6.071-23.281a374.75 374.75 0 002.509-11.641c.374-1.968.729-3.837.984-5.687.148-.925.266-1.84.345-2.667a12.94 12.94 0 00.079-1.968v-.413l-.069-.532c0-.334-.118-.777-.177-1.161a52.42 52.42 0 00-.512-2.597 111.652 111.652 0 00-1.407-5.501c-.984-3.729-2.234-7.508-3.503-11.267-2.51-7.518-5.334-15.084-8.246-22.445l15.636-5.825z" fill="#C2D4FE"/><path opacity=".7" d="M265.218 129.888a495.653 495.653 0 013.808 11.759c1.23 3.936 2.46 7.872 3.621 11.808a310.695 310.695 0 013.316 12.064c.512 2.056.984 4.132 1.436 6.307a72.16 72.16 0 01.581 3.385c.079.61.167 1.171.216 1.85l.089.984.049 1.112c.02.373.02.748 0 1.122 0 .393 0 .767-.049 1.072l-.089.984-.108.886a70.614 70.614 0 01-.492 3.355c-.354 2.145-.767 4.212-1.19 6.258-.847 4.094-1.791 8.099-2.746 12.084-.954 3.985-1.968 7.96-2.952 11.926l-2.952 11.897-14.248-3.868c2.204-7.685 4.211-15.507 6.071-23.281a374.75 374.75 0 002.509-11.641c.374-1.968.729-3.837.984-5.687.148-.925.266-1.84.345-2.667a12.94 12.94 0 00.079-1.968v-.413l-.069-.532c0-.334-.118-.777-.177-1.161a52.42 52.42 0 00-.512-2.597 111.652 111.652 0 00-1.407-5.501c-.984-3.729-2.234-7.508-3.503-11.267-2.51-7.518-5.334-15.084-8.246-22.445l15.636-5.825z" fill="#fff"/><path d="M228.17 120.963a1.14 1.14 0 01.895 1.86c-2.342 2.716-3.818 6.445-6.592 18.41-3.346 14.436-10.47 87.065-11.808 122.656a2.045 2.045 0 01-.752 1.54 2.044 2.044 0 01-1.659.428c-6.947-1.279-11.71 2.086-12.468-2.371-.836-4.92 2.283-51.916 8.118-74.017-.915-19.601 2.392-58.922 8.994-64.147 3.582-2.903 11.198-4.29 15.272-4.359z" fill="#C2D4FE"/><path opacity=".7" d="M228.17 120.963a1.14 1.14 0 01.895 1.86c-2.342 2.716-3.818 6.445-6.592 18.41-3.346 14.436-10.47 87.065-11.808 122.656a2.045 2.045 0 01-.752 1.54 2.044 2.044 0 01-1.659.428c-6.947-1.279-11.71 2.086-12.468-2.371-.836-4.92 2.283-51.916 8.118-74.017-.915-19.601 2.392-58.922 8.994-64.147 3.582-2.903 11.198-4.29 15.272-4.359z" fill="#fff"/><path d="M231.998 130.715s-8.502 23.881-11.493 43.896c-.237 5.441 2.351 15.98 4.447 20.575 4.379-9.535 7.115-15.153 7.548-20.575.698-8.158 1.849-43.739 1.849-43.739l-2.351-.157zm17.79 28.408a.388.388 0 01-.235-.089.389.389 0 01-.134-.213.4.4 0 01.022-.251.396.396 0 01.17-.185l1.614-.847a8.336 8.336 0 004.467-8.364l-1.751-15.862a5.295 5.295 0 00-10.214-1.299l-5.668 14.908a8.35 8.35 0 002.214 9.22l1.358 1.23a.392.392 0 010 .551.394.394 0 01-.551 0l-1.358-1.22a9.133 9.133 0 01-2.391-10.086l5.717-14.878a6.079 6.079 0 016.447-3.852 6.08 6.08 0 015.272 5.348l1.752 15.852a9.133 9.133 0 01-4.92 9.151l-1.614.836a.317.317 0 01-.197.05z" fill="#263238"/><path d="M254.669 136.776a.383.383 0 01-.384-.335 5.821 5.821 0 00-1.841-3.304 5.817 5.817 0 00-3.482-1.478c-2.185-.275-5.156.413-6.347 3.287a.39.39 0 01-.521.239.396.396 0 01-.219-.222.393.393 0 01.012-.312 7.06 7.06 0 017.171-3.763 7.06 7.06 0 015.995 5.445.384.384 0 01-.325.433l-.059.01zm-5.294-8.138a.385.385 0 01-.269-.129.384.384 0 01-.095-.284c.118-1.919-.157-5.412-1.968-6.317a.394.394 0 01.364-.699c2.618 1.348 2.381 6.485 2.342 7.065a.383.383 0 01-.374.364zm-7.134 29.127c-.098.738-.561 1.279-1.043 1.21-.482-.069-.797-.699-.699-1.427.099-.728.551-1.279 1.034-1.21.482.069.797.698.708 1.427zm-22.878-15.951c-.62 1.565-1.968 2.509-2.952 2.106-.984-.404-1.368-1.968-.748-3.572.62-1.604 1.968-2.509 2.952-2.106.984.404 1.358 2.008.748 3.572z" fill="#263238"/><path d="M216.126 140.801h-.079a.4.4 0 01-.248-.169c-.057-.087-.077-.192-.057-.294 1.299-6.465 6.672-16.728 11.405-19.68a.398.398 0 01.315-.091.386.386 0 01.275.18.39.39 0 01-.177.57c-4.576 2.883-9.781 12.792-11.05 19.159a.399.399 0 01-.384.325z" fill="#263238"/><path d="M220.485 142.139c-.453 1.348-1.614 2.184-2.598 1.86-.984-.325-1.427-1.693-.984-3.051.443-1.358 1.614-2.184 2.598-1.86.984.325 1.436 1.693.984 3.051z" fill="#fff"/><path d="M220.554 142.277c-.6 1.662-1.712 2.794-2.47 2.519-.758-.276-.886-1.85-.276-3.523s1.713-2.795 2.47-2.519c.758.275.886 1.85.276 3.523zm30.11 16.57c-.088.728-.561 1.269-1.043 1.21-.482-.059-.797-.708-.699-1.436.099-.728.561-1.27 1.043-1.211.483.06.797.699.699 1.437zm55.793-42.637c3.286 8.984-5.451 13.501-11.178 26.736-5.727 13.234 8.088 29.018 29.293 29.362 21.206.345 21.875-19.965 18.588-34.538-3.286-14.573 3.582-16.945 2.126-28.074-1.87-14.622-22.937-25.702-31.301-12.28-7.44-.699-10.401 10.942-7.528 18.794z" fill="#263238"/><path d="M369.266 237.144v-1.141a3.82 3.82 0 00-.404-1.575l-3.562-7.026-4.172-.787c-2.952 3.178 0 9.515 0 9.515v1.014a3.819 3.819 0 002.775 3.67l.561.168a3.837 3.837 0 003.366-.711 3.822 3.822 0 001.436-3.127z" fill="#FFC3BD"/><path d="M351.583 146.764l1.535 10.765 1.614 10.735a959.773 959.773 0 001.663 10.745l1.702 10.667.207 1.053c.069.344.187.787.275 1.171l.296 1.21.344 1.25c.443 1.653.984 3.365 1.456 5.057.984 3.395 2.116 6.829 3.228 10.244 2.263 6.819 4.625 13.668 7.144 20.398l-13.914 4.92-6.967-20.802c-1.151-3.473-2.322-6.947-3.434-10.489-.551-1.781-1.102-3.542-1.623-5.383l-.404-1.367-.384-1.427c-.128-.492-.265-.925-.383-1.466l-.365-1.614-2.056-10.824a683.76 683.76 0 00-2.057-10.706l-2.105-10.706-2.195-10.627 16.423-2.804z" fill="#C1CEEC"/><path opacity=".6" d="M351.583 146.764l1.535 10.765 1.614 10.735a959.773 959.773 0 001.663 10.745l1.702 10.667.207 1.053c.069.344.187.787.275 1.171l.296 1.21.344 1.25c.443 1.653.984 3.365 1.456 5.057.984 3.395 2.116 6.829 3.228 10.244 2.263 6.819 4.625 13.668 7.144 20.398l-13.914 4.92-6.967-20.802c-1.151-3.473-2.322-6.947-3.434-10.489-.551-1.781-1.102-3.542-1.623-5.383l-.404-1.367-.384-1.427c-.128-.492-.265-.925-.383-1.466l-.365-1.614-2.056-10.824a683.76 683.76 0 00-2.057-10.706l-2.105-10.706-2.195-10.627 16.423-2.804z" fill="#fff"/><path d="M349.369 145.937c.463 5.245.049 18.293-5.215 50.637h-36.408c.581-14.052.62-23.006-5.412-49.82a4.524 4.524 0 013.69-5.471 99.673 99.673 0 0110.735-1.171c5.51-.394 11.041-.394 16.551 0 4.527.413 9.437 1.23 12.409 1.771a4.507 4.507 0 013.65 4.054z" fill="#263238"/><path d="M318.363 121.475c1.043 5.323 2.086 15.085-1.643 18.637 0 0 4.664 5.668 11.808 5.668s4.753-5.668 4.753-5.668c-5.904-1.417-5.786-5.826-4.753-9.958l-10.165-8.679z" fill="#FFC3BD"/><path opacity=".2" d="M322.506 125.017l6.012 5.127a17.364 17.364 0 00-.511 2.952c-2.274-.325-5.836-2.263-6.328-4.733-.226-1.171.63-2.795.827-3.346z" fill="#000"/><path d="M312.095 111.025c1.388 8.797 1.791 12.546 6.692 16.659 7.379 6.189 17.879 2.558 19.148-6.475 1.142-8.128-1.328-21.156-10.322-23.842a12.151 12.151 0 00-15.518 13.658z" fill="#FFC3BD"/><path d="M313.561 117.362c5.039-4.989 6.77-11.926 6.298-14.76 4.851 1.348 8.413-.561 8.197-1.388 3.424 3.346 9.633 5.993 8.934 2.391-.698-3.601-5.293-10.243-14.878-7.872-9.584 2.372-13.274 12.212-13.136 16.207.138 3.995 4.585 5.422 4.585 5.422z" fill="#263238"/><path d="M324.72 112.019c.069.728.502 1.269.984 1.23.482-.04.797-.67.728-1.388-.069-.718-.512-1.269-.984-1.23-.472.039-.728.669-.728 1.388zm8.177-.778c.069.719.512 1.27.984 1.22.472-.049.797-.659.728-1.377-.069-.719-.511-1.27-.984-1.23-.472.039-.797.669-.728 1.387z" fill="#263238"/><path d="M333.428 109.913l1.683-.66s-.767 1.437-1.683.66z" fill="#263238"/><path d="M330.516 112.776a19.269 19.269 0 003.001 4.359 3.125 3.125 0 01-2.519.729l-.482-5.088z" fill="#ED847E"/><path d="M327.337 121.032c.358.024.716.024 1.073 0a.214.214 0 00.141-.08.214.214 0 00.046-.156.201.201 0 00-.02-.08.2.2 0 00-.124-.102.19.19 0 00-.082-.005 5.755 5.755 0 01-4.871-1.791.215.215 0 00-.28-.009.218.218 0 00-.055.275 5.987 5.987 0 004.172 1.948z" fill="#263238"/><path d="M310.147 118.178a6.543 6.543 0 003.503 3.533c2.106.866 3.434-.984 3.07-3.08-.325-1.968-1.82-4.694-4.044-4.654a2.95 2.95 0 00-2.529 4.201z" fill="#FFC3BD"/><path d="M321.916 108.24a.43.43 0 00.482-.138c1.24-1.525 3.768-1.377 3.788-1.377a.435.435 0 00.435-.56.41.41 0 00-.214-.246.435.435 0 00-.162-.041c-.118 0-3.001-.177-4.507 1.693a.433.433 0 00.059.6l.119.069zm13.943-.895a.424.424 0 00.256-.778 4.248 4.248 0 00-3.838-.541.433.433 0 00-.133.7.42.42 0 00.468.087 3.363 3.363 0 013.03.463c.065.042.14.065.217.069z" fill="#263238"/><path d="M366.776 400.281l9.063-.433-2.687-20.467-9.052.443 2.676 20.457z" fill="#FFC3BD"/><path opacity=".2" d="M373.153 379.391l1.387 10.548-9.063.433-1.387-10.548 9.063-.433z" fill="#000"/><path d="M344.154 196.574s11.404 69.126 16.049 96.077c4.841 28.025 15.744 93.982 15.744 93.982l-11.985 1.968s-16.157-66.026-22.632-93.48c-7.026-29.963-24.049-70.139-23.872-98.469l26.696-.078z" fill="#4A607A"/><path opacity=".2" d="M325.842 217.789c-1.712-2.49-5.009-5.983-7.538-8.856 2.293 17.613 8.856 38.051 14.849 57.298 1.594-14.662.689-36.9-7.311-48.442z" fill="#000"/><path d="M310.865 398.894h8.974l.601-20.782h-8.984l-.591 20.782z" fill="#FFC3BD"/><path d="M320.262 397.536h-10.086a.719.719 0 00-.718.62l-1.151 7.97a1.457 1.457 0 00.856 1.478c.186.083.387.126.59.126 3.513-.069 5.206-.275 9.643-.275 2.726 0 8.365.285 12.133.285 3.769 0 3.936-3.719 2.401-4.064-7.035-1.505-9.84-3.591-12.172-5.589a2.366 2.366 0 00-1.496-.551z" fill="#263238"/><path opacity=".2" d="M320.43 378.122l-.305 10.715h-8.974l.305-10.715h8.974z" fill="#000"/><path d="M333.911 196.574s-3.641 70.011-6.101 97.268c-2.568 28.359-5.658 92.624-5.658 92.624h-12.143s-2.165-64.019-1.318-91.984c.915-30.504-6.416-69.579-1.467-97.908h26.687z" fill="#4A607A"/><path d="M308.956 386.899l14.239.266.216-8.679-14.514.905.059 7.508z" fill="#263238"/><path d="M323.628 399.14a3.366 3.366 0 002.174-.551 1.18 1.18 0 00.384-1.043.687.687 0 00-.354-.561c-1.102-.61-4.684 1.22-5.087 1.437a.22.22 0 00-.088.091.21.21 0 00.034.241c.03.032.07.053.113.061.928.198 1.874.307 2.824.325zm1.604-1.86a.915.915 0 01.393.079.254.254 0 01.138.226.724.724 0 01-.246.679c-.541.492-2.017.581-4.005.246a11.512 11.512 0 013.72-1.23z" fill="#407BFF"/><path d="M320.843 398.825h.089c1.072-.482 3.188-2.421 3.021-3.434 0-.246-.207-.541-.797-.6a1.53 1.53 0 00-1.181.364c-1.122.934-1.329 3.355-1.339 3.453a.234.234 0 00.018.111.22.22 0 00.071.086.252.252 0 00.118.02zm2.145-3.641h.128c.384 0 .413.187.413.246.109.61-1.328 2.126-2.42 2.785a4.919 4.919 0 011.141-2.765c.206-.175.468-.27.738-.266z" fill="#407BFF"/><path d="M375.731 397.536h-10.086a.554.554 0 00-.559.38.558.558 0 00-.022.24l.512 7.97c.059.433.27.831.594 1.124.324.294.74.464 1.177.48 3.503-.069 5.156-.275 9.584-.275 2.736 0 8.433.285 12.202.285 3.768 0 3.188-3.719 1.554-4.064-7.35-1.505-10.558-3.591-13.343-5.589a2.844 2.844 0 00-1.613-.551z" fill="#263238"/><path d="M379.096 399.14c.77.07 1.54-.124 2.184-.551a1.194 1.194 0 00.384-1.043.704.704 0 00-.364-.561c-1.102-.61-4.674 1.22-5.077 1.437a.216.216 0 00-.118.216.226.226 0 00.167.177c.929.198 1.874.307 2.824.325zm1.604-1.86a.835.835 0 01.393.079.262.262 0 01.148.226.78.78 0 01-.246.679c-.551.492-2.027.581-4.015.246a11.592 11.592 0 013.72-1.23z" fill="#407BFF"/><path d="M376.321 398.825h.089c1.062-.482 3.178-2.421 3.011-3.434 0-.246-.207-.541-.797-.6a1.516 1.516 0 00-1.171.364c-1.132.934-1.339 3.355-1.349 3.454a.252.252 0 00.089.196.268.268 0 00.128.02zm2.135-3.641h.128c.384 0 .413.187.423.246.099.61-1.338 2.126-2.43 2.785a4.977 4.977 0 011.141-2.765c.207-.174.468-.268.738-.266z" fill="#407BFF"/><path d="M362.958 389.162l14.062-2.263-1.585-7.518-13.933 3.287 1.456 6.494zM325.281 110.69l1.683-.659s-.758 1.437-1.683.659zm-18.125 83.748l-.925 3.267c-.128.246.167.512.59.512h37.51c.335 0 .6-.167.62-.374l.335-3.257c0-.226-.266-.423-.62-.423h-36.91a.673.673 0 00-.6.275z" fill="#263238"/><path d="M312.243 198.561h-.984c-.197 0-.345-.098-.335-.216l.463-4.241c0-.128.187-.226.384-.226h.984c.196 0 .344.098.334.226l-.472 4.241c-.01.118-.177.216-.374.216zm29.313 0h-.984c-.196 0-.354-.098-.334-.216l.462-4.241c0-.128.187-.226.384-.226h.984c.197 0 .344.098.335.226l-.463 4.241c-.02.118-.187.216-.384.216zm-14.602 0h-.984c-.197 0-.345-.098-.335-.216l.463-4.241c0-.128.187-.226.383-.226h.984c.197 0 .345.098.325.226l-.462 4.241c0 .118-.178.216-.374.216z" fill="#407BFF"/><path d="M315.146 139.817c-5.717.521-14.455-.561-14.19 8.206.266 8.768-1.436 31.99-.984 42.863.453 10.873-2.381 81.279 2.205 101.687.806 3.591 30.425 3.129 34.007 2.784v-3.237s21.52-2.893 26.843-1.968c-.462-12.261-12.379-74.194-12.841-91.591-.463-17.397 1.496-47.291 1.378-52.034-.119-4.742-9.545-6.829-15.321-6.71 1.279 4.28-1.545 12.319-6.062 21.283-11.109-10.824-14.386-16.196-15.035-21.283z" fill="#D2E0FF"/><path opacity=".7" d="M315.146 139.817c-5.717.521-14.455-.561-14.19 8.206.266 8.768-1.436 31.99-.984 42.863.453 10.873-2.381 81.279 2.205 101.687.806 3.591 30.425 3.129 34.007 2.784v-3.237s21.52-2.893 26.843-1.968c-.462-12.261-12.379-74.194-12.841-91.591-.463-17.397 1.496-47.291 1.378-52.034-.119-4.742-9.545-6.829-15.321-6.71 1.279 4.28-1.545 12.319-6.062 21.283-11.109-10.824-14.386-16.196-15.035-21.283z" fill="#fff"/><path opacity=".2" d="M304.263 160.608l-3.661 2.588c-.285 7.577-.669 16.069-.708 22.632 3.404-7.527 5.323-18.391 4.369-25.22z" fill="#407BFF"/><path d="M315.923 152.746a9.325 9.325 0 01-.6.797l-.207.237-.108.118-.197.206-.393.423-.788.876a54.949 54.949 0 00-1.554 1.791 82.622 82.622 0 00-2.952 3.729 91.447 91.447 0 00-5.383 7.872 51.218 51.218 0 00-6.947 16.384 27.693 27.693 0 00-.462 3.936 5 5 0 00.56 1.879 45.259 45.259 0 004.488 7.518c1.82 2.598 3.886 5.127 6.002 7.626 1.063 1.26 2.165 2.48 3.277 3.69a107.394 107.394 0 003.355 3.523l-10.607 10.253a292.372 292.372 0 01-3.622-4.034l-3.473-4.064a160.197 160.197 0 01-6.701-8.531 58.777 58.777 0 01-6.121-10.057 27.722 27.722 0 01-1.269-3.385 16.92 16.92 0 01-.482-2.096 11.029 11.029 0 01-.158-1.23 12.242 12.242 0 01-.049-1.299c.024-2.113.204-4.221.541-6.307a56.026 56.026 0 013.287-11.503 86.394 86.394 0 014.92-10.214c1.811-3.247 3.798-6.347 5.855-9.377a119.733 119.733 0 013.217-4.468l1.683-2.194.876-1.102.443-.551.226-.266.098-.128-.137.158c-.177.226-.345.452-.502.688l13.884 9.102z" fill="#D7E3FF"/><path opacity=".7" d="M315.923 152.746a9.325 9.325 0 01-.6.797l-.207.237-.108.118-.197.206-.393.423-.788.876a54.949 54.949 0 00-1.554 1.791 82.622 82.622 0 00-2.952 3.729 91.447 91.447 0 00-5.383 7.872 51.218 51.218 0 00-6.947 16.384 27.693 27.693 0 00-.462 3.936 5 5 0 00.56 1.879 45.259 45.259 0 004.488 7.518c1.82 2.598 3.886 5.127 6.002 7.626 1.063 1.26 2.165 2.48 3.277 3.69a107.394 107.394 0 003.355 3.523l-10.607 10.253a292.372 292.372 0 01-3.622-4.034l-3.473-4.064a160.197 160.197 0 01-6.701-8.531 58.777 58.777 0 01-6.121-10.057 27.722 27.722 0 01-1.269-3.385 16.92 16.92 0 01-.482-2.096 11.029 11.029 0 01-.158-1.23 12.242 12.242 0 01-.049-1.299c.024-2.113.204-4.221.541-6.307a56.026 56.026 0 013.287-11.503 86.394 86.394 0 014.92-10.214c1.811-3.247 3.798-6.347 5.855-9.377a119.733 119.733 0 013.217-4.468l1.683-2.194.876-1.102.443-.551.226-.266.098-.128-.137.158c-.177.226-.345.452-.502.688l13.884 9.102z" fill="#fff"/><path opacity=".3" d="M330.191 161.1c1.033 20.999 6.642 94.228 6.002 131.02l1.713-.226s-2.657-56.58-3.858-81.338c-1.2-24.757-3.857-49.456-3.857-49.456zm-17.003 52.428l-10.51 11.375c0 3.818-2.666 11.454 4.399 14.229 7.065 2.775 7.252-17.358 6.111-25.604zm34.262-.354l4.625 11.591c.138 3.936 1.486 11.808-1.25 14.809-2.735 3.002-3.532-17.869-3.375-26.4z" fill="#407BFF"/><path d="M335.967 168.412l11.542-.079a.793.793 0 00.618-.253.801.801 0 00.209-.633l-.64-5.471a1.044 1.044 0 00-.984-.876l-11.552.069a.816.816 0 00-.613.256.808.808 0 00-.213.63l.639 5.481a1.057 1.057 0 00.994.876z" fill="#fff" stroke="#407BFF" stroke-width=".5" stroke-miterlimit="10"/></g><defs><filter id="filter0_dd_60_1818" x="-7" y="-7" width="506" height="506" filterUnits="userSpaceOnUse" color-interpolation-filters="sRGB"><feFlood flood-opacity="0" result="BackgroundImageFix"/><feColorMatrix in="SourceAlpha" values="0 0 0 0 0 0 0 0 0 0 0 0 0 0 0 0 0 0 127 0" result="hardAlpha"/><feOffset dx="-2" dy="-2"/><feGaussianBlur stdDeviation="2.5"/><feColorMatrix values="0 0 0 0 0.0791667 0 0 0 0 0.114 0 0 0 0 0.2375 0 0 0 0.15 0"/><feBlend in2="BackgroundImageFix" result="effect1_dropShadow_60_1818"/><feColorMatrix in="SourceAlpha" values="0 0 0 0 0 0 0 0 0 0 0 0 0 0 0 0 0 0 127 0" result="hardAlpha"/><feOffset dx="2" dy="2"/><feGaussianBlur stdDeviation="2.5"/><feColorMatrix values="0 0 0 0 0.0784314 0 0 0 0 0.113725 0 0 0 0 0.239216 0 0 0 0.15 0"/><feBlend in2="effect1_dropShadow_60_1818" result="effect2_dropShadow_60_1818"/><feBlend in="SourceGraphic" in2="effect2_dropShadow_60_1818" result="shape"/></filter></defs></svg>