<svg width="69" height="69" fill="none" xmlns="http://www.w3.org/2000/svg"><g clip-path="url(#clip0_60_1741)" fill="#0D1C41"><path d="M60.088 11.995l-.38-6.425c-.069-1.06-.951-1.874-2.025-1.807a1.925 1.925 0 00-1.806 2.025l.108 1.888c-5.542-4.143-12.266-6.398-19.33-6.398-8.64 0-16.763 3.368-22.862 9.468a1.927 1.927 0 000 2.716c1.033 1.033 2.337.38 2.717 0 5.38-5.379 12.538-8.354 20.159-8.354 6.058 0 11.818 1.875 16.627 5.352l-1.658.11a1.925 1.925 0 00-1.806 2.023 1.92 1.92 0 001.915 1.807c.04 0 6.534-.38 6.534-.38a1.925 1.925 0 001.807-2.025zM29.28 61.143C15.612 57.489 6.946 44.434 8.304 30.796l.91 1.372c.367.557 1.535 1.222 2.65.543.896-.557 1.127-1.766.543-2.649l-3.532-5.379a1.99 1.99 0 00-1.21-.829 1.977 1.977 0 00-1.44.272L.862 27.658a1.909 1.909 0 00-.543 2.649 1.909 1.909 0 002.649.543l1.589-1.046C2.695 45.507 12.598 60.64 28.288 64.838c.163.04 1.86.244 2.35-1.359.312-1.005-.327-2.065-1.359-2.336zM67.899 25.24a1.927 1.927 0 00-2.35-1.358 1.927 1.927 0 00-1.359 2.35c3.654 13.665-3.3 27.711-15.798 33.349l.733-1.481a1.906 1.906 0 00-.855-2.568 1.902 1.902 0 00-2.568.856l-2.88 5.746a1.906 1.906 0 00.856 2.568l5.746 2.88c.272.135 1.807.475 2.568-.856.53-.924.095-2.092-.856-2.568l-1.725-.869c14.535-6.221 22.685-22.346 18.488-38.049zM27.812 40.495l3.45-3.6c1.345-1.4 3.519-3.382 3.519-6.276 0-1.806-1.386-5.84-6.208-5.84-3.668 0-6.113 2.825-7.01 4.21l3.41 2.024c1.073-1.711 2.214-2.567 3.41-2.567 2.322 0 2.24 1.603 2.24 2.241 0 1.685-2.01 3.573-3.137 4.727l-5.597 5.733v3.165h13.462v-3.817h-7.54zm21.775-4.442v-3.328h-4.089v3.328h-2.703l6.466-10.84H44.63l-6.805 11.275v3.246H45.5v4.564h4.088v-4.564h2.16v-3.681h-2.16zm6.806-13.299c-.652 0-1.236.258-1.752.788v-3.043h-1.726v8.53h1.726v-3.34c0-.49.122-1.468 1.29-1.468.693 0 1.046.476 1.046 1.426v3.383h1.725v-3.75c0-1.222-.76-2.526-2.31-2.526z"/></g><defs><clipPath id="clip0_60_1741"><path fill="#fff" d="M0 0h69v69H0z"/></clipPath></defs></svg>