<svg width="76" height="74" fill="none" xmlns="http://www.w3.org/2000/svg"><path d="M41.563 64.75v5.781c0 .307.125.601.347.818.223.217.525.338.84.338h26.125c.315 0 .617-.121.84-.338a1.14 1.14 0 00.347-.818V64.75c0-.307-.125-.6-.347-.818a1.204 1.204 0 00-.84-.338V49.719c0-.139-.026-.276-.076-.406l-2.406-6.25a5.834 5.834 0 00-2.181-2.716 6.077 6.077 0 00-3.379-1.035H49.875v-7.72a8.517 8.517 0 005.94.446 8.53 8.53 0 003.826.213 8.43 8.43 0 003.518-1.48 8.15 8.15 0 002.462-2.86 7.92 7.92 0 00.883-3.63 7.92 7.92 0 00-.884-3.631 8.151 8.151 0 00-2.462-2.859 8.43 8.43 0 00-3.518-1.48 8.53 8.53 0 00-3.826.214 8.51 8.51 0 00-5.939.445V5.781A3.427 3.427 0 0048.83 3.33a3.616 3.616 0 00-2.517-1.018h-23.75a3.616 3.616 0 00-2.518 1.018A3.427 3.427 0 0019 5.78v25.44h-.012a4.444 4.444 0 00-2.61.831 4.253 4.253 0 00-1.583 2.184L10.74 47.066a1.11 1.11 0 00-.042.188L8.46 63.594h-.149c-.314 0-.616.122-.84.338a1.14 1.14 0 00-.347.818v5.781c0 .307.125.601.348.818.223.217.525.338.84.338h26.124c.315 0 .617-.121.84-.338a1.14 1.14 0 00.348-.818V64.75c0-.244-.08-.481-.226-.678a1.187 1.187 0 00-.592-.42l1.714-5.84h1.977l3.533 6.02a1.16 1.16 0 00-.345.405c-.081.16-.123.335-.123.513zm26.124 4.625h-23.75v-3.469h23.75v3.469zm-9.5-50.875c1.175 0 2.323.34 3.3.974a5.818 5.818 0 012.186 2.595 5.64 5.64 0 01.338 3.34 5.735 5.735 0 01-1.625 2.96 5.989 5.989 0 01-3.04 1.582 6.086 6.086 0 01-3.43-.329 5.906 5.906 0 01-2.665-2.129 5.667 5.667 0 01-1.001-3.212 5.712 5.712 0 011.741-4.086 6.026 6.026 0 014.197-1.695zm-5.927.115a7.968 7.968 0 00-2.385 5.666c0 2.12.856 4.156 2.385 5.667a5.968 5.968 0 01-3.42-2.006 5.688 5.688 0 01-1.341-3.66c0-1.335.474-2.628 1.341-3.661a5.968 5.968 0 013.42-2.006zm-19.01 50.76H9.5v-3.469h23.75v3.469zm-.896-5.781H10.856l2.182-15.94 4.026-12.74c.148-.465.467-.86.897-1.108a2.06 2.06 0 011.428-.235c.49.098.924.368 1.22.76.295.392.43.878.38 1.361L19.01 49.56a1.13 1.13 0 00.08.6c.08.19.21.355.378.48.055.04 5.468 4.102 5.468 8.329 0 .307.126.6.348.817a1.206 1.206 0 001.68 0 1.14 1.14 0 00.348-.817 7.418 7.418 0 00-.095-1.156h6.833l-1.697 5.78zm5.759-8.094H26.515c-1.317-2.96-3.918-5.326-5.06-6.268l1.889-13.239.004-.031a4.169 4.169 0 00-.395-2.3 4.306 4.306 0 00-1.578-1.755V5.781c0-.306.126-.6.348-.817.223-.217.525-.339.84-.339h5.203l.86 1.673c.098.192.25.354.437.467.188.113.404.172.625.173h9.5c.22 0 .436-.06.624-.173a1.17 1.17 0 00.438-.467l.859-1.673h5.203c.315 0 .617.122.84.339.222.217.348.51.348.817v12.844a7.966 7.966 0 00-2.375 5.656c0 2.116.853 4.147 2.375 5.657v9.375h-1.436l-5.99-12.314a4.108 4.108 0 00-1.715-1.798 4.267 4.267 0 00-2.466-.51c1.762-1.328 5.67-4.938 5.67-10.816 0-.2-.054-.396-.155-.57a1.172 1.172 0 00-.422-.421l-5.938-3.47a1.212 1.212 0 00-1.221 0l-5.938 3.47c-.175.102-.32.246-.42.419a1.133 1.133 0 00-.157.566c-.001.31.033 7.641 6.517 11.405.049.029.1.053.153.075a4.09 4.09 0 00-1.646 2.084 3.973 3.973 0 00.006 2.63h-5.03c-.314 0-.617.121-.84.338a1.14 1.14 0 00-.347.818v9.25c0 .306.125.6.348.817.223.217.525.339.84.339H37.52l1.04 2.313H27.311c-.314 0-.617.121-.84.338a1.14 1.14 0 00-.347.818v4.625c0 .306.125.6.348.817.223.217.525.339.84.339h11.275l-.475 4.625zM34.41 22.888c-3.756-2.565-4.525-6.797-4.682-8.382l4.71-2.751 4.73 2.763c-.274 4.563-3.417 7.372-4.758 8.37zm2.071 16.424H28.5v-6.937h4.864l3.117 6.938zm2.344 9.25H28.5V46.25h10.563l-.238 2.313zm1.582 7.842l1.15-11.195a1.13 1.13 0 00-.094-.578L34.64 29.447a1.715 1.715 0 01-.032-1.333c.17-.431.507-.78.938-.972a1.85 1.85 0 011.368-.05 1.79 1.79 0 011.012.897l9.687 19.912c.135.277.378.491.674.594.297.103.623.088.908-.044.285-.131.504-.367.61-.656.106-.289.09-.607-.045-.884l-2.573-5.286h3.14l3.234 6.298a1.195 1.195 0 001.148.644 1.212 1.212 0 00.817-.397 1.147 1.147 0 00.285-.845 1.133 1.133 0 00-.126-.436l-2.702-5.264h3.282l3.234 6.298a1.195 1.195 0 001.148.644 1.213 1.213 0 00.817-.397 1.149 1.149 0 00.286-.845 1.133 1.133 0 00-.126-.436l-2.704-5.264h1.912a3.647 3.647 0 012.028.62 3.5 3.5 0 011.309 1.63l2.33 6.053v13.666H44.627l-4.22-7.19z" fill="#000"/><path d="M55.813 26.594c0 .306.125.6.347.817.223.217.525.339.84.339h1.188a2.41 2.41 0 001.679-.677 2.282 2.282 0 00.696-1.636 2.28 2.28 0 00-.696-1.635 2.408 2.408 0 00-1.68-.677h1.188c.315 0 .617-.122.84-.339a1.14 1.14 0 00.347-.817c0-.307-.125-.601-.347-.818a1.204 1.204 0 00-.84-.338h-1.188c-.63 0-1.233.243-1.679.677a2.282 2.282 0 00-.696 1.635c0 .613.25 1.201.696 1.635.445.434 1.05.677 1.68.677H57c-.315 0-.617.122-.84.34a1.14 1.14 0 00-.347.817z" fill="#000"/></svg>