<svg width="73" height="73" fill="none" xmlns="http://www.w3.org/2000/svg"><path d="M20.09 33.485l4.683 4.608a1.9 1.9 0 001.998.434 1.9 1.9 0 001.252-1.617l.627-6.54a.146.146 0 01.059-.104 16.808 16.808 0 006.874-13.525c0-4.516-1.771-8.749-4.987-11.92A16.614 16.614 0 0018.604.001c-4.362.062-8.477 1.807-11.586 4.916-3.11 3.11-4.855 7.224-4.915 11.586a16.625 16.625 0 004.819 11.993 16.62 16.62 0 0011.92 4.986c.378 0 .761-.013 1.137-.038a.143.143 0 01.11.041zm-1.248-2.142a14.498 14.498 0 01-10.398-4.35 14.502 14.502 0 01-4.203-10.46c.053-3.803 1.576-7.39 4.29-10.104 2.712-2.713 6.3-4.236 10.102-4.289a14.514 14.514 0 0110.462 4.204 14.497 14.497 0 014.349 10.397c0 4.643-2.242 9.054-5.997 11.798a2.288 2.288 0 00-.927 1.627l-.582 6.073-4.35-4.278a2.285 2.285 0 00-1.752-.651 14.95 14.95 0 01-.994.033zm51.898 23.7l-5.266-29.48a4.828 4.828 0 00-4.756-3.982h-3.34a7.632 7.632 0 00-2.227-2.425l1.276-3.506a1.82 1.82 0 00-1.087-2.329l-1.824-.664 2.009-5.519a1.812 1.812 0 00-1.083-2.324l-3.88-1.412a1.812 1.812 0 00-2.323 1.084l-2.01 5.52-1.824-.665a1.819 1.819 0 00-2.328 1.085L34.03 32.535a1.82 1.82 0 001.086 2.328l.245.09-.936 2.57a1.87 1.87 0 00.063 1.439 1.87 1.87 0 001.061.973l6.91 2.515a1.876 1.876 0 001.439-.063 1.87 1.87 0 00.973-1.062l.936-2.572.244.089a1.817 1.817 0 002.329-1.085l1.763-4.842a7.575 7.575 0 007.342-3.944.83.83 0 01.43.728v8.231a1.07 1.07 0 102.14 0V29.7a2.974 2.974 0 00-1.826-2.74 7.579 7.579 0 00-.014-3.24h2.502c1.307 0 2.422.934 2.652 2.22l5.266 29.48a8.015 8.015 0 01-1.75 6.57 8.016 8.016 0 01-6.16 2.877H33.157v-8.654h22c2.7 0 4.898-2.197 4.898-4.898v-8.393a1.07 1.07 0 10-2.14 0v8.393a2.762 2.762 0 01-2.758 2.759h-1.982v-3.806c0-.983-.8-1.782-1.783-1.782H28.295c-.983 0-1.782.8-1.782 1.782v4.163c0 .983.8 1.782 1.782 1.782h2.723v8.654H21.44c-.982 0-1.782.8-1.782 1.782v4.57c0 .983.8 1.782 1.782 1.782h8.152a1.07 1.07 0 100-2.139h-7.795v-3.857H57.89v3.857H34.583a1.07 1.07 0 100 2.139h23.664c.983 0 1.782-.8 1.782-1.782v-4.213h.696c3.019 0 5.862-1.328 7.8-3.643a10.149 10.149 0 002.215-8.32zM50.137 5.523l3.267 1.19-1.898 5.213-3.267-1.19 1.898-5.212zm-7.188 34.83l-6.427-2.34.848-2.33 6.428 2.339-.849 2.33zm3.532-3.63l-10.331-3.76 7.827-21.502 10.33 3.76-1.08 2.965a7.543 7.543 0 00-2.406-.394c-4.178 0-7.577 3.4-7.577 7.577 0 3.2 1.994 5.94 4.804 7.05l-1.567 4.303zm4.34-5.915a5.445 5.445 0 01-5.438-5.439 5.444 5.444 0 015.438-5.438 5.444 5.444 0 015.438 5.438 5.445 5.445 0 01-5.438 5.439zM28.65 50.623h22.385v3.45H28.652v-3.45z" fill="#000"/><path d="M50.82 22.13a3.242 3.242 0 00-3.238 3.24 3.242 3.242 0 003.239 3.238 3.242 3.242 0 003.239-3.239 3.242 3.242 0 00-3.24-3.238zm0 4.34a1.101 1.101 0 010-2.2 1.101 1.101 0 010 2.2zM25.49 15.703a3.343 3.343 0 003.339-3.34 3.343 3.343 0 00-3.34-3.339 3.343 3.343 0 00-3.34 3.34 3.343 3.343 0 003.34 3.339zm0-4.54a1.202 1.202 0 010 2.401 1.202 1.202 0 01-1.202-1.2c0-.663.539-1.201 1.201-1.201zm-14.31 2.089a3.343 3.343 0 00-3.34 3.34 3.343 3.343 0 003.34 3.339 3.343 3.343 0 003.34-3.34 3.343 3.343 0 00-3.34-3.339zm0 4.54a1.201 1.201 0 11.002-2.402 1.201 1.201 0 01-.002 2.402zm16.46 2.473l-1.628 1.63a1.07 1.07 0 101.512 1.511l1.629-1.628a1.069 1.069 0 10-1.512-1.513zM17.027 7.259a1.07 1.07 0 00-1.512 0l-1.629 1.629A1.07 1.07 0 1015.4 10.4l1.629-1.63a1.07 1.07 0 000-1.511zm3.385 8.919l-1.628-1.629a1.07 1.07 0 00-1.513 1.512l1.629 1.63a1.066 1.066 0 001.512 0 1.07 1.07 0 000-1.513zm-2.972 6.9l-1.63 1.629a1.07 1.07 0 101.513 1.512l1.629-1.629a1.07 1.07 0 10-1.512-1.512z" fill="#000"/></svg>