<svg width="351" height="488" fill="none" xmlns="http://www.w3.org/2000/svg"><g filter="url(#filter0_dd_4618_236)"><path d="M56 42c0-16.016 12.984-29 29-29h190c16.016 0 29 12.984 29 29v433H56V42z" fill="#fff"/><path d="M53.5 70.6c0-11.102.004-19.102.51-25.393.5-6.227 1.465-10.3 3.128-13.628A34.5 34.5 0 0172.58 16.14c3.328-1.664 7.401-2.629 13.628-3.13 6.29-.505 14.291-.509 25.393-.509h136.8c11.102 0 19.103.004 25.393.51 6.227.5 10.3 1.465 13.628 3.128a34.504 34.504 0 0115.441 15.441c1.663 3.328 2.628 7.401 3.128 13.628.506 6.29.51 14.291.51 25.393v404.9h-253V70.6z" stroke="#000" stroke-width="11"/><path d="M114 18h132v9c0 6.075-4.925 11-11 11H125c-6.075 0-11-4.925-11-11v-9z" fill="#000"/><path fill="#fff" d="M59 456h242v25H59z"/><g clip-path="url(#clip0_4618_236)"><path d="M73.219 83.75l4.515.016c.042.041.063.13.063.265 0 .136-.021.203-.063.203-.125 0-.333.037-.625.11-.28.073-.437.146-.468.219-.073.291-.11.74-.11 1.343v5.969c0 .656.037 1.125.11 1.406.03.084.182.156.453.219.27.063.474.094.61.094.04 0 .062.073.062.219 0 .114-.021.192-.063.234a212.193 212.193 0 00-1.875-.078c-.177 0-.786.026-1.828.078a.694.694 0 01-.031-.219c0-.156.02-.234.062-.234.115 0 .307-.031.578-.094.271-.073.417-.146.438-.219.083-.323.125-.807.125-1.453v-5.89c0-.667-.021-1.105-.063-1.313-.02-.146-.65-.219-1.89-.219-1.271 0-1.917.073-1.938.219-.052.26-.078.698-.078 1.313v5.89c0 .615.052 1.1.156 1.453.021.073.167.146.438.219.27.063.458.094.562.094.042 0 .063.078.063.234a.69.69 0 01-.031.219 64.375 64.375 0 00-1.829-.078c-.041 0-.661.026-1.859.078-.041-.042-.062-.12-.062-.234 0-.146.02-.22.062-.22.135 0 .334-.03.594-.093.27-.063.422-.135.453-.219.063-.24.094-.708.094-1.406v-5.969c0-.646-.031-1.094-.094-1.344-.031-.072-.188-.145-.469-.218-.281-.073-.484-.11-.61-.11-.051 0-.077-.067-.077-.203 0-.125.026-.213.078-.265 2.344-.01 3.86-.016 4.547-.016zm9.422 3.438c1 0 1.78.338 2.343 1.015.563.667.844 1.38.844 2.14 0 1-.349 1.881-1.047 2.641s-1.49 1.141-2.375 1.141c-.427 0-.864-.099-1.312-.297a.315.315 0 00-.063.203v1.344c0 .594.042 1.057.125 1.39.021.073.156.141.406.204.25.062.428.094.532.094.031 0 .052.067.062.203.01.135.005.224-.015.265a112.37 112.37 0 00-1.672-.078c-.063 0-.63.026-1.703.078-.042-.041-.063-.13-.063-.265 0-.136.021-.204.063-.204.135 0 .322-.03.562-.093.24-.063.37-.13.39-.203.074-.313.11-.683.11-1.11V89.22c0-.406-.073-.688-.219-.844a.749.749 0 00-.39-.25 1.148 1.148 0 00-.375-.078c-.094 0-.14-.01-.14-.031 0-.24.03-.365.093-.375 1.031-.157 1.75-.297 2.156-.422H81l.031-.016c.031 0 .047.031.047.094 0 .062-.005.135-.016.219-.01.083-.015.13-.015.14v.078c.156-.104.4-.218.734-.343.334-.136.62-.204.86-.204zm-.5.765c-.323 0-.589.089-.797.266-.209.177-.313.427-.313.75v3.5c0 .281.151.52.453.719.303.187.63.28.985.28.614 0 1.104-.275 1.469-.827a3.3 3.3 0 00.546-1.86c0-.875-.234-1.562-.703-2.062-.469-.51-1.015-.766-1.64-.766zm7.14 4.438l2.828-4.5c.053-.073.079-.209.079-.407 0-.041.03-.093.093-.156.156 0 .276.005.36.016a6.967 6.967 0 001.343 0c.24-.021.438-.037.594-.047.042.041.063.13.063.266 0 .124-.021.187-.063.187-.135 0-.328.037-.578.11-.24.062-.37.13-.39.203a4.71 4.71 0 00-.11 1.093v3.031c0 .428.037.792.11 1.094.02.073.15.146.39.219.25.063.443.094.578.094.042 0 .063.068.063.203 0 .125-.021.208-.063.25a97.848 97.848 0 00-1.734-.078c-.063 0-.615.026-1.656.078a.647.647 0 01-.016-.266c.01-.125.031-.187.062-.187.105 0 .282-.031.532-.094.26-.073.4-.146.421-.219.105-.406.141-.87.11-1.39v-2.797a1.51 1.51 0 00-.016-.25l-2.844 4.625c-.052.083-.078.219-.078.406 0 .042-.03.094-.093.156-.157 0-.276-.005-.36-.015a6.245 6.245 0 00-.515-.032c-.24 0-.495.01-.766.032-.26.02-.463.036-.61.046-.041-.041-.062-.124-.062-.25 0-.135.021-.203.063-.203.135 0 .322-.03.562-.093.25-.073.385-.146.406-.22.073-.301.11-.666.11-1.093v-3.047c0-.427-.037-.791-.11-1.094-.02-.072-.156-.14-.406-.203a2.08 2.08 0 00-.562-.109c-.042 0-.063-.063-.063-.188 0-.135.021-.224.063-.265 1.062.052 1.635.078 1.718.078.063 0 .615-.026 1.657-.078.02.052.026.14.015.266-.01.124-.031.187-.062.187-.104 0-.281.037-.531.11-.24.062-.37.13-.391.203-.084.322-.125.786-.125 1.39v2.688c0 .104-.005.187-.016.25zm9.453-1.657c-.364 0-.583.016-.656.047-.062.042-.094.146-.094.313v1.312c0 .469.073.745.22.828.093.094.275.141.546.141 1.188 0 1.781-.396 1.781-1.188 0-.406-.146-.75-.437-1.03-.292-.282-.745-.423-1.36-.423zm.032-2.765c-.313 0-.537.031-.672.094-.031.01-.052.036-.063.078a4.466 4.466 0 00-.047.734v1.11c0 .135.214.203.641.203.177 0 .354-.016.531-.047.26-.021.48-.105.656-.25a.774.774 0 00.266-.61c0-.875-.437-1.312-1.312-1.312zm-1.985 4.219v-3.032c0-.427-.036-.791-.11-1.094-.02-.072-.155-.14-.405-.203a2.08 2.08 0 00-.563-.109c-.041 0-.062-.063-.062-.188 0-.135.02-.224.062-.265 1.094.052 1.667.078 1.719.078h.953c.27-.01.5-.016.688-.016.572 0 1.093.136 1.562.407.479.26.719.677.719 1.25 0 .166-.032.322-.094.468a1.103 1.103 0 01-.219.329 1.516 1.516 0 01-.312.234c-.125.062-.229.11-.313.14-.083.021-.182.047-.297.079l-.156.046c-.052.021-.078.037-.078.047.156.021.328.063.516.125.187.053.401.141.64.266.25.125.453.307.61.547.166.24.25.516.25.828 0 .573-.261 1.031-.782 1.375-.51.344-1.187.51-2.03.5l-1.657-.031c-.052 0-.625.026-1.719.078-.041-.042-.062-.125-.062-.25 0-.135.02-.203.062-.203.135 0 .323-.031.563-.094.25-.073.385-.146.406-.219.073-.302.11-.666.11-1.094zM106 87.766c-.542 0-.958.234-1.25.703-.281.458-.422.838-.422 1.14 0 .073.031.11.094.11h3.047c.052 0 .078-.052.078-.156 0-.334-.141-.714-.422-1.141-.281-.438-.656-.656-1.125-.656zm.156-.579c.479 0 .901.094 1.266.282.364.177.64.411.828.703.198.281.339.573.422.875.094.291.14.583.14.875 0 .208-.031.338-.093.39-.063.042-.183.063-.36.063h-3.937c-.083 0-.125.026-.125.078 0 .656.198 1.26.594 1.813.395.552.968.828 1.718.828a3.293 3.293 0 001.125-.203 4.07 4.07 0 00.36-.172c.104-.063.192-.12.265-.172l.11-.078c.062 0 .093.068.093.203a.563.563 0 01-.093.281c-.209.292-.516.557-.922.797-.406.23-.849.344-1.328.344-.865 0-1.61-.323-2.235-.969-.614-.656-.922-1.453-.922-2.39 0-1.094.292-1.959.876-2.594.593-.636 1.333-.954 2.218-.954zm6.172 5v-3.093c0-.552-.036-.875-.109-.969-.063-.104-.412-.156-1.047-.156a1.02 1.02 0 00-.578.156.859.859 0 00-.297.328c-.042.104-.083.24-.125.406a9.81 9.81 0 01-.078.282c-.032.062-.156.093-.375.093-.115 0-.172-.015-.172-.046 0-.042.036-.287.109-.735.073-.448.12-.833.141-1.156.614.052 1.109.078 1.484.078h3.313l1.437-.078c.021.323.073.713.157 1.172.093.448.14.687.14.719 0 .03-.057.046-.172.046-.218 0-.344-.03-.375-.093a9.81 9.81 0 01-.078-.282 1.984 1.984 0 00-.141-.406c-.041-.115-.14-.224-.296-.328-.146-.104-.334-.156-.563-.156-.698 0-1.057.047-1.078.14-.063.178-.094.495-.094.954v2.828c0 .604.042 1.067.125 1.39.021.073.156.146.406.219.25.063.428.094.532.094.031 0 .052.062.062.187a.653.653 0 01-.015.266 110.885 110.885 0 00-1.672-.078c-.073 0-.641.026-1.703.078-.042-.042-.063-.125-.063-.25 0-.135.021-.203.063-.203.125 0 .307-.031.546-.094.25-.073.386-.146.407-.219a4.72 4.72 0 00.109-1.094zm6.25 2.032c0-.188-.078-.443-.234-.766-.156-.323-.235-.536-.235-.64 0-.23.115-.422.344-.579a1.295 1.295 0 011.156-.187c.136.198.203.531.203 1 0 .198-.01.333-.031.406-.146.677-.349 1.224-.609 1.64-.261.428-.719.912-1.375 1.454h-.016c-.041 0-.114-.042-.219-.125-.093-.084-.14-.156-.14-.219 0-.02.057-.088.172-.203.125-.104.26-.23.406-.375a1.99 1.99 0 00.391-.61c.125-.26.187-.525.187-.796zm7.328-8.375c0-.636-.036-1.1-.109-1.39-.031-.074-.182-.141-.453-.204-.271-.073-.474-.11-.61-.11-.041 0-.062-.072-.062-.218 0-.135.021-.214.062-.234.188 0 .48.01.875.03.407.022.74.032 1 .032.261 0 .594-.01 1-.031.417-.021.693-.031.829-.031.02.041.031.114.031.218 0 .156-.021.235-.063.235-.104 0-.297.036-.578.109-.271.063-.417.13-.437.203-.084.334-.125.818-.125 1.453v2.344h1.906c.125-1.333.599-2.443 1.422-3.328.823-.885 1.828-1.328 3.015-1.328 1.282 0 2.344.51 3.188 1.531.854 1.02 1.281 2.276 1.281 3.766 0 1.468-.427 2.713-1.281 3.734-.844 1.02-1.906 1.531-3.188 1.531-1.291 0-2.359-.505-3.203-1.515-.833-1.01-1.255-2.25-1.265-3.72h-1.875v2.907c0 .646.041 1.13.125 1.453.02.073.166.146.437.219.281.063.474.094.578.094.042 0 .063.078.063.234a.718.718 0 01-.031.219 64.45 64.45 0 00-1.829-.078c-.052 0-.677.026-1.875.078-.041-.042-.062-.12-.062-.234 0-.146.021-.22.062-.22.146 0 .349-.03.61-.093.271-.063.422-.135.453-.219.073-.281.109-.745.109-1.39v-6.047zm7.485-1.594c-.563 0-1.058.213-1.485.64-.416.428-.724.964-.922 1.61a6.79 6.79 0 00-.296 2.031c0 1.323.276 2.48.828 3.469.562.99 1.328 1.484 2.296 1.484.563 0 1.058-.213 1.485-.64a3.94 3.94 0 00.937-1.61 7 7 0 00.297-2.062c0-1.313-.281-2.459-.843-3.438-.553-.99-1.318-1.484-2.297-1.484zm9.312 3.125c.74 0 1.761-.026 3.063-.078.02.052.026.14.015.266-.01.124-.031.187-.062.187-.104 0-.281.037-.531.11-.25.062-.386.13-.407.203-.083.322-.125.786-.125 1.39v2.438c0 .604.042 1.067.125 1.39.021.073.157.146.407.219.25.063.427.094.531.094.031 0 .052.062.062.187a.653.653 0 01-.015.266 110.885 110.885 0 00-1.672-.078c-.063 0-.63.026-1.703.078-.042-.042-.063-.125-.063-.25 0-.135.021-.203.063-.203.125 0 .307-.031.547-.094.25-.073.385-.146.406-.219a4.72 4.72 0 00.109-1.094V88.22c0-.094-.015-.151-.047-.172-.031-.031-.109-.047-.234-.047h-1.016c-.125 0-.203.016-.234.047-.031.02-.047.078-.047.172 0 2.729-.344 4.531-1.031 5.406-.282.354-.568.531-.86.531-.437 0-.75-.047-.937-.14v-.25a3.196 3.196 0 001.094-1.11c.614-1.073.921-2.52.921-4.344a.51.51 0 00-.046-.25c-.042-.083-.183-.156-.422-.218a2.164 2.164 0 00-.516-.094c-.031 0-.052-.063-.062-.188a.635.635 0 01.015-.265 80.63 80.63 0 002.672.078zm6.438 5.016l2.828-4.5c.052-.073.078-.209.078-.407 0-.041.031-.093.094-.156.156 0 .276.005.359.016a6.973 6.973 0 001.344 0c.239-.021.437-.037.594-.047.041.041.062.13.062.266 0 .124-.021.187-.062.187-.136 0-.329.037-.579.11-.239.062-.369.13-.39.203a4.71 4.71 0 00-.11 1.093v3.031c0 .428.037.792.11 1.094.021.073.151.146.39.219.25.063.443.094.579.094.041 0 .062.068.062.203 0 .125-.021.208-.062.25a97.836 97.836 0 00-1.735-.078c-.062 0-.614.026-1.656.078a.649.649 0 01-.016-.266c.011-.125.031-.187.063-.187.104 0 .281-.031.531-.094.26-.073.401-.146.422-.219a4.5 4.5 0 00.109-1.39v-2.797a1.65 1.65 0 00-.015-.25l-2.844 4.625c-.052.083-.078.219-.078.406 0 .042-.031.094-.094.156-.156 0-.276-.005-.359-.015a6.265 6.265 0 00-.516-.032c-.24 0-.495.01-.766.032-.26.02-.463.036-.609.046-.042-.041-.063-.124-.063-.25 0-.135.021-.203.063-.203a2.4 2.4 0 00.563-.093c.25-.073.385-.146.406-.22.073-.301.109-.666.109-1.093v-3.047a4.73 4.73 0 00-.109-1.094c-.021-.072-.156-.14-.406-.203a2.088 2.088 0 00-.563-.109c-.042 0-.063-.063-.063-.188 0-.135.021-.224.063-.265 1.063.052 1.635.078 1.719.078.062 0 .614-.026 1.656-.078.021.052.026.14.016.266-.011.124-.032.187-.063.187-.104 0-.281.037-.531.11-.24.062-.37.13-.391.203-.083.322-.125.786-.125 1.39v2.688c0 .104-.005.187-.015.25zM159 88c-.917 0-1.375.417-1.375 1.25 0 .354.12.64.359.86.24.218.474.328.704.328h.265c.573 0 .859-.089.859-.266v-1.14c0-.46-.02-.766-.062-.923l-.094-.078h.016c-.094-.02-.318-.031-.672-.031zm.234 3.078c-.135.052-.354.307-.656.766-.375.541-.588.849-.64.922-.334.427-.678.755-1.032.984-.354.219-.817.328-1.39.328a.821.821 0 01-.313-.047.551.551 0 01-.031-.203c0-.073.01-.14.031-.203.386 0 .979-.48 1.781-1.438.271-.374.563-.849.875-1.421-.01.01-.078 0-.203-.032-.489-.145-.844-.364-1.062-.656a1.557 1.557 0 01-.313-.922c0-.416.146-.77.438-1.062.291-.292.609-.49.953-.594a3.745 3.745 0 011.062-.156c.282 0 .568.01.86.031.312.02.583.031.812.031.24 0 .537-.015.891-.047.364-.03.625-.052.781-.062.042.041.063.13.063.266 0 .124-.021.187-.063.187-.135 0-.328.037-.578.11-.24.062-.37.13-.391.203a4.722 4.722 0 00-.109 1.093v3.031c0 .428.036.792.109 1.094.021.073.151.146.391.219.25.063.443.094.578.094.042 0 .063.068.063.203 0 .125-.021.208-.063.25a109.302 109.302 0 00-1.734-.078c-.063 0-.615.026-1.656.078a.632.632 0 01-.016-.266c.01-.125.031-.187.062-.187.105 0 .282-.031.532-.094.26-.073.401-.146.422-.219.083-.323.124-.786.124-1.39v-.688c0-.104-.083-.156-.25-.156-.156 0-.265.01-.328.031zm5.704-7.11c.229 0 .401.1.515.298.125.187.188.416.188.687 0 .104-.026.38-.079.828a307.01 307.01 0 00-.187 2.156c-.073.98-.146 2.058-.219 3.235-.01.156-.036.266-.078.328-.042.052-.14.115-.297.188-.052.02-.099-.006-.14-.079a.9.9 0 01-.063-.265 159.165 159.165 0 00-.25-3.516c-.073-1-.125-1.672-.156-2.016a10.32 10.32 0 01-.047-.859c0-.26.073-.49.219-.687a.725.725 0 01.594-.297zm-.672 9.985a.926.926 0 01-.266-.656c0-.25.089-.459.266-.625a.872.872 0 01.64-.266c.25 0 .459.089.625.266a.823.823 0 01.266.625c0 .25-.089.469-.266.656a.822.822 0 01-.625.266.872.872 0 01-.64-.266zm-93.375 13.938v.968c0 .74.208 1.261.625 1.563.416.292.916.437 1.5.437a8.58 8.58 0 001.859-.203v-2.828c0-.625-.031-1.088-.094-1.39-.031-.073-.182-.141-.453-.204a2.579 2.579 0 00-.61-.109c-.04 0-.062-.068-.062-.203 0-.136.021-.219.063-.25.208 0 .51.016.906.047.396.021.724.031.984.031s.584-.01.97-.031c.385-.031.66-.047.827-.047a.534.534 0 01.031.219c0 .156-.02.234-.062.234-.104 0-.297.036-.578.109-.271.063-.417.131-.438.204a4.341 4.341 0 00-.109.718v7.422c.02.271.057.505.11.703.02.073.166.146.437.219.281.062.474.094.578.094.042 0 .063.078.063.234 0 .083-.01.156-.032.219a68.684 68.684 0 00-1.797-.078c-.062 0-.692.026-1.89.078-.042-.042-.063-.125-.063-.25 0-.136.021-.203.063-.203.146 0 .349-.032.61-.094.27-.062.421-.135.452-.219.063-.291.094-.755.094-1.39v-2.563a9.336 9.336 0 01-2.406.328c-.313 0-.625-.031-.938-.094a4.718 4.718 0 01-.937-.328 1.939 1.939 0 01-.766-.687 1.894 1.894 0 01-.297-1.063v-1.922c0-.416-.036-.791-.11-1.124-.03-.073-.181-.141-.452-.204-.271-.073-.474-.109-.61-.109-.041 0-.062-.073-.062-.219 0-.135.02-.213.062-.234.209 0 .51.016.907.047.395.021.718.031.968.031.26 0 .589-.01.985-.031.396-.031.677-.047.844-.047.02.042.025.13.015.266 0 .124-.016.187-.047.187-.104 0-.297.036-.578.109-.27.063-.416.131-.437.204-.084.333-.125.817-.125 1.453zm10.718 1.875c-.541 0-.958.234-1.25.703-.28.458-.421.838-.421 1.14 0 .073.03.11.093.11h3.047c.052 0 .078-.052.078-.157 0-.333-.14-.713-.422-1.14-.28-.438-.656-.656-1.125-.656zm.157-.578c.479 0 .9.093 1.265.281.365.177.64.411.828.703.198.281.339.573.422.875.094.292.14.583.14.875 0 .208-.03.338-.093.39-.062.042-.182.063-.36.063h-3.937c-.083 0-.125.026-.125.078 0 .656.198 1.261.594 1.813.396.552.969.828 1.719.828a3.26 3.26 0 001.125-.203c.146-.063.265-.12.36-.172.103-.063.192-.12.265-.172l.11-.078c.062 0 .093.067.093.203a.56.56 0 01-.094.281c-.208.292-.516.557-.922.797a2.66 2.66 0 01-1.328.344c-.865 0-1.61-.323-2.234-.969-.615-.656-.922-1.453-.922-2.391 0-1.093.291-1.958.875-2.593.594-.636 1.333-.953 2.219-.953zm10.359 1.562l-2.031 4.969a.51.51 0 01-.156.203.328.328 0 01-.235.109.275.275 0 01-.125-.031l-2.328-5.281c-.02.375-.057.932-.11 1.672a54.6 54.6 0 00-.093 1.5c-.042.656-.026 1.119.047 1.39.02.073.156.146.406.219.26.062.443.094.547.094.031 0 .052.062.062.187a.649.649 0 01-.015.266 36.671 36.671 0 00-.5-.031c-.177-.011-.339-.021-.485-.032a6.447 6.447 0 00-.468-.015c-.24 0-.49.01-.75.031l-.61.047c-.041-.042-.062-.125-.062-.25 0-.136.02-.203.062-.203.136 0 .323-.032.563-.094.25-.073.385-.146.406-.219a6.03 6.03 0 00.172-1.093l.219-3.891c.01-.094-.016-.224-.079-.391-.041-.104-.317-.156-.828-.156-.052 0-.078-.078-.078-.234 0-.105.021-.177.063-.219.031 0 .078.005.14.015h.157c.437.042.755.063.953.063.281 0 .594-.016.937-.047h.078a.722.722 0 01.11-.016c.062.198.318.787.765 1.766L90.156 114a117.49 117.49 0 001.485-3.734l.296-.954c.25.042.573.063.97.063.135 0 .301-.01.5-.031.197-.021.322-.032.374-.032h.125a.98.98 0 01.14-.015c.042.125.063.198.063.219 0 .156-.02.234-.062.234-.292 0-.542.078-.75.234-.052.021-.073.125-.063.313l.11 1.797a318.27 318.27 0 00.14 2.094c.032.416.089.781.172 1.093.021.073.151.146.39.219.25.062.444.094.579.094.042 0 .063.067.063.203 0 .125-.021.208-.063.25a86.236 86.236 0 00-1.766-.078c-.03 0-.567.026-1.609.078a.649.649 0 01-.016-.266c.01-.125.032-.187.063-.187.104 0 .281-.032.531-.094.26-.073.401-.146.422-.219.052-.208.068-.672.047-1.39l-.172-3.141zm13.891 0l-2.032 4.969a.504.504 0 01-.156.203.328.328 0 01-.234.109.272.272 0 01-.125-.031l-2.328-5.281c-.021.375-.058.932-.11 1.672a52.533 52.533 0 00-.093 1.5c-.042.656-.027 1.119.046 1.39.021.073.157.146.407.219.26.062.442.094.547.094.031 0 .052.062.062.187a.65.65 0 01-.016.266 36.374 36.374 0 00-.5-.031c-.177-.011-.338-.021-.484-.032a6.447 6.447 0 00-.469-.015c-.239 0-.489.01-.75.031l-.61.047c-.04-.042-.062-.125-.062-.25 0-.136.021-.203.063-.203.135 0 .323-.032.562-.094.25-.073.386-.146.407-.219.083-.312.14-.677.171-1.093l.219-3.891c.011-.094-.015-.224-.078-.391-.042-.104-.318-.156-.828-.156-.052 0-.078-.078-.078-.234 0-.105.02-.177.062-.219.032 0 .079.005.141.015h.156c.438.042.755.063.953.063.282 0 .594-.016.938-.047h.078a.733.733 0 01.109-.016c.063.198.318.787.766 1.766l1.297 2.922a112.42 112.42 0 001.484-3.734l.297-.954c.25.042.573.063.969.063.135 0 .302-.01.5-.031.198-.021.323-.032.375-.032h.125a.965.965 0 01.141-.015c.041.125.062.198.062.219 0 .156-.021.234-.062.234-.292 0-.542.078-.75.234-.053.021-.073.125-.063.313l.109 1.797a482.093 482.093 0 00.141 2.094c.031.416.089.781.172 1.093.021.073.151.146.391.219.25.062.442.094.578.094.041 0 .062.067.062.203 0 .125-.021.208-.062.25a86.236 86.236 0 00-1.766-.078c-.031 0-.568.026-1.609.078a.65.65 0 01-.016-.266c.01-.125.031-.187.063-.187.104 0 .281-.032.531-.094.26-.073.401-.146.422-.219.052-.208.067-.672.047-1.39l-.172-3.141zm6.562 1.984c-.364 0-.583.021-.656.063-.052.031-.078.125-.078.281v1.453c-.032.417.015.662.14.735.094.083.271.125.532.125 1.218 0 1.828-.453 1.828-1.36 0-.385-.141-.698-.422-.937-.281-.24-.729-.36-1.344-.36zm-2.984-3.437c1.073.052 1.63.078 1.672.078.041 0 .593-.026 1.656-.078.042.042.062.13.062.265 0 .126-.02.188-.062.188a2.23 2.23 0 00-.578.109c-.24.063-.37.131-.391.203a4.73 4.73 0 00-.109 1.094v.813c0 .125.203.187.609.187 1.031 0 1.813.167 2.344.5.542.334.812.771.812 1.313 0 .635-.255 1.135-.765 1.5-.511.354-1.203.531-2.078.531h-1.485c-.489 0-1.052.016-1.687.047-.042-.042-.063-.125-.063-.25 0-.136.021-.203.063-.203.135 0 .323-.032.562-.094.25-.073.386-.146.406-.219a4.71 4.71 0 00.11-1.093v-3.032c0-.427-.037-.791-.11-1.094-.02-.072-.156-.14-.406-.203a2.068 2.068 0 00-.562-.109c-.042 0-.063-.062-.063-.188 0-.135.021-.223.063-.265zm8.359 2.156v2.438c0 .604.042 1.067.125 1.39.021.073.151.146.391.219.25.062.427.094.531.094.031 0 .052.062.062.187a.637.637 0 01-.015.266 126.082 126.082 0 00-1.656-.078c-.084 0-.657.026-1.719.078-.042-.042-.063-.125-.063-.25 0-.136.021-.203.063-.203.135 0 .323-.032.562-.094.25-.073.386-.146.407-.219.073-.302.109-.666.109-1.093v-3.032a4.73 4.73 0 00-.109-1.094c-.021-.072-.157-.14-.407-.203a2.068 2.068 0 00-.562-.109c-.042 0-.063-.062-.063-.188 0-.135.021-.223.063-.265 1.062.052 1.635.078 1.719.078.062 0 .614-.026 1.656-.078a.634.634 0 01.015.265c-.01.126-.031.188-.062.188-.104 0-.281.036-.531.109-.24.063-.37.131-.391.203-.083.323-.125.787-.125 1.391zm12.563-.703l-2.032 4.969a.504.504 0 01-.156.203.328.328 0 01-.234.109.272.272 0 01-.125-.031l-2.328-5.281c-.021.375-.058.932-.11 1.672a52.533 52.533 0 00-.093 1.5c-.042.656-.027 1.119.046 1.39.021.073.157.146.407.219.26.062.442.094.547.094.031 0 .052.062.062.187a.65.65 0 01-.016.266 36.374 36.374 0 00-.5-.031c-.177-.011-.338-.021-.484-.032a6.447 6.447 0 00-.469-.015c-.239 0-.489.01-.75.031l-.609.047c-.042-.042-.063-.125-.063-.25 0-.136.021-.203.063-.203.135 0 .323-.032.562-.094.25-.073.386-.146.407-.219.083-.312.14-.677.171-1.093l.219-3.891c.011-.094-.015-.224-.078-.391-.042-.104-.318-.156-.828-.156-.052 0-.078-.078-.078-.234 0-.105.021-.177.062-.219.032 0 .079.005.141.015h.156c.438.042.755.063.953.063.282 0 .594-.016.938-.047h.078a.733.733 0 01.109-.016c.063.198.318.787.766 1.766l1.297 2.922a112.42 112.42 0 001.484-3.734l.297-.954c.25.042.573.063.969.063.135 0 .302-.01.5-.031.198-.021.323-.032.375-.032h.125a.965.965 0 01.141-.015c.041.125.062.198.062.219 0 .156-.021.234-.062.234-.292 0-.542.078-.75.234-.053.021-.073.125-.063.313l.109 1.797a482.093 482.093 0 00.141 2.094c.031.416.089.781.172 1.093.021.073.151.146.391.219.25.062.442.094.578.094.041 0 .062.067.062.203 0 .125-.021.208-.062.25a86.236 86.236 0 00-1.766-.078c-.031 0-.568.026-1.609.078a.65.65 0 01-.016-.266c.01-.125.031-.187.063-.187.104 0 .281-.032.531-.094.26-.073.401-.146.422-.219.052-.208.067-.672.047-1.39l-.172-3.141zm6.796-.969c-.552 0-1.005.255-1.359.766-.344.5-.515 1.114-.515 1.844 0 .854.218 1.588.656 2.203.448.604.968.906 1.562.906.552 0 1.005-.26 1.36-.781.354-.521.531-1.146.531-1.875 0-.844-.224-1.563-.672-2.156-.448-.605-.969-.907-1.563-.907zm.172-.609c.938 0 1.74.338 2.407 1.016.666.677 1 1.489 1 2.437 0 .958-.329 1.781-.985 2.469-.646.677-1.442 1.015-2.39 1.015a3.272 3.272 0 01-2.422-1.015 3.422 3.422 0 01-1-2.469c0-.969.323-1.786.968-2.453.646-.667 1.454-1 2.422-1zm8.766 3.078v-1.094a4.73 4.73 0 00-.109-1.094c-.021-.072-.157-.14-.407-.203a2.068 2.068 0 00-.562-.109c-.042 0-.063-.062-.063-.188 0-.135.021-.223.063-.265 1.062.052 1.635.078 1.719.078.062 0 .614-.026 1.656-.078a.634.634 0 01.015.265c-.01.126-.031.188-.062.188-.104 0-.281.036-.531.109-.24.063-.37.131-.391.203-.083.323-.125.787-.125 1.391v.797c.208-.01.365-.042.469-.094.114-.052.266-.166.453-.344.135-.166.401-.541.797-1.124l.234-.36c.511-.719.995-1.078 1.453-1.078.219 0 .391.047.516.141a.443.443 0 01.187.375c0 .312-.187.468-.562.468h-.234a.86.86 0 00-.485.157 1.688 1.688 0 00-.375.328 5.153 5.153 0 00-.375.5c-.302.448-.604.781-.906 1v.047c.417.156.755.411 1.016.765.041.052.187.281.437.688l.453.734c.229.396.427.677.594.844.26.198.521.297.781.297.052 0 .078.078.078.234a.647.647 0 01-.078.203.678.678 0 01-.109-.015h-.109a11.633 11.633 0 00-.75-.016c-.344 0-.641-.052-.891-.156-.24-.115-.464-.349-.672-.703l-.906-1.735c-.146-.271-.281-.448-.407-.531-.124-.094-.328-.141-.609-.141v1.157c0 .604.042 1.067.125 1.39.021.073.151.146.391.219.25.062.427.094.531.094.031 0 .052.062.062.187a.637.637 0 01-.015.266 126.082 126.082 0 00-1.656-.078c-.084 0-.657.026-1.719.078-.042-.042-.063-.125-.063-.25 0-.136.021-.203.063-.203.135 0 .323-.032.562-.094.25-.073.386-.146.407-.219.073-.302.109-.666.109-1.093v-1.454c-.281 0-.484.047-.609.141-.125.083-.261.26-.407.531l-.906 1.735c-.208.354-.437.588-.687.703-.24.104-.532.156-.875.156-.355 0-.605.005-.75.016h-.125a.447.447 0 01-.094.015.647.647 0 01-.078-.203c0-.156.026-.234.078-.234.26 0 .521-.099.781-.297.167-.167.365-.448.594-.844l.453-.734c.25-.407.396-.636.437-.688a2.187 2.187 0 011.016-.765v-.047c-.302-.219-.604-.552-.906-1a7.444 7.444 0 00-.391-.5 1.574 1.574 0 00-.359-.313.813.813 0 00-.484-.172h-.235c-.375 0-.562-.156-.562-.468 0-.157.062-.282.187-.375.125-.094.297-.141.516-.141.458 0 .942.359 1.453 1.078l.234.36c.386.583.651.958.797 1.124.188.178.333.292.438.344.114.052.276.084.484.094zm9.5-2.484c-.542 0-.958.234-1.25.703-.281.458-.422.838-.422 1.14 0 .073.031.11.094.11h3.047c.052 0 .078-.052.078-.157 0-.333-.141-.713-.422-1.14-.281-.438-.656-.656-1.125-.656zm.156-.578c.479 0 .901.093 1.266.281.364.177.64.411.828.703.198.281.339.573.422.875.094.292.14.583.14.875 0 .208-.031.338-.093.39-.063.042-.183.063-.36.063h-3.937c-.083 0-.125.026-.125.078 0 .656.198 1.261.594 1.813.395.552.968.828 1.718.828.219 0 .427-.021.625-.063.198-.041.365-.088.5-.14a4.21 4.21 0 00.36-.172c.104-.063.192-.12.265-.172l.11-.078c.062 0 .093.067.093.203a.563.563 0 01-.093.281c-.209.292-.516.557-.922.797a2.659 2.659 0 01-1.328.344c-.865 0-1.61-.323-2.235-.969-.614-.656-.922-1.453-.922-2.391 0-1.093.292-1.958.876-2.593.593-.636 1.333-.953 2.218-.953zm10.36 1.562l-2.032 4.969a.504.504 0 01-.156.203.328.328 0 01-.234.109.272.272 0 01-.125-.031l-2.328-5.281c-.021.375-.058.932-.11 1.672a52.533 52.533 0 00-.093 1.5c-.042.656-.027 1.119.046 1.39.021.073.157.146.407.219.26.062.442.094.547.094.031 0 .052.062.062.187a.65.65 0 01-.016.266 36.374 36.374 0 00-.5-.031c-.177-.011-.338-.021-.484-.032a6.447 6.447 0 00-.469-.015c-.239 0-.489.01-.75.031l-.609.047c-.042-.042-.063-.125-.063-.25 0-.136.021-.203.063-.203.135 0 .323-.032.562-.094.25-.073.386-.146.407-.219.083-.312.14-.677.171-1.093l.219-3.891c.011-.094-.015-.224-.078-.391-.042-.104-.318-.156-.828-.156-.052 0-.078-.078-.078-.234 0-.105.021-.177.062-.219.032 0 .079.005.141.015h.156c.438.042.755.063.953.063.282 0 .594-.016.938-.047h.078a.733.733 0 01.109-.016c.063.198.318.787.766 1.766l1.297 2.922a112.42 112.42 0 001.484-3.734l.297-.954c.25.042.573.063.969.063.135 0 .302-.01.5-.031.198-.021.323-.032.375-.032h.125a.965.965 0 01.141-.015c.041.125.062.198.062.219 0 .156-.021.234-.062.234-.292 0-.542.078-.75.234-.053.021-.073.125-.063.313l.109 1.797a482.093 482.093 0 00.141 2.094c.031.416.089.781.172 1.093.021.073.151.146.391.219.25.062.442.094.578.094.041 0 .062.067.062.203 0 .125-.021.208-.062.25a86.236 86.236 0 00-1.766-.078c-.031 0-.568.026-1.609.078a.65.65 0 01-.016-.266c.01-.125.031-.187.063-.187.104 0 .281-.032.531-.094.26-.073.401-.146.422-.219.052-.208.067-.672.047-1.39l-.172-3.141zm10.75-1.375c2.073 0 3.27-.026 3.593-.078.042.125.063.203.063.234 0 .146-.021.219-.063.219-.093 0-.244.031-.453.094-.208.052-.328.114-.359.187-.052.136-.078.396-.078.781v3.844c0 .334.026.558.078.672.031.063.146.125.344.188.198.052.354.078.468.078.042 0 .063.073.063.218 0 .115-.021.193-.063.235a2.346 2.346 0 00-.218-.031 18.972 18.972 0 00-.532-.047 5.926 5.926 0 00-.734-.016h-.844c-.135 0-.255.005-.359.016a1.65 1.65 0 00-.25.015c-.063 0-.094.006-.094.016a.435.435 0 01-.031-.188c0-.145.026-.218.078-.218.094 0 .245-.032.453-.094.208-.062.333-.125.375-.188v.016c.042-.083.063-.302.063-.656v-4.531c0-.042-.016-.063-.047-.063a43.668 43.668 0 00-1.453-.031c-.907 0-1.391.005-1.454.015-.031 0-.046.021-.046.063v4.531c0 .334.026.558.078.672.031.063.151.125.359.188.219.052.38.078.485.078.02.083.031.156.031.218 0 .073-.011.152-.031.235a2.384 2.384 0 00-.235-.031 9.117 9.117 0 00-.547-.032c-.271-.02-.521-.031-.75-.031a5.635 5.635 0 00-.718.016c-.24.01-.428.026-.563.047l-.203.031c-.052-.052-.078-.13-.078-.235 0-.145.026-.218.078-.218.104 0 .255-.026.453-.078.208-.063.328-.125.359-.188.052-.094.078-.318.078-.672v-3.844c0-.385-.026-.645-.078-.781-.02-.073-.14-.135-.359-.187a1.785 1.785 0 00-.453-.094c-.052 0-.078-.073-.078-.219l.078-.234c1.885.052 3.083.078 3.594.078zm7.937.406c-.552 0-1.005.255-1.359.766-.344.5-.516 1.114-.516 1.844 0 .854.219 1.588.656 2.203.448.604.969.906 1.563.906.552 0 1.005-.26 1.359-.781.354-.521.532-1.146.532-1.875 0-.844-.224-1.563-.672-2.156-.448-.605-.969-.907-1.563-.907zm.172-.609c.937 0 1.74.338 2.406 1.016.667.677 1 1.489 1 2.437 0 .958-.328 1.781-.984 2.469-.646.677-1.443 1.015-2.391 1.015a3.274 3.274 0 01-2.422-1.015 3.426 3.426 0 01-1-2.469c0-.969.323-1.786.969-2.453.646-.667 1.453-1 2.422-1zm11.313 1.578l-2.032 4.969a.513.513 0 01-.156.203.328.328 0 01-.234.109.272.272 0 01-.125-.031l-2.329-5.281c-.02.375-.057.932-.109 1.672a58.117 58.117 0 00-.094 1.5c-.041.656-.026 1.119.047 1.39.021.073.156.146.406.219.261.062.443.094.547.094.032 0 .052.062.063.187a.65.65 0 01-.016.266 36.374 36.374 0 00-.5-.031c-.177-.011-.338-.021-.484-.032a6.467 6.467 0 00-.469-.015c-.239 0-.489.01-.75.031l-.609.047c-.042-.042-.063-.125-.063-.25 0-.136.021-.203.063-.203.135 0 .323-.032.562-.094.25-.073.386-.146.406-.219.084-.312.141-.677.172-1.093l.219-3.891c.011-.094-.015-.224-.078-.391-.042-.104-.318-.156-.828-.156-.052 0-.078-.078-.078-.234 0-.105.021-.177.062-.219.031 0 .078.005.141.015h.156c.438.042.755.063.953.063.281 0 .594-.016.938-.047h.078a.716.716 0 01.109-.016c.063.198.318.787.766 1.766l1.297 2.922c.646-1.562 1.14-2.807 1.484-3.734l.297-.954c.25.042.573.063.969.063.135 0 .302-.01.5-.031.198-.021.323-.032.375-.032h.125a.968.968 0 01.14-.015c.042.125.063.198.063.219 0 .156-.021.234-.063.234-.291 0-.541.078-.75.234-.052.021-.073.125-.062.313l.109 1.797.078 1.172.063.922c.031.416.088.781.172 1.093.021.073.151.146.39.219.25.062.443.094.579.094.041 0 .062.067.062.203 0 .125-.021.208-.062.25a86.579 86.579 0 00-1.766-.078c-.031 0-.568.026-1.61.078a.655.655 0 01-.015-.266c.01-.125.031-.187.062-.187a2.6 2.6 0 00.532-.094c.26-.073.401-.146.421-.219.053-.208.068-.672.047-1.39l-.171-3.141zm6.796-.969c-.552 0-1.005.255-1.359.766-.344.5-.516 1.114-.516 1.844 0 .854.219 1.588.657 2.203.448.604.968.906 1.562.906.552 0 1.005-.26 1.36-.781.354-.521.531-1.146.531-1.875 0-.844-.224-1.563-.672-2.156-.448-.605-.969-.907-1.563-.907zm.172-.609c.938 0 1.74.338 2.406 1.016.667.677 1 1.489 1 2.437 0 .958-.328 1.781-.984 2.469-.646.677-1.443 1.015-2.39 1.015a3.272 3.272 0 01-2.422-1.015 3.422 3.422 0 01-1-2.469c0-.969.323-1.786.968-2.453.646-.667 1.454-1 2.422-1zm6.594 2.281v.156c0 .427.13.745.391.953.27.209.619.313 1.047.313a4.51 4.51 0 001.234-.172v-1.25c0-.604-.042-1.068-.125-1.391-.021-.072-.156-.14-.406-.203-.24-.073-.412-.109-.516-.109-.031 0-.052-.062-.063-.188a.647.647 0 01.016-.265c1.042.052 1.594.078 1.656.078.073 0 .646-.026 1.719-.078.042.042.063.13.063.265 0 .126-.021.188-.063.188-.135 0-.328.036-.578.109-.24.063-.37.131-.391.203a4.73 4.73 0 00-.109 1.094v3.032c0 .427.036.791.109 1.093.021.073.151.146.391.219.25.062.443.094.578.094.042 0 .063.067.063.203 0 .125-.021.208-.063.25a109.93 109.93 0 00-1.734-.078c-.063 0-.615.026-1.657.078a.655.655 0 01-.015-.266c.01-.125.031-.187.062-.187a2.6 2.6 0 00.532-.094c.26-.073.401-.146.421-.219.084-.323.126-.786.126-1.39v-.594c-.5.156-1.016.234-1.547.234-.625 0-1.172-.125-1.641-.375-.469-.26-.703-.651-.703-1.172v-.828c0-.427-.037-.791-.109-1.094-.021-.072-.157-.14-.407-.203a2.068 2.068 0 00-.562-.109c-.042 0-.063-.062-.063-.188 0-.135.021-.223.063-.265 1.073.052 1.646.078 1.719.078.062 0 .614-.026 1.656-.078a.634.634 0 01.015.265c-.01.126-.031.188-.062.188-.104 0-.281.036-.531.109-.24.063-.37.131-.391.203-.083.323-.125.787-.125 1.391zm9.094 1.281c-.365 0-.584.021-.656.063-.053.031-.079.125-.079.281v1.453c-.031.417.016.662.141.735.094.083.271.125.531.125 1.219 0 1.828-.453 1.828-1.36 0-.385-.14-.698-.421-.937-.282-.24-.73-.36-1.344-.36zm-1.313-3.359c.031 0 .584-.026 1.657-.078.041.042.062.13.062.265 0 .126-.021.188-.062.188-.136 0-.329.036-.579.109-.239.063-.369.131-.39.203-.073.303-.11.667-.11 1.094v.813c0 .125.203.187.61.187 1.031 0 1.812.167 2.343.5.542.334.813.771.813 1.313 0 .635-.255 1.135-.766 1.5-.51.354-1.203.531-2.078.531h-1.484c-.479 0-1.042.016-1.688.047-.041-.042-.062-.125-.062-.25 0-.136.021-.203.062-.203.136 0 .323-.032.563-.094.25-.073.385-.146.406-.219a4.71 4.71 0 00.11-1.093v-3.032c0-.427-.037-.791-.11-1.094-.021-.072-.156-.14-.406-.203a2.074 2.074 0 00-.563-.109c-.041 0-.062-.062-.062-.188 0-.135.021-.223.062-.265 1.063.052 1.62.078 1.672.078zm6.594-2.094c-.167 0-.333-.047-.5-.14-.156-.094-.234-.256-.234-.485 0-.239.036-.416.109-.531.208-.104.469-.156.781-.156.625 0 1.292.276 2 .828.719.552 1.078 1.239 1.078 2.062 0 .542-.119.995-.359 1.36-.229.354-.635.698-1.219 1.031a6.49 6.49 0 00-.75.516c-.271.218-.427.369-.469.453-.104.187-.156.547-.156 1.078 0 .135-.104.203-.312.203-.136 0-.203-.042-.203-.125 0-.135-.006-.375-.016-.719v-.75c0-.125.005-.239.016-.344.02-.114.052-.218.093-.312.042-.104.073-.193.094-.266a.78.78 0 01.172-.234.884.884 0 00.156-.188c.032-.041.099-.098.203-.171.115-.073.183-.12.203-.141.021-.021.089-.068.204-.141a1.4 1.4 0 01.203-.125c.26-.166.442-.286.547-.359a4.87 4.87 0 00.406-.297c.156-.135.26-.26.312-.375a.856.856 0 00.094-.391c0-.447-.13-.791-.39-1.031a1.228 1.228 0 00-.876-.359c-.312 0-.562.021-.75.062a2.751 2.751 0 01-.437.047zm-.563 8.672a.924.924 0 01-.265-.656c0-.25.088-.458.265-.625a.876.876 0 01.641-.266c.25 0 .464.089.641.266a.823.823 0 01.265.625c0 .25-.088.469-.265.656a.874.874 0 01-.641.266.876.876 0 01-.641-.266z" fill="#000"/><path d="M69.918 141.82c-.02.349-.059.632-.113.848a1.321 1.321 0 01-.274.543v.031h2.578v-4.125h-2.02l-.171 2.703zM68.914 144v1.113h-.805v-1.871h.41a.956.956 0 00.418-.519c.089-.235.145-.549.169-.942l.207-3.418h3.671v4.879h.704v1.871h-.801V144h-3.973zm8.625-.492c-.354.38-.827.57-1.418.57s-1.064-.19-1.418-.57c-.354-.383-.531-.904-.531-1.563 0-.656.177-1.174.531-1.554.354-.383.827-.575 1.418-.575s1.064.192 1.418.575c.354.38.531.898.531 1.554 0 .659-.177 1.18-.53 1.563zm-1.418-.125a.953.953 0 00.797-.379c.195-.253.293-.606.293-1.059 0-.45-.099-.802-.297-1.054a.949.949 0 00-.793-.379.96.96 0 00-.797.379c-.195.252-.293.604-.293 1.054 0 .453.098.806.293 1.059a.96.96 0 00.797.379zm5.336.617v-3.441h-1.82V144h-.84v-4.109H82.3V144h-.844zm4.941-.492c-.354.38-.826.57-1.417.57-.592 0-1.064-.19-1.418-.57-.355-.383-.532-.904-.532-1.563 0-.656.177-1.174.531-1.554.355-.383.827-.575 1.419-.575.59 0 1.063.192 1.417.575.355.38.532.898.532 1.554 0 .659-.177 1.18-.532 1.563zm-1.417-.125a.952.952 0 00.796-.379c.196-.253.293-.606.293-1.059 0-.45-.099-.802-.297-1.054a.948.948 0 00-.792-.379.96.96 0 00-.797.379c-.196.252-.293.604-.293 1.054 0 .453.097.806.293 1.059a.96.96 0 00.797.379zm3.769-1.254c-.016.245-.04.461-.074.648a2.75 2.75 0 01-.149.528 1.402 1.402 0 01-.238.402.987.987 0 01-.352.246 1.251 1.251 0 01-.48.086.803.803 0 01-.285-.043v-.742c.07.021.144.031.222.031.188 0 .326-.101.415-.305.088-.203.145-.498.172-.886l.14-2.203h2.848V144h-.84v-3.441h-1.266l-.113 1.57zM94.574 144v-1.789h-1.86V144h-.839v-4.109h.84v1.656h1.86v-1.656h.84V144h-.84zm2.586 0h-.832v-4.109h.832v2.879h.031l1.899-2.879h.832V144h-.832v-2.887h-.031L97.16 144zm6.793-4.109v.668h-1.289V144h-.84v-3.441h-1.289v-.668h3.418zm2.977.902a.934.934 0 00-.715-.297c-.292 0-.534.1-.727.301-.192.198-.299.454-.32.769h2.055c-.011-.317-.108-.575-.293-.773zm.289 2h.801c-.06.378-.253.686-.579.926-.325.239-.722.359-1.191.359-.602 0-1.076-.189-1.422-.566-.344-.38-.516-.896-.516-1.547 0-.646.172-1.166.516-1.559.346-.393.809-.59 1.387-.59.568 0 1.018.187 1.351.559.334.37.5.867.5 1.492v.289h-2.902v.051c0 .359.1.647.301.863.2.216.469.325.805.325.237 0 .44-.055.609-.165a.796.796 0 00.34-.437zm2.664-.664a6.02 6.02 0 01-.074.648 2.766 2.766 0 01-.149.528 1.393 1.393 0 01-.238.402.987.987 0 01-.352.246 1.25 1.25 0 01-.48.086.8.8 0 01-.285-.043v-.742c.07.021.144.031.222.031.188 0 .326-.101.414-.305.089-.203.146-.498.172-.886l.141-2.203h2.848V144h-.84v-3.441h-1.266l-.113 1.57zm4.676-.309h-.711v1.516h.711c.242 0 .434-.069.578-.207a.73.73 0 00.218-.551.722.722 0 00-.218-.551c-.146-.138-.339-.207-.578-.207zm-1.551 2.18v-4.109h.84v1.269h.785c.476 0 .855.129 1.137.387.283.255.425.599.425 1.031 0 .435-.142.781-.425 1.039-.282.255-.661.383-1.137.383h-1.625zm6.59 0v-1.789h-1.86V144h-.84v-4.109h.84v1.656h1.86v-1.656h.84V144h-.84zm5.414 0v-4.109h.836V144h-.836zm-2.11-2.18h-.711v1.516h.711c.243 0 .435-.069.578-.207a.73.73 0 00.219-.551.723.723 0 00-.219-.551c-.145-.138-.338-.207-.578-.207zm-1.55 2.18v-4.109h.839v1.269h.786c.476 0 .855.129 1.136.387.284.255.426.599.426 1.031 0 .435-.142.781-.426 1.039-.281.255-.66.383-1.136.383h-1.625zm7.843-3.207a.934.934 0 00-.715-.297c-.291 0-.533.1-.726.301-.193.198-.3.454-.32.769h2.054c-.01-.317-.108-.575-.293-.773zm.289 2h.801c-.06.378-.252.686-.578.926-.325.239-.723.359-1.191.359-.602 0-1.076-.189-1.422-.566-.344-.38-.516-.896-.516-1.547 0-.646.172-1.166.516-1.559.346-.393.808-.59 1.386-.59.568 0 1.019.187 1.352.559.333.37.5.867.5 1.492v.289h-2.902v.051c0 .359.1.647.3.863.201.216.469.325.805.325.237 0 .44-.055.61-.165a.79.79 0 00.339-.437zm4.891-2.289h-.863v1.078h.781c.477 0 .715-.182.715-.547a.48.48 0 00-.164-.39c-.11-.094-.266-.141-.469-.141zm-.027 1.668h-.836v1.215h.929c.24 0 .422-.051.547-.153.125-.104.188-.255.188-.453 0-.406-.276-.609-.828-.609zM132.68 144v-4.109h1.867c.401 0 .715.093.941.281.229.185.344.44.344.766a.914.914 0 01-.203.578.799.799 0 01-.496.308v.031c.265.037.479.142.64.317a.903.903 0 01.243.644c0 .362-.131.65-.391.864-.258.213-.609.32-1.055.32h-1.89zm7.273-.492c-.354.38-.827.57-1.418.57s-1.064-.19-1.418-.57c-.354-.383-.531-.904-.531-1.563 0-.656.177-1.174.531-1.554.354-.383.827-.575 1.418-.575s1.064.192 1.418.575c.354.38.531.898.531 1.554 0 .659-.177 1.18-.531 1.563zm-1.418-.125a.952.952 0 00.797-.379c.195-.253.293-.606.293-1.059 0-.45-.099-.802-.297-1.054a.949.949 0 00-.793-.379.96.96 0 00-.797.379c-.195.252-.293.604-.293 1.054 0 .453.098.806.293 1.059a.96.96 0 00.797.379zm4.153.695c-.482 0-.878-.111-1.188-.332a1.205 1.205 0 01-.516-.898h.832a.646.646 0 00.289.41c.152.094.346.14.583.14.265 0 .471-.056.617-.168a.53.53 0 00.222-.445c0-.398-.278-.597-.836-.597h-.601v-.622h.59c.479 0 .718-.179.718-.539a.472.472 0 00-.179-.39c-.12-.099-.296-.149-.528-.149-.226 0-.411.046-.554.137a.544.544 0 00-.258.379h-.809c.045-.367.21-.656.496-.867.289-.214.663-.321 1.122-.321.489 0 .867.102 1.132.305a.972.972 0 01.403.824c0 .211-.06.397-.18.559a.825.825 0 01-.477.316v.032c.261.059.459.17.594.332.138.161.207.36.207.597 0 .391-.153.705-.461.942-.304.237-.711.355-1.218.355zm3.234-.078h-.813v-4.109h1.059l1.316 3.011h.032l1.324-3.011h1.035V144h-.82v-2.852h-.028l-1.23 2.692h-.617l-1.231-2.692h-.027V144zm8.047-.492c-.354.38-.827.57-1.418.57s-1.064-.19-1.418-.57c-.354-.383-.531-.904-.531-1.563 0-.656.177-1.174.531-1.554.354-.383.827-.575 1.418-.575s1.064.192 1.418.575c.354.38.531.898.531 1.554 0 .659-.177 1.18-.531 1.563zm-1.418-.125a.953.953 0 00.797-.379c.195-.253.293-.606.293-1.059 0-.45-.099-.802-.297-1.054a.95.95 0 00-.793-.379.959.959 0 00-.797.379c-.195.252-.293.604-.293 1.054 0 .453.098.806.293 1.059a.959.959 0 00.797.379zm6.34-1.563l1.754 2.18h-1.047l-1.512-1.895h-.031V144h-.832v-1.895h-.028L155.684 144h-1.032l1.743-2.164-1.696-1.945h1.004l1.492 1.757h.028v-1.757h.832v1.757h.031l1.492-1.757h.996l-1.683 1.929zm4.98 2.18v-1.789h-1.859V144h-.84v-4.109h.84v1.656h1.859v-1.656h.84V144h-.84zm4.941-.492c-.354.38-.826.57-1.417.57-.592 0-1.064-.19-1.418-.57-.355-.383-.532-.904-.532-1.563 0-.656.177-1.174.532-1.554.354-.383.826-.575 1.418-.575.591 0 1.063.192 1.417.575.355.38.532.898.532 1.554 0 .659-.177 1.18-.532 1.563zm-1.417-.125a.952.952 0 00.796-.379c.196-.253.293-.606.293-1.059 0-.45-.099-.802-.296-1.054a.95.95 0 00-.793-.379.959.959 0 00-.797.379c-.196.252-.293.604-.293 1.054 0 .453.097.806.293 1.059a.959.959 0 00.797.379zm6.183-2.176h-.812a.95.95 0 00-.328-.496c-.162-.128-.368-.191-.618-.191a.94.94 0 00-.785.39c-.195.258-.293.603-.293 1.035 0 .443.098.792.293 1.047a.955.955 0 00.793.379c.248 0 .452-.059.613-.176a.893.893 0 00.332-.504h.813c-.06.417-.25.753-.57 1.008-.318.253-.717.379-1.196.379-.591 0-1.061-.191-1.41-.574-.349-.383-.523-.902-.523-1.559 0-.646.174-1.161.523-1.547.352-.388.819-.582 1.402-.582.487 0 .887.133 1.2.399.315.263.504.594.566.992zm3.727-1.316v.668h-1.289V144h-.84v-3.441h-1.289v-.668h3.418zm1.449 4.109h-.832v-4.109h.832v2.879h.031l1.899-2.879h.832V144h-.832v-2.887h-.032L178.754 144zM69.918 222.82c-.02.349-.059.632-.113.848a1.321 1.321 0 01-.274.543v.031h2.578v-4.125h-2.02l-.171 2.703zM68.914 225v1.113h-.805v-1.871h.41a.956.956 0 00.418-.519c.089-.235.145-.549.169-.942l.207-3.418h3.671v4.879h.704v1.871h-.801V225h-3.973zm8.625-.492c-.354.38-.827.57-1.418.57s-1.064-.19-1.418-.57c-.354-.383-.531-.904-.531-1.563 0-.656.177-1.174.531-1.554.354-.383.827-.575 1.418-.575s1.064.192 1.418.575c.354.38.531.898.531 1.554 0 .659-.177 1.18-.53 1.563zm-1.418-.125a.953.953 0 00.797-.379c.195-.253.293-.606.293-1.059 0-.45-.099-.802-.297-1.054a.949.949 0 00-.793-.379.96.96 0 00-.797.379c-.195.252-.293.604-.293 1.054 0 .453.098.806.293 1.059a.96.96 0 00.797.379zm6.184-2.176h-.813a.944.944 0 00-.328-.496c-.161-.128-.367-.191-.617-.191a.939.939 0 00-.785.39c-.196.258-.293.603-.293 1.035 0 .443.097.792.293 1.047a.955.955 0 00.793.379c.247 0 .451-.059.613-.176a.9.9 0 00.332-.504h.813c-.06.417-.25.753-.57 1.008-.319.253-.717.379-1.196.379-.591 0-1.061-.191-1.41-.574-.35-.383-.524-.902-.524-1.559 0-.646.175-1.161.524-1.547.351-.388.819-.582 1.402-.582.487 0 .887.133 1.2.399.314.263.503.594.566.992zm3.726-1.316v.668h-1.289V225h-.84v-3.441h-1.289v-.668h3.418zm1.028 5.64c-.16 0-.274-.006-.344-.019v-.684c.041.011.133.016.273.016.198 0 .353-.046.465-.137.112-.089.2-.238.266-.449l.039-.129.035-.125-1.484-4.113h.914l1.043 3.343h.011l1.043-3.343h.89l-1.542 4.324c-.175.497-.379.841-.613 1.031-.235.19-.567.285-.996.285zM93.434 225v-3.441h-1.82V225h-.84v-4.109h3.503V225h-.843zm4.453 0v-1.789h-1.86V225h-.84v-4.109h.84v1.656h1.86v-1.656h.84V225h-.84zm4.941-.492c-.354.38-.827.57-1.418.57s-1.064-.19-1.418-.57c-.354-.383-.531-.904-.531-1.563 0-.656.177-1.174.531-1.554.354-.383.827-.575 1.418-.575s1.064.192 1.418.575c.354.38.531.898.531 1.554 0 .659-.177 1.18-.531 1.563zm-1.418-.125a.952.952 0 00.797-.379c.195-.253.293-.606.293-1.059 0-.45-.099-.802-.297-1.054a.949.949 0 00-.793-.379.96.96 0 00-.797.379c-.195.252-.293.604-.293 1.054 0 .453.098.806.293 1.059a.96.96 0 00.797.379zm6.961.617v-3.441h-1.82V225h-.84v-4.109h3.504V225h-.844zm4.941-.492c-.354.38-.826.57-1.417.57-.592 0-1.064-.19-1.418-.57-.355-.383-.532-.904-.532-1.563 0-.656.177-1.174.532-1.554.354-.383.826-.575 1.418-.575.591 0 1.063.192 1.417.575.355.38.532.898.532 1.554 0 .659-.177 1.18-.532 1.563zm-1.417-.125a.952.952 0 00.796-.379c.196-.253.293-.606.293-1.059 0-.45-.099-.802-.296-1.054a.95.95 0 00-.793-.379.959.959 0 00-.797.379c-.196.252-.293.604-.293 1.054 0 .453.097.806.293 1.059a.959.959 0 00.797.379zm6.96.617v-3.441h-1.82V225h-.84v-4.109h3.504V225h-.844zm3.899-4.176c.523 0 .943.192 1.258.574.315.383.472.899.472 1.547 0 .649-.156 1.166-.468 1.551-.313.383-.728.574-1.246.574-.292 0-.551-.066-.778-.199a1.33 1.33 0 01-.515-.547h-.02v2.035h-.844v-5.468h.817v.707h.015c.123-.24.298-.429.528-.567.229-.138.489-.207.781-.207zm-.223 3.531a.95.95 0 00.793-.378c.196-.256.293-.599.293-1.032 0-.429-.097-.772-.293-1.027a.945.945 0 00-.793-.383.937.937 0 00-.781.387c-.198.258-.297.599-.297 1.023 0 .427.098.77.293 1.028.198.255.46.382.785.382zm5.867.153c-.354.38-.826.57-1.418.57-.591 0-1.063-.19-1.418-.57-.354-.383-.531-.904-.531-1.563 0-.656.177-1.174.531-1.554.355-.383.827-.575 1.418-.575.592 0 1.064.192 1.418.575.355.38.532.898.532 1.554 0 .659-.177 1.18-.532 1.563zm-1.418-.125a.952.952 0 00.797-.379c.196-.253.293-.606.293-1.059 0-.45-.099-.802-.297-1.054a.947.947 0 00-.793-.379.958.958 0 00-.796.379c-.196.252-.293.604-.293 1.054 0 .453.097.806.293 1.059a.958.958 0 00.796.379zm5.399-2.824h-1.883V225h-.84v-4.109h2.723v.668zm2.851-.735c.524 0 .943.192 1.258.574.315.383.473.899.473 1.547 0 .649-.156 1.166-.469 1.551-.312.383-.728.574-1.246.574-.292 0-.551-.066-.777-.199a1.34 1.34 0 01-.516-.547h-.019v2.035h-.844v-5.468h.816v.707h.016c.122-.24.298-.429.527-.567.229-.138.49-.207.781-.207zm-.222 3.531a.952.952 0 00.793-.378c.195-.256.293-.599.293-1.032 0-.429-.098-.772-.293-1.027a.948.948 0 00-.793-.383.936.936 0 00-.781.387c-.198.258-.297.599-.297 1.023 0 .427.097.77.293 1.028a.944.944 0 00.785.382zm4.121.047c.297 0 .545-.09.746-.269a.868.868 0 00.305-.672v-.324l-1.012.062c-.253.018-.448.081-.586.188a.506.506 0 00-.203.422.53.53 0 00.203.433c.138.107.32.16.547.16zm-.234.668c-.404 0-.734-.114-.989-.343a1.156 1.156 0 01-.379-.895c0-.359.133-.644.399-.855.265-.214.642-.334 1.129-.36l1.125-.066v-.317c0-.229-.073-.407-.219-.535-.146-.13-.348-.195-.606-.195-.239 0-.434.053-.585.16a.698.698 0 00-.282.441h-.797c.024-.38.188-.69.493-.929.304-.24.705-.36 1.203-.36.497 0 .893.123 1.187.368.297.244.446.573.446.984V225h-.809v-.676h-.02a1.3 1.3 0 01-.535.543 1.504 1.504 0 01-.761.203zm3.824-.07h-.813v-4.109h1.059l1.316 3.011h.031l1.325-3.011h1.035V225h-.82v-2.852h-.028l-1.23 2.692h-.617l-1.231-2.692h-.027V225zm5.672 0h-.813v-4.109h1.059l1.316 3.011h.031l1.325-3.011h1.035V225h-.821v-2.852h-.027l-1.23 2.692h-.618l-1.23-2.692h-.027V225zm7.297-3.207a.935.935 0 00-.715-.297c-.292 0-.534.1-.727.301-.193.198-.299.454-.32.769h2.054c-.01-.317-.108-.575-.292-.773zm.289 2h.8c-.06.378-.252.686-.578.926-.325.239-.722.359-1.191.359-.602 0-1.076-.189-1.422-.566-.344-.38-.516-.896-.516-1.547 0-.646.172-1.166.516-1.559.346-.393.809-.59 1.387-.59.567 0 1.018.187 1.351.559.334.37.5.867.5 1.492v.289h-2.902v.051c0 .359.1.647.301.863.2.216.468.325.804.325.237 0 .44-.055.61-.165a.796.796 0 00.34-.437z" fill="#939CA6"/><rect x="68" y="157" width="94" height="45" rx="10" fill="#F6D1C9"/><rect x="166" y="157" width="94" height="45" rx="10" fill="#F6D1C9"/><path d="M264 167c0-5.523 4.477-10 10-10h27v45h-27c-5.523 0-10-4.477-10-10v-25z" fill="#F6D1C9"/><path d="M80.996 178.27c.81 0 1.452.261 1.926.785.476.523.715 1.233.715 2.129 0 .895-.237 1.605-.711 2.128-.474.521-1.117.782-1.93.782-.812 0-1.456-.261-1.93-.782-.474-.523-.71-1.233-.71-2.128 0-.896.236-1.606.71-2.129.474-.524 1.118-.785 1.93-.785zm0 .769c-.536 0-.962.193-1.277.578-.313.386-.469.908-.469 1.567 0 .656.156 1.177.469 1.562.315.386.74.578 1.277.578.534 0 .957-.192 1.27-.578.315-.385.472-.906.472-1.562 0-.659-.157-1.181-.472-1.567-.313-.385-.736-.578-1.27-.578zM87.144 184v-1.789h-1.859V184h-.84v-4.109h.84v1.656h1.86v-1.656h.84V184h-.84zm2.997-1.871c-.016.245-.04.461-.075.648a2.743 2.743 0 01-.148.528 1.402 1.402 0 01-.238.402.987.987 0 01-.352.246 1.251 1.251 0 01-.48.086.804.804 0 01-.285-.043v-.742c.07.021.144.031.222.031.188 0 .326-.101.414-.305.089-.203.146-.498.172-.886l.14-2.203h2.848V184h-.84v-3.441h-1.265l-.113 1.57zm4.566 1.273c.297 0 .546-.09.746-.269a.867.867 0 00.305-.672v-.324l-1.012.062c-.252.018-.448.081-.586.188a.504.504 0 00-.203.422.53.53 0 00.203.433c.138.107.32.16.547.16zm-.234.668c-.404 0-.733-.114-.989-.343-.252-.23-.378-.528-.378-.895 0-.359.132-.644.398-.855.265-.214.642-.334 1.129-.36l1.125-.066v-.317c0-.229-.073-.407-.219-.535-.146-.13-.348-.195-.605-.195-.24 0-.435.053-.586.16a.7.7 0 00-.282.441h-.797c.024-.38.188-.69.493-.929.304-.24.705-.36 1.203-.36.497 0 .893.123 1.187.368.297.244.446.573.446.984V184h-.809v-.676h-.02a1.305 1.305 0 01-.535.543c-.237.136-.49.203-.761.203zm3.843-.07h-.832v-4.109h.832v2.879h.032l1.898-2.879h.832V184h-.832v-2.887h-.031L98.316 184zm-.273-5.914h.57c.003.224.07.41.203.559a.677.677 0 00.524.218.681.681 0 00.527-.218.82.82 0 00.203-.559h.571c0 .37-.12.669-.36.898-.239.227-.553.34-.941.34-.386 0-.698-.113-.938-.34-.24-.229-.359-.528-.359-.898zm6.641 5.914v-1.789h-1.86V184h-.84v-4.109h.84v1.656h1.86v-1.656h.839V184h-.839zm-24.563 7.82l1.89 2.18h-1.058l-1.629-1.895h-.031V194h-.84v-4.109h.84v1.757h.031l1.61-1.757h1.007l-1.82 1.929zm5.504 1.688c-.354.38-.827.57-1.418.57s-1.064-.19-1.418-.57c-.354-.383-.531-.904-.531-1.563 0-.656.177-1.174.531-1.554.354-.383.827-.575 1.418-.575s1.064.192 1.418.575c.354.38.531.898.531 1.554 0 .659-.177 1.18-.531 1.563zm-1.418-.125a.952.952 0 00.797-.379c.195-.253.293-.606.293-1.059 0-.45-.1-.802-.297-1.054a.948.948 0 00-.793-.379.959.959 0 00-.797.379c-.195.252-.293.604-.293 1.054 0 .453.098.806.293 1.059a.959.959 0 00.797.379zm5.375.617v-1.789h-1.86V194h-.84v-4.109h.84v1.656h1.86v-1.656h.84V194h-.84zm5.262-2.793h-.813a.942.942 0 00-.328-.496c-.161-.128-.367-.191-.617-.191a.939.939 0 00-.785.39c-.195.258-.293.603-.293 1.035 0 .443.098.792.293 1.047a.955.955 0 00.793.379c.247 0 .452-.059.613-.176a.9.9 0 00.332-.504h.813c-.06.417-.25.753-.57 1.008-.319.253-.717.379-1.196.379-.591 0-1.061-.191-1.41-.574-.35-.383-.524-.902-.524-1.559 0-.646.175-1.161.524-1.547.351-.388.819-.582 1.402-.582.487 0 .887.133 1.2.399.314.263.503.594.566.992zm1.05 4.324c-.158 0-.273-.006-.343-.019v-.684c.041.011.133.016.273.016.198 0 .353-.046.465-.137.112-.089.2-.238.266-.449l.039-.129.035-.125-1.485-4.113h.915l1.043 3.343h.011l1.043-3.343h.89l-1.542 4.324c-.175.497-.379.841-.613 1.031-.235.19-.567.285-.997.285zm4.7-3.402a6.02 6.02 0 01-.074.648 2.766 2.766 0 01-.149.528 1.393 1.393 0 01-.238.402.99.99 0 01-.352.246 1.25 1.25 0 01-.48.086.804.804 0 01-.285-.043v-.742c.07.021.144.031.222.031.188 0 .326-.101.414-.305.089-.203.146-.498.172-.886l.14-2.203h2.848V194h-.839v-3.441h-1.266l-.113 1.57zm4.676-.309h-.711v1.516h.711c.242 0 .434-.069.578-.207a.734.734 0 00.218-.551.726.726 0 00-.218-.551c-.146-.138-.339-.207-.578-.207zm-1.551 2.18v-4.109h.84v1.269h.785c.476 0 .855.129 1.136.387.284.255.426.599.426 1.031 0 .435-.142.781-.426 1.039-.281.255-.66.383-1.136.383h-1.625zm6.625-4.109v.668h-1.289V194h-.84v-3.441h-1.289v-.668h3.418zm1.926 3.511c.296 0 .545-.09.746-.269a.867.867 0 00.304-.672v-.324l-1.011.062c-.253.018-.448.081-.586.188a.503.503 0 00-.203.422c0 .179.067.324.203.433.138.107.32.16.547.16zm-.235.668c-.403 0-.733-.114-.988-.343-.253-.23-.379-.528-.379-.895 0-.359.133-.644.398-.855.266-.214.642-.334 1.129-.36l1.125-.066v-.317c0-.229-.073-.407-.218-.535-.146-.13-.348-.195-.606-.195-.239 0-.435.053-.586.16a.7.7 0 00-.281.441h-.797c.023-.38.188-.69.492-.929.305-.24.706-.36 1.203-.36.498 0 .894.123 1.188.368.297.244.445.573.445.984V194h-.808v-.676h-.02a1.307 1.307 0 01-.535.543 1.505 1.505 0 01-.762.203zm7.125 1.008h-.777V194h-3.336v-4.109h.84v3.441h1.793v-3.441h.84v3.441h.64v1.746zm1.406-1.078h-.832v-4.109h.832v2.879h.032l1.898-2.879h.832V194h-.832v-2.887h-.031L120.566 194zm4.5 0h-.832v-4.109h.832v2.879h.032l1.898-2.879h.832V194h-.832v-2.887h-.031L125.066 194zm52.536-12.516v-.73h.757c.323 0 .585-.086.786-.258a.83.83 0 00.304-.664.787.787 0 00-.285-.641c-.187-.156-.443-.234-.766-.234-.328 0-.593.081-.796.242a.908.908 0 00-.34.66h-.828c.028-.505.221-.903.578-1.195.356-.292.828-.437 1.414-.437.554 0 1.008.141 1.359.425.352.282.527.645.527 1.09 0 .315-.097.593-.292.832a1.365 1.365 0 01-.758.469v.031c.377.047.676.196.894.446.219.25.328.566.328.949 0 .474-.198.871-.593 1.191-.396.318-.89.477-1.481.477-.612 0-1.112-.151-1.5-.453a1.556 1.556 0 01-.621-1.2h.844a.889.889 0 00.383.664c.231.164.528.247.89.247.352 0 .636-.09.852-.27a.862.862 0 00.328-.699c0-.294-.107-.525-.32-.692-.211-.166-.506-.25-.883-.25h-.781zm5.066 1.918c.297 0 .546-.09.746-.269a.868.868 0 00.305-.672v-.324l-1.012.062c-.253.018-.448.081-.586.188a.506.506 0 00-.203.422.53.53 0 00.203.433c.138.107.32.16.547.16zm-.234.668c-.404 0-.733-.114-.989-.343a1.156 1.156 0 01-.379-.895c0-.359.133-.644.399-.855.265-.214.642-.334 1.129-.36l1.125-.066v-.317c0-.229-.073-.407-.219-.535-.146-.13-.348-.195-.605-.195-.24 0-.435.053-.586.16a.698.698 0 00-.282.441h-.797c.024-.38.188-.69.493-.929.304-.24.705-.36 1.203-.36.497 0 .893.123 1.187.368.297.244.446.573.446.984V184h-.809v-.676h-.02a1.3 1.3 0 01-.535.543 1.504 1.504 0 01-.761.203zm4.679-2.25l1.891 2.18h-1.059l-1.629-1.895h-.031V184h-.84v-4.109h.84v1.757h.031l1.61-1.757h1.008l-1.821 1.929zm3.758 1.582c.297 0 .546-.09.746-.269a.868.868 0 00.305-.672v-.324l-1.012.062c-.252.018-.448.081-.586.188a.506.506 0 00-.203.422.53.53 0 00.203.433c.138.107.321.16.547.16zm-.234.668c-.404 0-.733-.114-.989-.343-.252-.23-.378-.528-.378-.895 0-.359.132-.644.398-.855.266-.214.642-.334 1.129-.36l1.125-.066v-.317c0-.229-.073-.407-.219-.535-.146-.13-.348-.195-.605-.195-.24 0-.435.053-.586.16a.702.702 0 00-.282.441h-.796c.023-.38.187-.69.492-.929.304-.24.706-.36 1.203-.36.497 0 .893.123 1.187.368.297.244.446.573.446.984V184h-.809v-.676h-.019a1.31 1.31 0 01-.536.543c-.237.136-.49.203-.761.203zm4.488.008c-.482 0-.878-.111-1.187-.332a1.2 1.2 0 01-.516-.898h.832a.646.646 0 00.289.41c.151.094.345.14.582.14.266 0 .471-.056.617-.168a.529.529 0 00.223-.445c0-.398-.279-.597-.836-.597h-.602v-.622h.59c.479 0 .719-.179.719-.539a.473.473 0 00-.18-.39c-.12-.099-.295-.149-.527-.149-.227 0-.412.046-.555.137a.547.547 0 00-.258.379h-.808c.044-.367.209-.656.496-.867.289-.214.663-.321 1.121-.321.49 0 .867.102 1.133.305a.974.974 0 01.402.824c0 .211-.06.397-.18.559a.82.82 0 01-.476.316v.032c.26.059.458.17.594.332.138.161.207.36.207.597 0 .391-.154.705-.461.942-.305.237-.711.355-1.219.355zm-17.43 8.051c-.015.245-.04.461-.074.648a2.765 2.765 0 01-.148.528 1.394 1.394 0 01-.239.402.983.983 0 01-.351.246 1.252 1.252 0 01-.481.086.807.807 0 01-.285-.043v-.742a.78.78 0 00.223.031c.187 0 .325-.101.414-.305.088-.203.146-.498.172-.886l.14-2.203h2.848V194h-.84v-3.441h-1.265l-.114 1.57zm5.563-1.336a.934.934 0 00-.715-.297c-.292 0-.534.1-.727.301-.192.198-.299.454-.32.769h2.055c-.011-.317-.108-.575-.293-.773zm.289 2h.801c-.06.378-.253.686-.578.926-.326.239-.723.359-1.192.359-.601 0-1.075-.189-1.422-.566-.344-.38-.515-.896-.515-1.547 0-.646.171-1.166.515-1.559.347-.393.809-.59 1.387-.59.568 0 1.018.187 1.352.559.333.37.5.867.5 1.492v.289h-2.903v.051c0 .359.1.647.301.863.2.216.469.325.805.325.237 0 .44-.055.609-.165a.792.792 0 00.34-.437zm3.238-.973l1.891 2.18h-1.059l-1.629-1.895h-.031V194h-.84v-4.109h.84v1.757h.031l1.61-1.757h1.007l-1.82 1.929zm3.758 1.582c.297 0 .546-.09.746-.269a.868.868 0 00.305-.672v-.324l-1.012.062c-.253.018-.448.081-.586.188a.506.506 0 00-.203.422.53.53 0 00.203.433c.138.107.32.16.547.16zm-.234.668c-.404 0-.733-.114-.989-.343a1.156 1.156 0 01-.379-.895c0-.359.133-.644.399-.855.265-.214.642-.334 1.129-.36l1.125-.066v-.317c0-.229-.073-.407-.219-.535-.146-.13-.348-.195-.605-.195-.24 0-.435.053-.586.16a.698.698 0 00-.282.441h-.797c.024-.38.188-.69.493-.929.304-.24.705-.36 1.203-.36.497 0 .893.123 1.187.368.297.244.446.573.446.984V194h-.809v-.676h-.02a1.3 1.3 0 01-.535.543 1.504 1.504 0 01-.761.203zm5.156-4.246c.523 0 .943.192 1.258.574.315.383.472.899.472 1.547 0 .649-.156 1.166-.468 1.551-.313.383-.728.574-1.247.574-.291 0-.55-.066-.777-.199a1.33 1.33 0 01-.515-.547h-.02v2.035h-.844v-5.468h.817v.707h.015c.123-.24.298-.429.528-.567.229-.138.489-.207.781-.207zm-.223 3.531a.95.95 0 00.793-.378c.195-.256.293-.599.293-1.032 0-.429-.098-.772-.293-1.027a.945.945 0 00-.793-.383.937.937 0 00-.781.387c-.198.258-.297.599-.297 1.023 0 .427.098.77.293 1.028.198.255.46.382.785.382zm6.188-2.148h-.813a.938.938 0 00-.328-.496c-.161-.128-.367-.191-.617-.191a.938.938 0 00-.785.39c-.196.258-.293.603-.293 1.035 0 .443.097.792.293 1.047a.955.955 0 00.793.379c.247 0 .452-.059.613-.176a.903.903 0 00.332-.504h.813c-.06.417-.25.753-.571 1.008-.318.253-.716.379-1.195.379-.591 0-1.061-.191-1.41-.574-.349-.383-.524-.902-.524-1.559 0-.646.175-1.161.524-1.547.351-.388.819-.582 1.402-.582.487 0 .887.133 1.199.399.315.263.504.594.567.992zm3.726-1.316v.668h-1.289V194h-.84v-3.441h-1.289v-.668h3.418zm2.313.613h-.864v1.078h.782c.476 0 .715-.182.715-.547a.48.48 0 00-.164-.39c-.11-.094-.266-.141-.469-.141zm-.028 1.668h-.836v1.215h.93c.24 0 .422-.051.547-.153.125-.104.188-.255.188-.453 0-.406-.277-.609-.829-.609zM205.773 194v-4.109h1.868c.401 0 .714.093.941.281.229.185.344.44.344.766a.914.914 0 01-.203.578.802.802 0 01-.496.308v.031c.265.037.479.142.64.317a.903.903 0 01.242.644c0 .362-.13.65-.39.864-.258.213-.61.32-1.055.32h-1.891zm73.356-10h-.871v-4.875h-2.82V184h-.879v-5.637h4.57V184zm4.199-.492c-.354.38-.827.57-1.418.57s-1.064-.19-1.418-.57c-.354-.383-.531-.904-.531-1.563 0-.656.177-1.174.531-1.554.354-.383.827-.575 1.418-.575s1.064.192 1.418.575c.354.38.531.898.531 1.554 0 .659-.177 1.18-.531 1.563zm-1.418-.125a.952.952 0 00.797-.379c.195-.253.293-.606.293-1.059 0-.45-.099-.802-.297-1.054a.949.949 0 00-.793-.379.96.96 0 00-.797.379c-.195.252-.293.604-.293 1.054 0 .453.098.806.293 1.059a.96.96 0 00.797.379zm3.488.617h-.812v-4.109h1.059l1.316 3.011h.031l1.324-3.011h1.036V184h-.821v-2.852h-.027l-1.231 2.692h-.617l-1.23-2.692h-.028V184zm8.047-.492c-.354.38-.827.57-1.418.57s-1.063-.19-1.418-.57c-.354-.383-.531-.904-.531-1.563 0-.656.177-1.174.531-1.554.355-.383.827-.575 1.418-.575s1.064.192 1.418.575c.354.38.532.898.532 1.554 0 .659-.178 1.18-.532 1.563zm-1.418-.125a.952.952 0 00.797-.379c.196-.253.293-.606.293-1.059 0-.45-.099-.802-.297-1.054a.947.947 0 00-.793-.379.96.96 0 00-.797.379c-.195.252-.292.604-.292 1.054 0 .453.097.806.292 1.059a.96.96 0 00.797.379zm8.582 1.695h-.777V184h-5.129v-4.109h.84v3.441h1.379v-3.441h.84v3.441h1.379v-3.441h.839v3.441h.629v1.746zm2.129-3.258h-.711v1.516h.711c.242 0 .435-.069.578-.207a.73.73 0 00.219-.551.723.723 0 00-.219-.551c-.145-.138-.338-.207-.578-.207zm-1.55 2.18v-4.109h.839v1.269h.785c.477 0 .856.129 1.137.387.284.255.426.599.426 1.031 0 .435-.142.781-.426 1.039-.281.255-.66.383-1.137.383h-1.624zm-24.075 10v-3.441h-1.82V194h-.84v-4.109h3.504V194h-.844zm5.262-2.793h-.813a.938.938 0 00-.328-.496c-.161-.128-.367-.191-.617-.191a.94.94 0 00-.785.39c-.195.258-.293.603-.293 1.035 0 .443.098.792.293 1.047a.955.955 0 00.793.379c.247 0 .452-.059.613-.176a.898.898 0 00.332-.504h.813c-.06.417-.25.753-.571 1.008-.317.253-.716.379-1.195.379-.591 0-1.061-.191-1.41-.574-.349-.383-.523-.902-.523-1.559 0-.646.174-1.161.523-1.547.352-.388.819-.582 1.402-.582.487 0 .887.133 1.2.399.315.263.503.594.566.992zm1.52 2.793h-.833v-4.109h.833v2.879h.031l1.898-2.879h.832V194h-.832v-2.887h-.031L283.895 194zm5.21-1.512h-.019l-.91 1.512h-.914l1.355-2.051-1.336-2.058h.946l.898 1.488h.016l.886-1.488h.93l-1.348 2.031 1.332 2.078h-.929l-.907-1.512zm5.551 1.02c-.354.38-.827.57-1.418.57s-1.064-.19-1.418-.57c-.354-.383-.531-.904-.531-1.563 0-.656.177-1.174.531-1.554.354-.383.827-.575 1.418-.575s1.064.192 1.418.575c.354.38.532.898.532 1.554 0 .659-.178 1.18-.532 1.563zm-1.418-.125a.952.952 0 00.797-.379c.195-.253.293-.606.293-1.059 0-.45-.099-.802-.297-1.054a.947.947 0 00-.793-.379.96.96 0 00-.797.379c-.195.252-.293.604-.293 1.054 0 .453.098.806.293 1.059a.96.96 0 00.797.379zm3.77-1.254a6.02 6.02 0 01-.074.648 2.766 2.766 0 01-.149.528 1.393 1.393 0 01-.238.402.987.987 0 01-.352.246 1.25 1.25 0 01-.48.086.8.8 0 01-.285-.043v-.742c.07.021.144.031.222.031.188 0 .326-.101.414-.305.089-.203.146-.498.172-.886l.141-2.203h2.848V194h-.84v-3.441h-1.266l-.113 1.57zm6.312 1.379c-.354.38-.827.57-1.418.57s-1.063-.19-1.418-.57c-.354-.383-.531-.904-.531-1.563 0-.656.177-1.174.531-1.554.355-.383.827-.575 1.418-.575s1.064.192 1.418.575c.354.38.532.898.532 1.554 0 .659-.178 1.18-.532 1.563zm-1.418-.125a.952.952 0 00.797-.379c.196-.253.293-.606.293-1.059 0-.45-.099-.802-.297-1.054a.947.947 0 00-.793-.379.96.96 0 00-.797.379c-.195.252-.293.604-.293 1.054 0 .453.098.806.293 1.059a.96.96 0 00.797.379zm5.399-2.824h-1.883V194h-.84v-4.109h2.723v.668zm1.984 2.843c.297 0 .546-.09.746-.269a.868.868 0 00.305-.672v-.324l-1.012.062c-.252.018-.448.081-.586.188a.506.506 0 00-.203.422.53.53 0 00.203.433c.138.107.321.16.547.16zm-.234.668c-.404 0-.733-.114-.989-.343-.252-.23-.378-.528-.378-.895 0-.359.132-.644.398-.855.266-.214.642-.334 1.129-.36l1.125-.066v-.317c0-.229-.073-.407-.219-.535-.146-.13-.347-.195-.605-.195-.24 0-.435.053-.586.16a.697.697 0 00-.281.441h-.797c.023-.38.187-.69.492-.929.305-.24.706-.36 1.203-.36.497 0 .893.123 1.187.368.297.244.446.573.446.984V194h-.809v-.676h-.019a1.31 1.31 0 01-.536.543c-.236.136-.49.203-.761.203z" fill="#0D1C41"/><rect x="136" y="171" width="12" height="9" rx="2" fill="#EB7572"/><path d="M149 174l3-2v7l-3-2v-3z" fill="#EB7572"/><rect x="233.707" y="178.67" width="15.504" height="9" rx="4.5" transform="rotate(-45 233.707 178.67)" stroke="#EA7671"/><path d="M247.852 170.889a4.5 4.5 0 010 6.364l-1.946 1.946-6.364-6.364 1.946-1.946a4.5 4.5 0 016.364 0z" fill="#EB7571" stroke="#EA7671"/><path d="M114.878 262h-3.11v-7.75h3.094c.687 0 1.239.177 1.654.531.415.351.623.818.623 1.402 0 .412-.134.781-.403 1.107-.265.322-.59.515-.977.58v.043c.53.06.956.265 1.278.612.322.344.484.772.484 1.284 0 .684-.235 1.221-.704 1.611-.469.387-1.116.58-1.939.58zm-1.907-6.768v2.315h1.348c.52 0 .919-.103 1.198-.311.279-.208.419-.503.419-.886 0-.358-.118-.634-.354-.828-.237-.193-.573-.29-1.01-.29h-1.601zm0 5.785h1.66c.541 0 .952-.109 1.235-.328.283-.218.425-.537.425-.956 0-.845-.577-1.267-1.73-1.267h-1.59v2.551zm10.581.983v-5.65h1.15V262h-1.15zm-2.9-2.997h-.978v2.084h.978c.333 0 .598-.095.795-.285.2-.193.301-.446.301-.757 0-.315-.101-.568-.301-.757-.201-.19-.466-.285-.795-.285zM118.52 262v-5.65h1.154v1.745h1.08c.655 0 1.176.177 1.563.532.39.351.585.824.585 1.418 0 .598-.195 1.074-.585 1.429-.387.351-.908.526-1.563.526h-2.234zm9.463.107c-.662 0-1.206-.152-1.632-.456a1.65 1.65 0 01-.709-1.235h1.144a.88.88 0 00.397.563c.208.129.475.194.8.194.366 0 .649-.077.849-.231a.73.73 0 00.306-.612c0-.548-.383-.822-1.149-.822h-.827v-.854h.811c.659 0 .988-.247.988-.741a.654.654 0 00-.247-.538c-.165-.136-.407-.204-.725-.204-.312 0-.566.063-.763.188a.75.75 0 00-.354.521h-1.112c.061-.505.288-.902.682-1.192.397-.294.911-.44 1.541-.44.674 0 1.193.139 1.558.419.369.275.553.653.553 1.133 0 .29-.082.546-.247.768a1.134 1.134 0 01-.655.435v.043c.358.082.63.234.816.456.19.222.285.496.285.822 0 .537-.211.969-.634 1.295-.419.325-.977.488-1.676.488zm5.662-4.914h-1.187v1.482h1.074c.655 0 .983-.25.983-.752 0-.232-.076-.411-.226-.537-.15-.129-.365-.193-.644-.193zm-.038 2.293h-1.149v1.671h1.278c.329 0 .58-.07.752-.21.172-.143.258-.351.258-.623 0-.558-.38-.838-1.139-.838zM131.313 262v-5.65h2.568c.551 0 .983.129 1.294.386.315.255.473.605.473 1.053 0 .294-.093.559-.279.795a1.1 1.1 0 01-.682.424v.043c.365.05.658.195.88.435.222.237.333.532.333.887 0 .497-.179.893-.537 1.187-.354.293-.838.44-1.45.44h-2.6zm7.601-.822c.408 0 .75-.123 1.025-.37.28-.251.419-.559.419-.924v-.446l-1.391.086c-.347.025-.616.111-.805.258a.691.691 0 00-.28.58c0 .247.093.446.28.596.189.147.44.22.752.22zm-.323.919c-.555 0-1.008-.158-1.359-.473-.347-.315-.521-.725-.521-1.23 0-.494.183-.886.548-1.176.366-.294.883-.459 1.553-.494l1.546-.092v-.435c0-.315-.1-.56-.3-.736-.201-.179-.478-.268-.833-.268-.329 0-.598.073-.806.22a.957.957 0 00-.386.607h-1.096c.032-.523.258-.949.677-1.278.419-.33.97-.494 1.654-.494.684 0 1.228.168 1.633.504.408.337.612.788.612 1.354V262h-1.112v-.929h-.026a1.81 1.81 0 01-.736.746 2.07 2.07 0 01-1.048.28zm8.352-5.747v.918h-1.772V262h-1.155v-4.732h-1.772v-.918h4.699zm2.981 2.653h-.977v2.084h.977c.333 0 .598-.095.795-.285.201-.193.301-.446.301-.757 0-.315-.1-.568-.301-.757-.2-.19-.465-.285-.795-.285zM147.792 262v-5.65h1.155v1.745h1.079c.656 0 1.177.177 1.563.532.391.351.586.824.586 1.418 0 .598-.195 1.074-.586 1.429-.386.351-.907.526-1.563.526h-2.234zm12.407-3.84h-1.117a1.29 1.29 0 00-.451-.682c-.222-.176-.505-.264-.849-.264a1.29 1.29 0 00-1.079.537c-.269.355-.403.829-.403 1.424 0 .609.134 1.088.403 1.439.272.348.635.521 1.09.521.34 0 .621-.08.843-.241.222-.165.374-.396.457-.693h1.117a2.082 2.082 0 01-.784 1.385c-.437.348-.985.521-1.644.521-.813 0-1.459-.263-1.939-.789s-.719-1.241-.719-2.143c0-.888.239-1.597.719-2.127.484-.534 1.126-.8 1.928-.8.67 0 1.22.182 1.649.547.434.362.693.817.779 1.365zm3.239.843l2.6 2.997h-1.456l-2.24-2.605h-.043V262h-1.154v-5.65h1.154v2.417h.043l2.213-2.417h1.386l-2.503 2.653zm7.568 2.32c-.487.523-1.137.784-1.95.784s-1.463-.261-1.95-.784c-.487-.526-.73-1.242-.73-2.148 0-.903.243-1.615.73-2.138.487-.526 1.137-.789 1.95-.789s1.463.263 1.95.789c.487.523.73 1.235.73 2.138 0 .906-.243 1.622-.73 2.148zm-1.95-.172c.462 0 .827-.173 1.096-.521.268-.347.403-.832.403-1.455 0-.62-.136-1.103-.409-1.45-.268-.348-.632-.521-1.09-.521-.458 0-.823.173-1.096.521-.268.347-.402.83-.402 1.45 0 .623.134 1.108.402 1.455.273.348.638.521 1.096.521zm6.628-4.893c.72 0 1.296.263 1.73.79.433.526.649 1.235.649 2.127 0 .891-.214 1.602-.644 2.132-.43.526-1.001.79-1.713.79a2.08 2.08 0 01-1.069-.274 1.84 1.84 0 01-.709-.752h-.027v2.798h-1.16v-7.519h1.122v.972h.022c.168-.33.41-.589.725-.779.315-.19.673-.285 1.074-.285zm-.306 4.856c.458 0 .822-.174 1.09-.521.269-.351.403-.824.403-1.418 0-.591-.134-1.062-.403-1.413-.268-.351-.632-.526-1.09-.526-.444 0-.802.177-1.074.532-.272.354-.408.823-.408 1.407 0 .587.134 1.058.402 1.412a1.3 1.3 0 001.08.527zm4.098 2.991c-.218 0-.376-.008-.473-.026v-.94c.058.014.183.021.376.021.273 0 .486-.063.64-.188.154-.122.275-.327.365-.618l.054-.177.048-.172-2.041-5.655h1.257l1.434 4.597h.016l1.434-4.597h1.225l-2.122 5.945c-.24.684-.521 1.157-.843 1.418-.323.262-.779.392-1.37.392zm9.824-1.998c-.759 0-1.37-.225-1.832-.676-.462-.455-.725-1.085-.789-1.891h-.94V262h-1.155v-5.65h1.155v2.277h.961c.093-.748.369-1.332.827-1.751.459-.419 1.049-.628 1.773-.628.82 0 1.464.261 1.933.784.473.519.709 1.233.709 2.143 0 .913-.236 1.631-.709 2.154-.469.519-1.113.778-1.933.778zm-1.074-1.482c.254.34.612.51 1.074.51.462 0 .82-.17 1.074-.51.254-.344.381-.827.381-1.45s-.127-1.105-.381-1.445c-.254-.34-.612-.51-1.074-.51-.462 0-.82.17-1.074.51-.251.34-.376.822-.376 1.445 0 .623.125 1.106.376 1.45z" fill="#0D1C41"/><rect x="68.5" y="238.5" width="222" height="39" rx="7.5" stroke="#F1F1F1"/><circle cx="88" cy="258" r="13" fill="#F1F2F4"/><path d="M88 252v12m6-6H82" stroke="#EA7571" stroke-width="2"/><rect x="68" y="287" width="223" height="40" rx="8" fill="#EB7571"/><path d="M113.202 307.541v-1.004h1.042c.444 0 .804-.119 1.08-.355.279-.236.419-.541.419-.913s-.131-.666-.392-.881c-.258-.215-.609-.322-1.053-.322-.451 0-.817.111-1.096.333-.276.218-.431.521-.467.908h-1.139c.04-.695.305-1.243.795-1.644.491-.401 1.139-.601 1.944-.601.763 0 1.386.195 1.87.585.483.387.725.886.725 1.499 0 .433-.135.814-.403 1.144-.265.325-.612.54-1.042.644v.043c.519.065.929.269 1.23.612.301.344.451.779.451 1.306 0 .651-.272 1.197-.816 1.638-.545.437-1.223.655-2.036.655-.842 0-1.529-.208-2.063-.623-.533-.415-.818-.965-.854-1.649h1.161c.035.38.211.684.526.913.319.226.727.338 1.225.338.483 0 .873-.123 1.17-.37.301-.247.452-.568.452-.962 0-.404-.147-.721-.441-.95-.29-.229-.694-.344-1.214-.344h-1.074zm6.966 2.637c.409 0 .751-.123 1.026-.37.28-.251.419-.559.419-.924v-.446l-1.391.086c-.347.025-.616.111-.805.258a.691.691 0 00-.28.58c0 .247.093.446.28.596.189.147.44.22.751.22zm-.322.919c-.555 0-1.008-.158-1.359-.473-.347-.315-.521-.725-.521-1.23 0-.494.183-.886.548-1.176.365-.294.883-.459 1.552-.494l1.547-.092v-.435c0-.315-.1-.56-.301-.736-.2-.179-.478-.268-.832-.268-.329 0-.598.073-.806.22a.957.957 0 00-.386.607h-1.096c.032-.523.258-.949.677-1.278.419-.33.97-.494 1.654-.494.684 0 1.228.168 1.633.504.408.337.612.788.612 1.354V311h-1.112v-.929h-.027a1.8 1.8 0 01-.735.746 2.07 2.07 0 01-1.048.28zm7.799-.097v-4.732h-2.503V311h-1.155v-5.65h4.818V311h-1.16zm3.556 0h-1.144v-5.65h1.144v3.958h.043l2.61-3.958h1.144V311h-1.144v-3.969h-.043l-2.61 3.969zm9.866-3.84h-1.117a1.29 1.29 0 00-.451-.682c-.222-.176-.505-.264-.849-.264a1.29 1.29 0 00-1.079.537c-.269.355-.403.829-.403 1.424 0 .609.134 1.088.403 1.439.272.348.635.521 1.09.521.34 0 .621-.08.843-.241.222-.165.375-.396.457-.693h1.117a2.082 2.082 0 01-.784 1.385c-.437.348-.985.521-1.644.521-.812 0-1.459-.263-1.939-.789-.479-.526-.719-1.241-.719-2.143 0-.888.24-1.597.719-2.127.484-.534 1.127-.8 1.929-.8.669 0 1.219.182 1.649.547.433.362.692.817.778 1.365zm2.928 3.018c.408 0 .75-.123 1.026-.37.279-.251.418-.559.418-.924v-.446l-1.391.086c-.347.025-.616.111-.805.258a.691.691 0 00-.28.58c0 .247.093.446.28.596.189.147.44.22.752.22zm-.323.919c-.555 0-1.008-.158-1.359-.473-.347-.315-.521-.725-.521-1.23 0-.494.183-.886.548-1.176.366-.294.883-.459 1.553-.494l1.546-.092v-.435c0-.315-.1-.56-.3-.736-.201-.179-.478-.268-.833-.268-.329 0-.598.073-.806.22a.957.957 0 00-.386.607h-1.096c.032-.523.258-.949.677-1.278.419-.33.97-.494 1.654-.494.684 0 1.228.168 1.633.504.408.337.612.788.612 1.354V311h-1.112v-.929h-.026a1.81 1.81 0 01-.736.746 2.07 2.07 0 01-1.048.28zm8.352-5.747v.918h-1.772V311h-1.155v-4.732h-1.772v-.918h4.699zm2.981 2.653h-.977v2.084h.977c.333 0 .598-.095.795-.285.201-.193.301-.446.301-.757 0-.315-.1-.568-.301-.757-.2-.19-.465-.285-.795-.285zM152.873 311v-5.65h1.155v1.745h1.079c.656 0 1.177.177 1.563.532.391.351.586.824.586 1.418 0 .598-.195 1.074-.586 1.429-.386.351-.907.526-1.563.526h-2.234zm10.173-3.84h-1.117a1.29 1.29 0 00-.451-.682c-.222-.176-.505-.264-.849-.264a1.29 1.29 0 00-1.08.537c-.268.355-.403.829-.403 1.424 0 .609.135 1.088.403 1.439.272.348.636.521 1.091.521.34 0 .621-.08.843-.241.222-.165.374-.396.456-.693h1.118a2.084 2.084 0 01-.785 1.385c-.436.348-.984.521-1.643.521-.813 0-1.459-.263-1.939-.789s-.72-1.241-.72-2.143c0-.888.24-1.597.72-2.127.483-.534 1.126-.8 1.928-.8.67 0 1.219.182 1.649.547.433.362.693.817.779 1.365zm3.056 1.009h1.026v-1.906h-1.026c-.333 0-.598.089-.795.268-.193.176-.29.416-.29.72 0 .272.099.494.295.666.201.168.464.252.79.252zm1.026 2.831v-1.939h-.859l-1.37 1.939h-1.311l1.542-2.138c-.394-.118-.704-.317-.929-.596a1.568 1.568 0 01-.339-1.01c0-.587.197-1.051.591-1.391.398-.344.928-.515 1.59-.515h2.224V311h-1.139zm8.33 0v-2.46h-2.556V311h-1.155v-5.65h1.155v2.277h2.556v-2.277h1.155V311h-1.155zm4.394-.822c.408 0 .75-.123 1.026-.37.279-.251.419-.559.419-.924v-.446l-1.391.086c-.348.025-.616.111-.806.258a.693.693 0 00-.279.58c0 .247.093.446.279.596.19.147.441.22.752.22zm-.322.919c-.555 0-1.008-.158-1.359-.473-.347-.315-.521-.725-.521-1.23 0-.494.183-.886.548-1.176.365-.294.882-.459 1.552-.494l1.547-.092v-.435c0-.315-.1-.56-.301-.736-.2-.179-.478-.268-.832-.268-.33 0-.598.073-.806.22a.963.963 0 00-.387.607h-1.096c.033-.523.258-.949.677-1.278.419-.33.971-.494 1.655-.494.683 0 1.228.168 1.632.504.409.337.613.788.613 1.354V311h-1.112v-.929h-.027c-.161.311-.406.56-.736.746a2.07 2.07 0 01-1.047.28zm10.033-.097v-4.732h-2.503V311h-1.155v-5.65h4.818V311h-1.16zm5.36-5.742c.72 0 1.297.263 1.73.79.433.526.65 1.235.65 2.127 0 .891-.215 1.602-.645 2.132-.429.526-1.001.79-1.713.79-.401 0-.757-.092-1.069-.274a1.847 1.847 0 01-.709-.752h-.027v2.798h-1.16v-7.519h1.123v.972h.021c.168-.33.41-.589.725-.779.315-.19.673-.285 1.074-.285zm-.306 4.856c.459 0 .822-.174 1.091-.521.268-.351.402-.824.402-1.418 0-.591-.134-1.062-.402-1.413-.269-.351-.632-.526-1.091-.526-.444 0-.802.177-1.074.532-.272.354-.408.823-.408 1.407 0 .587.134 1.058.403 1.412a1.3 1.3 0 001.079.527zm4.829.886h-1.144v-5.65h1.144v3.958h.043l2.61-3.958h1.144V311h-1.144v-3.969h-.043l-2.61 3.969zm8.395-4.41c-.254-.272-.582-.408-.983-.408s-.734.138-.999.414c-.265.272-.412.625-.441 1.058h2.826c-.015-.437-.149-.792-.403-1.064zm.397 2.75h1.101c-.082.52-.347.944-.795 1.273-.447.33-.993.494-1.638.494-.827 0-1.479-.259-1.955-.778-.472-.523-.709-1.232-.709-2.127 0-.888.237-1.603.709-2.143.476-.541 1.112-.811 1.907-.811.781 0 1.4.256 1.858.768.459.508.688 1.192.688 2.051v.398h-3.991v.07c0 .494.138.889.414 1.187.275.297.644.445 1.106.445.326 0 .605-.075.838-.225.233-.15.389-.351.467-.602zm-2.411-4.834a.634.634 0 01-.457-.182.607.607 0 01-.182-.446c0-.176.06-.324.182-.446a.63.63 0 01.457-.182c.175 0 .324.06.445.182.126.122.188.27.188.446a.597.597 0 01-.188.446.607.607 0 01-.445.182zm2.068 0a.632.632 0 01-.457-.182.607.607 0 01-.183-.446c0-.176.061-.324.183-.446a.628.628 0 01.457-.182c.175 0 .324.06.445.182.126.122.188.27.188.446a.597.597 0 01-.188.446.607.607 0 01-.445.182zm3.62 6.494h-1.118v-5.65h1.456l1.81 4.141h.043l1.821-4.141h1.423V311h-1.128v-3.921h-.037l-1.692 3.701h-.849l-1.692-3.701h-.037V311z" fill="#fff"/><circle cx="88" cy="307" r="13" fill="#F1F2F4"/><path d="M92.228 302.742l-8.455 8.516m8.485-.03l-8.516-8.455M88 301v12m6-6H82" stroke="#EA7571" stroke-width="2"/><path d="M114.878 359h-3.11v-7.75h3.094c.687 0 1.239.177 1.654.531.415.351.623.818.623 1.402 0 .412-.134.781-.403 1.107-.265.322-.59.515-.977.58v.043c.53.06.956.265 1.278.612.322.344.484.772.484 1.284 0 .684-.235 1.221-.704 1.611-.469.387-1.116.58-1.939.58zm-1.907-6.768v2.315h1.348c.52 0 .919-.103 1.198-.311.279-.208.419-.503.419-.886 0-.358-.118-.634-.354-.828-.237-.193-.573-.29-1.01-.29h-1.601zm0 5.785h1.66c.541 0 .952-.109 1.235-.328.283-.218.425-.537.425-.956 0-.845-.577-1.267-1.73-1.267h-1.59v2.551zm10.581.983v-5.65h1.15V359h-1.15zm-2.9-2.997h-.978v2.084h.978c.333 0 .598-.095.795-.285.2-.193.301-.446.301-.757 0-.315-.101-.568-.301-.757-.201-.19-.466-.285-.795-.285zM118.52 359v-5.65h1.154v1.745h1.08c.655 0 1.176.177 1.563.532.39.351.585.824.585 1.418 0 .598-.195 1.074-.585 1.429-.387.351-.908.526-1.563.526h-2.234zm9.463.107c-.662 0-1.206-.152-1.632-.456a1.65 1.65 0 01-.709-1.235h1.144a.88.88 0 00.397.563c.208.129.475.194.8.194.366 0 .649-.077.849-.231a.73.73 0 00.306-.612c0-.548-.383-.822-1.149-.822h-.827v-.854h.811c.659 0 .988-.247.988-.741a.654.654 0 00-.247-.538c-.165-.136-.407-.204-.725-.204-.312 0-.566.063-.763.188a.75.75 0 00-.354.521h-1.112c.061-.505.288-.902.682-1.192.397-.294.911-.44 1.541-.44.674 0 1.193.139 1.558.419.369.275.553.653.553 1.133 0 .29-.082.546-.247.768a1.134 1.134 0 01-.655.435v.043c.358.082.63.234.816.456.19.222.285.496.285.822 0 .537-.211.969-.634 1.295-.419.325-.977.488-1.676.488zm5.662-4.914h-1.187v1.482h1.074c.655 0 .983-.25.983-.752 0-.232-.076-.411-.226-.537-.15-.129-.365-.193-.644-.193zm-.038 2.293h-1.149v1.671h1.278c.329 0 .58-.07.752-.21.172-.143.258-.351.258-.623 0-.558-.38-.838-1.139-.838zM131.313 359v-5.65h2.568c.551 0 .983.129 1.294.386.315.255.473.605.473 1.053 0 .294-.093.559-.279.795a1.1 1.1 0 01-.682.424v.043c.365.05.658.195.88.435.222.237.333.532.333.887 0 .497-.179.893-.537 1.187-.354.293-.838.44-1.45.44h-2.6zm7.601-.822c.408 0 .75-.123 1.025-.37.28-.251.419-.559.419-.924v-.446l-1.391.086c-.347.025-.616.111-.805.258a.691.691 0 00-.28.58c0 .247.093.446.28.596.189.147.44.22.752.22zm-.323.919c-.555 0-1.008-.158-1.359-.473-.347-.315-.521-.725-.521-1.23 0-.494.183-.886.548-1.176.366-.294.883-.459 1.553-.494l1.546-.092v-.435c0-.315-.1-.56-.3-.736-.201-.179-.478-.268-.833-.268-.329 0-.598.073-.806.22a.957.957 0 00-.386.607h-1.096c.032-.523.258-.949.677-1.278.419-.33.97-.494 1.654-.494.684 0 1.228.168 1.633.504.408.337.612.788.612 1.354V359h-1.112v-.929h-.026a1.81 1.81 0 01-.736.746 2.07 2.07 0 01-1.048.28zm8.352-5.747v.918h-1.772V359h-1.155v-4.732h-1.772v-.918h4.699zm2.981 2.653h-.977v2.084h.977c.333 0 .598-.095.795-.285.201-.193.301-.446.301-.757 0-.315-.1-.568-.301-.757-.2-.19-.465-.285-.795-.285zM147.792 359v-5.65h1.155v1.745h1.079c.656 0 1.177.177 1.563.532.391.351.586.824.586 1.418 0 .598-.195 1.074-.586 1.429-.386.351-.907.526-1.563.526h-2.234zm9.915-4.807h-1.187v1.482h1.074c.656 0 .983-.25.983-.752 0-.232-.075-.411-.225-.537-.151-.129-.366-.193-.645-.193zm-.038 2.293h-1.149v1.671h1.278c.33 0 .58-.07.752-.21.172-.143.258-.351.258-.623 0-.558-.379-.838-1.139-.838zM155.376 359v-5.65h2.567c.552 0 .983.129 1.295.386.315.255.472.605.472 1.053 0 .294-.093.559-.279.795-.182.233-.41.374-.682.424v.043c.365.05.659.195.881.435.222.237.333.532.333.887 0 .497-.179.893-.537 1.187-.355.293-.838.44-1.45.44h-2.6zm8.567-5.742c.72 0 1.296.263 1.729.79.434.526.65 1.235.65 2.127 0 .891-.215 1.602-.644 2.132-.43.526-1.001.79-1.714.79-.401 0-.757-.092-1.068-.274a1.84 1.84 0 01-.709-.752h-.027v2.798H161v-7.519h1.122v.972h.022c.168-.33.41-.589.725-.779.315-.19.673-.285 1.074-.285zm-.306 4.856c.458 0 .821-.174 1.09-.521.269-.351.403-.824.403-1.418 0-.591-.134-1.062-.403-1.413s-.632-.526-1.09-.526c-.444 0-.802.177-1.075.532-.272.354-.408.823-.408 1.407 0 .587.135 1.058.403 1.412a1.3 1.3 0 001.08.527zm5.666.064c.408 0 .75-.123 1.026-.37.279-.251.419-.559.419-.924v-.446l-1.391.086c-.347.025-.616.111-.806.258a.693.693 0 00-.279.58c0 .247.093.446.279.596.19.147.441.22.752.22zm-.322.919c-.555 0-1.008-.158-1.359-.473-.347-.315-.521-.725-.521-1.23 0-.494.183-.886.548-1.176.365-.294.883-.459 1.552-.494l1.547-.092v-.435c0-.315-.1-.56-.301-.736-.2-.179-.478-.268-.832-.268-.33 0-.598.073-.806.22a.963.963 0 00-.387.607h-1.095c.032-.523.257-.949.676-1.278.419-.33.971-.494 1.655-.494s1.228.168 1.633.504c.408.337.612.788.612 1.354V359h-1.112v-.929h-.027c-.161.311-.406.56-.736.746a2.07 2.07 0 01-1.047.28zm8.701-.097h-1.149v-2.406h-.075c-.341.322-.806.483-1.397.483-.655 0-1.164-.184-1.525-.553-.362-.369-.543-.867-.543-1.493v-1.681h1.155v1.595c0 .358.095.639.285.843.189.201.46.301.811.301.569 0 .999-.172 1.289-.516v-2.223h1.149V359zm3.234-.822c.408 0 .75-.123 1.025-.37.28-.251.419-.559.419-.924v-.446l-1.391.086c-.347.025-.616.111-.805.258a.691.691 0 00-.28.58c0 .247.093.446.28.596.189.147.44.22.752.22zm-.323.919c-.555 0-1.008-.158-1.359-.473-.347-.315-.521-.725-.521-1.23 0-.494.183-.886.548-1.176.365-.294.883-.459 1.552-.494l1.547-.092v-.435c0-.315-.1-.56-.3-.736-.201-.179-.478-.268-.833-.268-.329 0-.598.073-.806.22a.957.957 0 00-.386.607h-1.096c.032-.523.258-.949.677-1.278.419-.33.97-.494 1.654-.494.684 0 1.228.168 1.633.504.408.337.612.788.612 1.354V359h-1.112v-.929h-.027a1.8 1.8 0 01-.735.746 2.07 2.07 0 01-1.048.28zM190.68 359v-2.46h-2.556V359h-1.155v-5.65h1.155v2.277h2.556v-2.277h1.155V359h-1.155zm4.394-.822c.408 0 .75-.123 1.026-.37.279-.251.419-.559.419-.924v-.446l-1.392.086c-.347.025-.615.111-.805.258a.694.694 0 00-.28.58c0 .247.094.446.28.596.19.147.44.22.752.22zm-.323.919c-.555 0-1.008-.158-1.358-.473-.348-.315-.521-.725-.521-1.23 0-.494.182-.886.547-1.176.366-.294.883-.459 1.553-.494l1.547-.092v-.435c0-.315-.101-.56-.301-.736-.201-.179-.478-.268-.833-.268-.329 0-.598.073-.805.22a.959.959 0 00-.387.607h-1.096c.032-.523.258-.949.677-1.278.419-.33.97-.494 1.654-.494.684 0 1.228.168 1.633.504.408.337.612.788.612 1.354V359h-1.111v-.929h-.027c-.161.311-.407.56-.736.746a2.07 2.07 0 01-1.048.28zm10.136-1.015v-3.814h-1.966l-.156 2.159c-.046.724-.193 1.261-.44 1.612v.043h2.562zm-3.212 2.4h-1.069v-2.4h.456c.373-.233.591-.801.656-1.703l.204-3.029h4.12v4.732h.875v2.4h-1.074V359h-4.168v1.482zm10.409-2.159c-.487.523-1.137.784-1.95.784s-1.462-.261-1.949-.784c-.487-.526-.731-1.242-.731-2.148 0-.903.244-1.615.731-2.138.487-.526 1.136-.789 1.949-.789.813 0 1.463.263 1.95.789.487.523.73 1.235.73 2.138 0 .906-.243 1.622-.73 2.148zm-1.95-.172c.462 0 .827-.173 1.096-.521.269-.347.403-.832.403-1.455 0-.62-.136-1.103-.408-1.45-.269-.348-.632-.521-1.091-.521-.458 0-.823.173-1.095.521-.269.347-.403.83-.403 1.45 0 .623.134 1.108.403 1.455.272.348.637.521 1.095.521zm4.797.849h-1.118v-5.65h1.456l1.81 4.141h.043l1.821-4.141h1.423V359h-1.128v-3.921h-.037l-1.692 3.701h-.849l-1.692-3.701h-.037V359z" fill="#0D1C41"/><rect x="68.5" y="335.5" width="222" height="39" rx="7.5" stroke="#F1F1F1"/><circle cx="88" cy="355" r="13" fill="#F1F2F4"/><path d="M88 349l-6 3.667V360h3.75v-4.278h4.5V360H94v-7.333L88 349z" fill="#F4BD7A"/><path d="M115.12 447.121c1.113 0 1.996.359 2.648 1.079.655.72.982 1.696.982 2.927 0 1.232-.325 2.208-.977 2.928-.652.716-1.536 1.074-2.653 1.074-1.118 0-2.002-.358-2.654-1.074-.651-.72-.977-1.696-.977-2.928 0-1.231.326-2.207.977-2.927.652-.72 1.536-1.079 2.654-1.079zm0 1.058c-.738 0-1.323.265-1.757.795-.429.53-.644 1.248-.644 2.153 0 .903.215 1.619.644 2.149.434.53 1.019.795 1.757.795.734 0 1.316-.265 1.745-.795.434-.53.65-1.246.65-2.149 0-.905-.216-1.623-.65-2.153-.429-.53-1.011-.795-1.745-.795zm7.471 5.962v-3.932c-.555.014-.996.197-1.321.548-.323.351-.484.823-.484 1.418 0 .598.161 1.07.484 1.418.325.347.766.53 1.321.548zm2.433-.543c.326-.351.489-.825.489-1.423 0-.598-.163-1.071-.489-1.418-.322-.347-.761-.53-1.316-.548v3.932c.551-.015.99-.196 1.316-.543zm-2.439 1.477c-.905-.018-1.629-.286-2.169-.805-.538-.523-.806-1.221-.806-2.095 0-.87.27-1.567.811-2.09.541-.522 1.262-.791 2.164-.805v-1.762h1.128v1.762c.899.018 1.619.286 2.16.805.54.52.811 1.216.811 2.09 0 .87-.273 1.566-.817 2.089-.541.523-1.258.793-2.154.811v1.794h-1.128v-1.794zm9.48-.752c-.487.523-1.136.784-1.949.784-.813 0-1.463-.261-1.95-.784-.487-.526-.73-1.242-.73-2.148 0-.903.243-1.615.73-2.138.487-.526 1.137-.789 1.95-.789s1.462.263 1.949.789c.487.523.731 1.235.731 2.138 0 .906-.244 1.622-.731 2.148zm-1.949-.172c.462 0 .827-.173 1.095-.521.269-.347.403-.832.403-1.455 0-.62-.136-1.103-.408-1.45-.268-.348-.632-.521-1.09-.521-.459 0-.824.173-1.096.521-.269.347-.403.83-.403 1.45 0 .623.134 1.108.403 1.455.272.348.637.521 1.096.521zm6.628-4.893c.719 0 1.296.263 1.729.79.433.526.65 1.235.65 2.127 0 .891-.215 1.602-.644 2.132-.43.526-1.001.79-1.714.79-.401 0-.757-.092-1.069-.274a1.847 1.847 0 01-.709-.752h-.027v2.798h-1.16v-7.519h1.123v.972h.021c.169-.33.41-.589.725-.779.316-.19.674-.285 1.075-.285zm-.306 4.856c.458 0 .821-.174 1.09-.521.268-.351.403-.824.403-1.418 0-.591-.135-1.062-.403-1.413-.269-.351-.632-.526-1.09-.526-.445 0-.803.177-1.075.532-.272.354-.408.823-.408 1.407 0 .587.134 1.058.403 1.412a1.3 1.3 0 001.08.527zm4.801.886h-1.117v-5.65h1.456l1.81 4.141h.043l1.82-4.141h1.424V455h-1.128v-3.921h-.038l-1.692 3.701h-.848l-1.692-3.701h-.038V455zm7.826 0h-1.144v-5.65h1.144v3.958h.043l2.61-3.958h1.144V455h-1.144v-3.969h-.043l-2.61 3.969zm9.34-5.65v.918h-1.772V455h-1.155v-4.732h-1.772v-.918h4.699zm2.981 2.653h-.977v2.084h.977c.333 0 .598-.095.795-.285.201-.193.301-.446.301-.757 0-.315-.1-.568-.301-.757-.2-.19-.465-.285-.795-.285zM159.254 455v-5.65h1.155v1.745h1.079c.656 0 1.177.177 1.563.532.391.351.586.824.586 1.418 0 .598-.195 1.074-.586 1.429-.386.351-.907.526-1.563.526h-2.234zm11.242 0v-4.732h-2.503V455h-1.155v-5.65h4.818V455h-1.16zm6.794-.677c-.487.523-1.137.784-1.95.784-.812 0-1.462-.261-1.949-.784-.487-.526-.731-1.242-.731-2.148 0-.903.244-1.615.731-2.138.487-.526 1.137-.789 1.949-.789.813 0 1.463.263 1.95.789.487.523.731 1.235.731 2.138 0 .906-.244 1.622-.731 2.148zm-1.95-.172c.462 0 .827-.173 1.096-.521.269-.347.403-.832.403-1.455 0-.62-.136-1.103-.408-1.45-.269-.348-.632-.521-1.091-.521-.458 0-.823.173-1.095.521-.269.347-.403.83-.403 1.45 0 .623.134 1.108.403 1.455.272.348.637.521 1.095.521zm5.183-1.724a7.695 7.695 0 01-.102.892 3.714 3.714 0 01-.204.725 1.904 1.904 0 01-.327.553c-.129.143-.29.256-.484.339-.19.078-.41.118-.66.118a1.12 1.12 0 01-.392-.059v-1.021c.096.029.198.043.306.043.257 0 .447-.14.569-.419.122-.279.201-.686.236-1.219l.194-3.029h3.915V455h-1.155v-4.732h-1.74l-.156 2.159zm5.441 2.573h-1.144v-5.65h1.144v3.958h.043l2.611-3.958h1.144V455h-1.144v-3.969h-.043L185.964 455zm9.867-3.84h-1.117a1.29 1.29 0 00-.451-.682c-.222-.176-.505-.264-.849-.264-.448 0-.807.179-1.08.537-.268.355-.402.829-.402 1.424 0 .609.134 1.088.402 1.439.273.348.636.521 1.091.521.34 0 .621-.08.843-.241.222-.165.374-.396.457-.693h1.117a2.086 2.086 0 01-.784 1.385c-.437.348-.985.521-1.644.521-.813 0-1.459-.263-1.939-.789s-.72-1.241-.72-2.143c0-.888.24-1.597.72-2.127.483-.534 1.126-.8 1.928-.8.67 0 1.22.182 1.649.547.434.362.693.817.779 1.365zm5.511-.967h-1.187v1.482h1.074c.655 0 .983-.25.983-.752 0-.232-.075-.411-.226-.537-.15-.129-.365-.193-.644-.193zm-.038 2.293h-1.149v1.671h1.278c.33 0 .58-.07.752-.21.172-.143.258-.351.258-.623 0-.558-.38-.838-1.139-.838zM199.011 455v-5.65h2.567c.552 0 .983.129 1.295.386.315.255.472.605.472 1.053 0 .294-.093.559-.279.795a1.1 1.1 0 01-.682.424v.043c.365.05.659.195.881.435.222.237.333.532.333.887 0 .497-.179.893-.537 1.187-.355.293-.838.44-1.451.44h-2.599zm11.51 0v-4.732h-2.503V455h-1.155v-5.65h4.818V455h-1.16zm6.794-.677c-.487.523-1.136.784-1.949.784-.813 0-1.463-.261-1.95-.784-.487-.526-.73-1.242-.73-2.148 0-.903.243-1.615.73-2.138.487-.526 1.137-.789 1.95-.789s1.462.263 1.949.789c.487.523.731 1.235.731 2.138 0 .906-.244 1.622-.731 2.148zm-1.949-.172c.462 0 .827-.173 1.095-.521.269-.347.403-.832.403-1.455 0-.62-.136-1.103-.408-1.45-.268-.348-.632-.521-1.09-.521-.459 0-.824.173-1.096.521-.269.347-.403.83-.403 1.45 0 .623.134 1.108.403 1.455.272.348.637.521 1.096.521zm7.03-3.561c-.254-.272-.581-.408-.982-.408s-.734.138-.999.414c-.265.272-.412.625-.441 1.058h2.825c-.014-.437-.148-.792-.403-1.064zm.398 2.75h1.101c-.082.52-.347.944-.795 1.273-.447.33-.994.494-1.638.494-.827 0-1.479-.259-1.955-.778-.473-.523-.709-1.232-.709-2.127 0-.888.236-1.603.709-2.143.476-.541 1.112-.811 1.907-.811.78 0 1.4.256 1.858.768.458.508.687 1.192.687 2.051v.398h-3.99v.07c0 .494.138.889.413 1.187.276.297.645.445 1.107.445.326 0 .605-.075.838-.225.232-.15.388-.351.467-.602zm4.189 1.767c-.662 0-1.206-.152-1.632-.456a1.65 1.65 0 01-.709-1.235h1.144a.88.88 0 00.397.563c.208.129.475.194.8.194.366 0 .649-.077.849-.231a.73.73 0 00.306-.612c0-.548-.383-.822-1.149-.822h-.827v-.854h.811c.659 0 .988-.247.988-.741a.654.654 0 00-.247-.538c-.165-.136-.407-.204-.725-.204-.312 0-.566.063-.763.188a.75.75 0 00-.354.521h-1.112c.061-.505.288-.902.682-1.192.397-.294.911-.44 1.541-.44.674 0 1.193.139 1.558.419.369.275.553.653.553 1.133 0 .29-.082.546-.247.768a1.134 1.134 0 01-.655.435v.043c.358.082.63.234.816.456.19.222.285.496.285.822 0 .537-.211.969-.634 1.295-.419.325-.977.488-1.676.488zm7.09-1.025v-3.814h-1.966l-.155 2.159c-.047.724-.194 1.261-.441 1.612v.043h2.562zm-3.212 2.4h-1.069v-2.4h.457c.372-.233.591-.801.655-1.703l.204-3.029h4.12v4.732h.876v2.4h-1.075V455h-4.168v1.482zm8.32-4.479l2.6 2.997h-1.456l-2.24-2.605h-.043V455h-1.154v-5.65h1.154v2.417h.043l2.213-2.417h1.386l-2.503 2.653zm3.781 5.102c-.218 0-.376-.008-.472-.026v-.94c.057.014.182.021.376.021.272 0 .485-.063.639-.188.154-.122.276-.327.365-.618l.054-.177.048-.172-2.041-5.655h1.257l1.434 4.597h.016l1.434-4.597h1.225l-2.122 5.945c-.24.684-.521 1.157-.843 1.418-.322.262-.779.392-1.37.392z" fill="#0D1C41"/><rect x="68.5" y="431.5" width="222" height="39" rx="7.5" stroke="#F1F1F1"/><circle cx="88" cy="451" r="13" fill="#F1F2F4"/><path d="M91.95 456.741l.719-1.08-2.792-5.752 1.975-2.969a.971.971 0 10-1.62-1.077l-1.974 2.969-6.384-.355-.719 1.08 5.486 1.703-1.976 2.969-1.888-.088-.538.809 2.518.897 1.8 1.977.538-.81-.81-1.707 1.975-2.969 3.69 4.403z" fill="#5E78A7"/><path d="M117.708 407h-1.203v-3.373h-.075a2.785 2.785 0 01-.784.408 3.213 3.213 0 01-1.047.161c-.627 0-1.168-.127-1.622-.381a2.463 2.463 0 01-1.01-1.021c-.219-.426-.328-.911-.328-1.455v-2.089h1.203v2.046c0 .573.161 1.02.484 1.343.322.322.782.483 1.38.483a2.78 2.78 0 001.053-.188c.308-.125.557-.283.746-.473v-3.211h1.203V407zm3.374-.822c.408 0 .75-.123 1.025-.37.28-.251.419-.559.419-.924v-.446l-1.391.086c-.347.025-.616.111-.805.258a.691.691 0 00-.28.58c0 .247.093.446.28.596.189.147.44.22.752.22zm-.323.919c-.555 0-1.008-.158-1.359-.473-.347-.315-.521-.725-.521-1.23 0-.494.183-.886.548-1.176.365-.294.883-.459 1.552-.494l1.547-.092v-.435c0-.315-.1-.56-.3-.736-.201-.179-.478-.268-.833-.268-.329 0-.598.073-.806.22a.957.957 0 00-.386.607h-1.096c.032-.523.258-.949.677-1.278.419-.33.97-.494 1.654-.494.684 0 1.228.168 1.633.504.408.337.612.788.612 1.354V407h-1.112v-.929h-.027a1.8 1.8 0 01-.735.746 2.07 2.07 0 01-1.048.28zm8.352-5.747v.918h-1.772V407h-1.155v-4.732h-1.772v-.918h4.699zm7.907 1.81H135.9a1.285 1.285 0 00-.451-.682c-.222-.176-.505-.264-.848-.264a1.29 1.29 0 00-1.08.537c-.269.355-.403.829-.403 1.424 0 .609.134 1.088.403 1.439.272.348.636.521 1.09.521.34 0 .622-.08.844-.241.222-.165.374-.396.456-.693h1.117a2.078 2.078 0 01-.784 1.385c-.437.348-.985.521-1.643.521-.813 0-1.46-.263-1.939-.789-.48-.526-.72-1.241-.72-2.143 0-.888.24-1.597.72-2.127.483-.534 1.126-.8 1.928-.8.669 0 1.219.182 1.649.547.433.362.693.817.779 1.365zm5.51-.967h-1.187v1.482h1.075c.655 0 .982-.25.982-.752 0-.232-.075-.411-.225-.537-.151-.129-.365-.193-.645-.193zm-.037 2.293h-1.15v1.671h1.279c.329 0 .58-.07.752-.21.171-.143.257-.351.257-.623 0-.558-.379-.838-1.138-.838zM140.197 407v-5.65h2.568c.551 0 .983.129 1.294.386.315.255.473.605.473 1.053 0 .294-.093.559-.28.795-.182.233-.41.374-.682.424v.043c.366.05.659.195.881.435.222.237.333.532.333.887 0 .497-.179.893-.537 1.187-.354.293-.838.44-1.45.44h-2.6zm8.567-5.742c.72 0 1.296.263 1.73.79.433.526.65 1.235.65 2.127 0 .891-.215 1.602-.645 2.132-.43.526-1.001.79-1.713.79a2.08 2.08 0 01-1.069-.274 1.847 1.847 0 01-.709-.752h-.027v2.798h-1.16v-7.519h1.122v.972h.022c.168-.33.41-.589.725-.779.315-.19.673-.285 1.074-.285zm-.306 4.856c.458 0 .822-.174 1.09-.521.269-.351.403-.824.403-1.418 0-.591-.134-1.062-.403-1.413-.268-.351-.632-.526-1.09-.526-.444 0-.802.177-1.074.532-.272.354-.408.823-.408 1.407 0 .587.134 1.058.402 1.412a1.3 1.3 0 001.08.527zm5.667.064c.408 0 .75-.123 1.025-.37.28-.251.419-.559.419-.924v-.446l-1.391.086c-.347.025-.616.111-.805.258a.691.691 0 00-.28.58c0 .247.093.446.28.596.189.147.44.22.752.22zm-.323.919c-.555 0-1.008-.158-1.359-.473-.347-.315-.521-.725-.521-1.23 0-.494.183-.886.548-1.176.365-.294.883-.459 1.552-.494l1.547-.092v-.435c0-.315-.1-.56-.3-.736-.201-.179-.478-.268-.833-.268-.329 0-.598.073-.806.22a.957.957 0 00-.386.607h-1.096c.032-.523.258-.949.677-1.278.419-.33.97-.494 1.654-.494.684 0 1.228.168 1.633.504.408.337.612.788.612 1.354V407h-1.112v-.929h-.027a1.8 1.8 0 01-.735.746 2.07 2.07 0 01-1.048.28zm8.701-.097h-1.149v-2.406h-.075c-.34.322-.806.483-1.397.483-.655 0-1.163-.184-1.525-.553-.362-.369-.543-.867-.543-1.493v-1.681h1.155v1.595c0 .358.095.639.285.843.19.201.46.301.811.301.569 0 .999-.172 1.289-.516v-2.223h1.149V407zm5.635-.677c-.487.523-1.137.784-1.95.784s-1.463-.261-1.95-.784c-.487-.526-.73-1.242-.73-2.148 0-.903.243-1.615.73-2.138.487-.526 1.137-.789 1.95-.789s1.463.263 1.95.789c.487.523.73 1.235.73 2.138 0 .906-.243 1.622-.73 2.148zm-1.95-.172c.462 0 .827-.173 1.096-.521.268-.347.403-.832.403-1.455 0-.62-.137-1.103-.409-1.45-.268-.348-.632-.521-1.09-.521-.458 0-.824.173-1.096.521-.268.347-.403.83-.403 1.45 0 .623.135 1.108.403 1.455.272.348.638.521 1.096.521zm4.796.849h-1.117v-5.65h1.456l1.81 4.141h.043l1.821-4.141h1.423V407h-1.128v-3.921h-.038l-1.692 3.701h-.848l-1.692-3.701h-.038V407z" fill="#0D1C41"/><rect x="68.5" y="383.5" width="222" height="39" rx="7.5" stroke="#F1F1F1"/><circle cx="88" cy="403" r="13" fill="#F1F2F4"/><path d="M93.6 397H82.4c-.77 0-1.393.63-1.393 1.4L81 411l2.8-2.8h9.8c.77 0 1.4-.63 1.4-1.4v-8.4c0-.77-.63-1.4-1.4-1.4zm-7.7 6.3h-1.4v-1.4h1.4v1.4zm2.8 0h-1.4v-1.4h1.4v1.4zm2.8 0h-1.4v-1.4h1.4v1.4z" fill="#7AB8B8"/></g><path d="M275.5 33a2.5 2.5 0 012.5-2.5h9.409a2.5 2.5 0 012.5 2.5v2a2.5 2.5 0 01-2.5 2.5H278a2.5 2.5 0 01-2.5-2.5v-2z" stroke="#000" stroke-opacity=".4"/><path d="M291.096 32.667v2.666c.547-.225.903-.75.903-1.333 0-.582-.356-1.108-.903-1.333z" fill="#000" fill-opacity=".4"/><rect x="276.36" y="31.333" width="12.689" height="5.333" rx="2" fill="#000"/><path fill-rule="evenodd" clip-rule="evenodd" d="M266.644 31.385c1.347 0 2.643.518 3.62 1.446.073.072.191.07.263-.002l.703-.71a.196.196 0 00-.002-.277 6.625 6.625 0 00-9.169 0 .196.196 0 00-.002.277l.703.71c.072.073.19.074.263.002a5.256 5.256 0 013.621-1.446zm0 2.308c.74 0 1.454.275 2.003.772.074.07.191.069.263-.003l.702-.71a.194.194 0 00.057-.14.193.193 0 00-.06-.139 4.353 4.353 0 00-5.93 0 .197.197 0 00-.06.14.2.2 0 00.058.14l.702.709a.188.188 0 00.263.003 2.983 2.983 0 012.002-.772zm1.406 1.553a.19.19 0 01-.057.14l-1.214 1.226a.19.19 0 01-.27 0l-1.215-1.226a.19.19 0 01.006-.278 2.08 2.08 0 012.687 0 .19.19 0 01.063.138zM257.471 31h-.53c-.292 0-.529.252-.529.562v4.874c0 .31.237.562.529.562h.53c.292 0 .529-.252.529-.562v-4.874c0-.31-.237-.562-.529-.562zm-3.002 1.408h.529a.54.54 0 01.53.551v3.488a.54.54 0 01-.53.551h-.529a.54.54 0 01-.53-.55v-3.489a.54.54 0 01.53-.55zm-1.938 1.414h-.529a.53.53 0 00-.53.53v2.117c0 .292.237.53.53.53h.529a.53.53 0 00.53-.53V34.35a.53.53 0 00-.53-.53zm-2.472 1.059h-.53a.53.53 0 00-.529.529v1.059c0 .292.237.53.529.53h.53a.53.53 0 00.529-.53V35.41a.53.53 0 00-.529-.53z" fill="#000"/><path d="M79.184 30.024c-1.476 0-2.528 1.01-2.528 2.391v.01c0 1.292.915 2.245 2.222 2.245.934 0 1.528-.477 1.778-1.014h.094c0 .052-.004.104-.004.155-.052 1.302-.51 2.359-1.59 2.359-.599 0-1.019-.312-1.198-.788l-.014-.047h-1.198l.01.052c.216 1.042 1.15 1.783 2.4 1.783 1.712 0 2.745-1.359 2.745-3.651v-.01c0-2.452-1.264-3.485-2.717-3.485zm-.004 3.712c-.774 0-1.335-.566-1.335-1.354v-.01c0-.759.599-1.358 1.349-1.358.755 0 1.344.609 1.344 1.387v.01c0 .768-.59 1.325-1.358 1.325zm4.583-1.146c.434 0 .75-.33.75-.746a.73.73 0 00-.75-.745c-.43 0-.75.326-.75.745 0 .416.32.746.75.746zm0 3.5a.73.73 0 00.75-.746.73.73 0 00-.75-.745c-.43 0-.75.326-.75.745 0 .42.32.746.75.746zm5.163.91h1.165v-1.307h.915V34.69h-.915v-4.495h-1.722a90.577 90.577 0 00-2.773 4.504v.995h3.33V37zm-2.198-2.283v-.07a70.392 70.392 0 012.146-3.482h.07v3.552h-2.216zM93.547 37h1.217v-6.806H93.55l-1.778 1.25v1.146l1.694-1.198h.08V37z" fill="#000"/></g><path stroke="#0D1C41" stroke-width="5" stroke-linecap="round" d="M2.5 478.5h346"/><defs><clipPath id="clip0_4618_236"><path fill="#fff" transform="translate(55 59)" d="M0 0h250v422H0z"/></clipPath><filter id="filter0_dd_4618_236" x="41" y="0" width="278" height="488" filterUnits="userSpaceOnUse" color-interpolation-filters="sRGB"><feFlood flood-opacity="0" result="BackgroundImageFix"/><feColorMatrix in="SourceAlpha" values="0 0 0 0 0 0 0 0 0 0 0 0 0 0 0 0 0 0 127 0" result="hardAlpha"/><feOffset dx="-2" dy="-2"/><feGaussianBlur stdDeviation="2.5"/><feColorMatrix values="0 0 0 0 0.0791667 0 0 0 0 0.114 0 0 0 0 0.2375 0 0 0 0.15 0"/><feBlend in2="BackgroundImageFix" result="effect1_dropShadow_4618_236"/><feColorMatrix in="SourceAlpha" values="0 0 0 0 0 0 0 0 0 0 0 0 0 0 0 0 0 0 127 0" result="hardAlpha"/><feOffset dx="2" dy="2"/><feGaussianBlur stdDeviation="2.5"/><feColorMatrix values="0 0 0 0 0.0784314 0 0 0 0 0.113725 0 0 0 0 0.239216 0 0 0 0.15 0"/><feBlend in2="effect1_dropShadow_4618_236" result="effect2_dropShadow_4618_236"/><feBlend in="SourceGraphic" in2="effect2_dropShadow_4618_236" result="shape"/></filter></defs></svg>