<svg width="30" height="30" fill="none" xmlns="http://www.w3.org/2000/svg"><rect width="30" height="30" rx="5" fill="#fff"/><g clip-path="url(#clip0_36_49)"><path d="M17.542 9.167a4.167 4.167 0 013.291 3.291m-3.291-6.625a7.5 7.5 0 016.625 6.617m-.834 6.65v2.5a1.666 1.666 0 01-1.816 1.667 16.49 16.49 0 01-7.192-2.559 16.25 16.25 0 01-5-5 16.492 16.492 0 01-2.558-7.225 1.667 1.667 0 011.658-1.816h2.5A1.667 1.667 0 0112.592 8.1c.105.8.301 1.586.583 2.342A1.667 1.667 0 0112.8 12.2l-1.058 1.058a13.333 13.333 0 005 5L17.8 17.2a1.666 1.666 0 011.758-.375 10.68 10.68 0 002.342.583 1.667 1.667 0 011.433 1.692z" stroke="#17181C" stroke-width="2" stroke-linecap="round" stroke-linejoin="round"/></g><defs><clipPath id="clip0_36_49"><path fill="#fff" transform="translate(5 5)" d="M0 0h20v20H0z"/></clipPath></defs></svg>