<svg width="20" height="20" fill="none" xmlns="http://www.w3.org/2000/svg"><g clip-path="url(#clip0_16_135)"><path d="M12.542 4.167a4.167 4.167 0 013.291 3.292M12.542.832a7.5 7.5 0 016.625 6.617m-.834 6.65v2.5a1.667 1.667 0 01-1.816 1.667 16.492 16.492 0 01-7.192-2.558 16.25 16.25 0 01-5-5 16.492 16.492 0 01-2.558-7.226 1.667 1.667 0 011.658-1.816h2.5A1.667 1.667 0 017.592 3.1c.105.8.301 1.586.583 2.342A1.667 1.667 0 017.8 7.2L6.742 8.258a13.333 13.333 0 005 5L12.8 12.2a1.667 1.667 0 011.758-.375c.757.282 1.542.478 2.342.584a1.667 1.667 0 011.433 1.691z" stroke="#fff" stroke-width="2" stroke-linecap="round" stroke-linejoin="round"/></g><defs><clipPath id="clip0_16_135"><path fill="#fff" d="M0 0h20v20H0z"/></clipPath></defs></svg>