<svg width="12" height="12" fill="none" xmlns="http://www.w3.org/2000/svg"><g clip-path="url(#clip0_9_26)"><path d="M9.334 5.532L3.994.192A.652.652 0 003.528 0a.652.652 0 00-.464.192l-.393.393a.657.657 0 000 .928l4.484 4.485-4.49 4.489a.652.652 0 00-.19.464c0 .176.067.34.19.464l.394.393a.652.652 0 00.464.192.65.65 0 00.464-.192l5.346-5.345a.653.653 0 00.191-.465.652.652 0 00-.191-.466z" fill="#000"/></g><defs><clipPath id="clip0_9_26"><path fill="#fff" d="M0 0h12v12H0z"/></clipPath></defs></svg>