<svg width="574" height="574" fill="none" xmlns="http://www.w3.org/2000/svg"><g filter="url(#filter0_dd_60_2047)"><path opacity=".9" d="M111.356 145.922c73.116-61.728 210.555-63.99 256.796 30.135 10.332 20.928 9.873 45.748 26.209 64.288 13.386 15.154 44.072 15.177 67.537 32.029 44.955 32.294 55.046 113.457-11.916 133.547-48.136 14.454-102.356-27.379-144.155-41.546-50.512-17.139-94.136 2.239-144.361-8.621-98.487-21.353-125.798-145.957-50.11-209.832z" fill="#4A607A"/><path d="M287 490.839c-122.931 0-222.586-5.818-222.586-12.995 0-7.178 99.655-12.996 222.586-12.996 122.931 0 222.586 5.818 222.586 12.996 0 7.177-99.655 12.995-222.586 12.995z" fill="#193554"/><path d="M304.025 209.292a367.207 367.207 0 005.43 18.735 304.461 304.461 0 003.054 9.31c1.056 3.1 2.169 6.188 3.444 9.345l.309.769c.138.345.287.643.437.953.3.572.629 1.127.987 1.665a18.997 18.997 0 002.147 2.629 34 34 0 004.465 3.8 62.806 62.806 0 009.104 5.303 109.842 109.842 0 0018.85 6.969l2.423-6.314c-2.721-1.504-5.545-3.042-8.243-4.661-2.698-1.619-5.396-3.226-7.944-4.948a63.844 63.844 0 01-7.083-5.338 21.178 21.178 0 01-2.664-2.767 9.477 9.477 0 01-.803-1.217 2.584 2.584 0 01-.196-.436.866.866 0 010-.161v-.092l-.08-.275c-1.791-5.924-3.444-12.192-5.154-18.368-1.711-6.176-3.444-12.399-5.235-18.552l-13.248 3.651z" fill="#FBCA91"/><path d="M301.029 202.599c-3.973 8.036 8.736 34.291 8.736 34.291l16.267-6.452a92.987 92.987 0 00-4.592-23.408c-4.121-11.434-16.003-13.328-20.411-4.431z" fill="#0D1C41"/><path opacity=".2" d="M300.627 203.621c3.846-1.286 7.749.654 11.009 8.036 3.26 7.381 5.212 19.183 5.074 22.535l-6.888 2.744s-11.939-24.395-9.195-33.315z" fill="#000"/><path d="M353.067 262.054l6.314.149a5.736 5.736 0 015.289 3.936 5.74 5.74 0 01.268 2.309 5.734 5.734 0 01-3.327 4.654 5.739 5.739 0 01-5.697-.532 27.946 27.946 0 01-4.947-4.363l2.1-6.153z" fill="#FBCA91"/><path d="M354.261 262.042a30.53 30.53 0 00-2.87 6.521.603.603 0 01-.665.413 15.054 15.054 0 01-5.58-1.894.556.556 0 01-.172-.551c.563-2.422 2.927-7.565 4.259-7.588 1.091 0 3.743 1.584 4.856 2.296a.565.565 0 01.262.593.554.554 0 01-.09.21zm-41.442-64.448s7.542 29.343-9.184 80.245l-49.617-6.027c.585-7.657 9.884-44.232 6.888-81.003a129.822 129.822 0 0116.864-.08 182.946 182.946 0 0121.089 2.56 93.81 93.81 0 0113.96 4.305z" fill="#0D1C41"/><path d="M290.605 218.327a.146.146 0 00.051-.023.149.149 0 00.038-.041.139.139 0 00.014-.109c-1.458-5.2.861-7.634 4.385-11.342a49.982 49.982 0 008.496-11.227c5.808-10.734.149-15.028-3.594-17.863a17.687 17.687 0 01-2.055-1.711.142.142 0 00-.099-.044.151.151 0 00-.055.009.14.14 0 00-.046.03.135.135 0 00-.045.099c0 .019.003.037.009.055a.157.157 0 00.03.047 17.957 17.957 0 002.078 1.745c3.673 2.778 9.184 6.979 3.524 17.495a49.352 49.352 0 01-8.415 11.193c-3.593 3.765-5.958 6.257-4.454 11.606a.15.15 0 00.138.081z" fill="#fff"/><path d="M282.741 167.229c.505 6.945.321 19.516-4.971 23.5a65.256 65.256 0 0116.566 13.845c2.468-3.938 4.465-7.784 4.523-11.285-7.347-2.733-6.475-8.323-4.512-13.432l-11.606-12.628z" fill="#FBCA91"/><path opacity=".2" d="M287.471 172.384l6.888 7.462a23.128 23.128 0 00-1.148 3.673c-2.836-.769-6.429-4.431-6.36-7.496a9.992 9.992 0 01.62-3.639z" fill="#000"/><path d="M307.343 146.301c6.612 3.8 1.871 19.298-1.435 20.492-6.2 2.227-6.774-25.199 1.435-20.492z" fill="#0D1C41"/><path d="M283.177 156.92c-.551 9.253-1.343 14.649 2.721 19.929 6.119 7.945 17.978 5.109 21.284-3.799 2.973-8.036 3.375-21.812-5.178-26.554a12.631 12.631 0 00-16.943 4.339 12.628 12.628 0 00-1.884 6.085z" fill="#FBCA91"/><path d="M276.599 148.792c-.884 5.373 3.444 20.515 7.37 20.664 3.926.15 6.05-8.128 5.029-15.934 3.708-.631 26.335 2.296 23.465-7.336-2.652-8.885-15.889-4.718-24.923-10.573-.689 3.525 3.237 6.705 1.285 6.131-8.036-2.377-11.365 2.686-16.979.126a9.996 9.996 0 004.753 6.922z" fill="#0D1C41"/><path d="M277.816 166.54a8.842 8.842 0 004.982 4.592c2.916 1.022 4.592-1.538 3.938-4.396-.586-2.572-2.801-6.211-5.809-5.993-3.008.218-4.328 3.203-3.111 5.797z" fill="#FFDBB1"/><path d="M303.623 277.816s17.668 58.651 19.746 87.087c2.158 29.584 9.356 104.377 9.356 104.377l-7.256 2.181s-24.647-68.88-25.611-97.971c-.632-19.045-34.75-100.346-34.75-100.346l38.515 4.672z" fill="#FBCA91"/><path d="M327.088 477.706a1.377 1.377 0 01-1.94-.942m1.94.942l-3.708-9.265 1.768 8.323m1.94.942c1.374-.654 2.44-1.198 3.519-1.749 1.518-.775 3.06-1.562 5.516-2.682l-9.035 4.431zm-1.94-.942l.488-.109v.003m-.488.106l.489-.103-.001-.003m0 0a.889.889 0 00.473.595.869.869 0 00.763.002l.001-.001c1.367-.65 2.427-1.191 3.505-1.741l.665-.339a117.167 117.167 0 014.872-2.354h0l.005-.002c1.004-.447 2.983-1.298 5.241-2.27 3.603-1.55 7.917-3.406 10.114-4.41 1.616-.737 2.091-1.899 2.058-2.775-.018-.453-.169-.825-.363-1.053-.189-.223-.387-.283-.567-.245m-26.767 14.593l-1.767-8.32-.001-.004a.305.305 0 01.174-.342l.005-.003h0l9.55-4.361 18.806-1.563m0 0c-3.617.778-7.218 1.387-10.294 1.685-3.048.296-5.66.294-7.248-.204a1.802 1.802 0 00-1.264.081l18.806-1.562z" fill="#fff" stroke="#4A607A"/><path d="M338.385 461.117a1.576 1.576 0 00-.092-.195.748.748 0 00-.643-.436c-1.148-.058-3.031 2.686-3.444 3.237a.264.264 0 000 .287.236.236 0 00.113.101c.047.021.1.026.151.014 1.148-.23 3.295-.792 3.834-1.917a1.338 1.338 0 00.081-1.091zm-3.307 2.354c.838-1.148 1.998-2.48 2.549-2.457.057 0 .126 0 .195.149a.9.9 0 01.069.827 4.378 4.378 0 01-2.813 1.481z" fill="#4A607A"/><path d="M335.698 459.785l-.103-.195a.798.798 0 00-.422-.284.797.797 0 00-.508.032 1.268 1.268 0 00-.769.677c-.62 1.274.298 3.834.333 3.938a.24.24 0 00.206.172.264.264 0 00.253-.103c.62-.827 1.412-3.203 1.01-4.237zm-1.148 3.444a5.226 5.226 0 01-.184-2.996.776.776 0 01.448-.402c.253-.08.322 0 .345.058.333.459-.069 2.284-.609 3.352v-.012z" fill="#4A607A"/><path d="M303.623 277.816s7.347 22.96 9.632 33.613c-4.661.402-26.542 7.084-30.916 9.758-2.675-4.856-15.659-47.86-15.659-47.86l36.943 4.489z" fill="#A89060"/><path opacity=".2" d="M280.652 289.101c1.354 5.131 3.134 17.782-.701 26.014-1.71-4.856-3.949-11.79-6.118-18.61 2.227-4.615 5.831-11.158 6.819-7.404z" fill="#000"/><path d="M313.404 307.905a14.252 14.252 0 011.148 4.891c-3.582.688-27.012 7.955-31.317 10.24-2.09-1.539-2.4-4.856-2.515-4.81-.114.046 19.459-8.496 32.684-10.321z" fill="#4A607A"/><path opacity=".2" d="M313.404 307.905a14.252 14.252 0 011.148 4.891c-3.582.688-27.012 7.955-31.317 10.24-2.09-1.539-2.4-4.856-2.515-4.81-.114.046 19.459-8.496 32.684-10.321z" fill="#fff"/><path d="M289.973 276.186s-28.022 75.332-42.005 99.807c-14.832 26.06-76.686-22.007-76.686-22.007l5.556-5.821s36.288 15.751 50.627 14.603c14.097-26.404 26.541-90.968 26.541-90.968l35.967 4.386z" fill="#FBCA91"/><path d="M290.88 276.289s-13.167 33.947-16.416 44.313c-4.259-1.952-27.127-6.888-32.248-6.739.069-5.556 11.79-42.051 11.79-42.051l36.874 4.477z" fill="#A89060"/><path d="M264.557 276.347a.173.173 0 00.084-.032.153.153 0 00.053-.072c3.089-9.987 9.919-17.576 15.946-24.268 7.313-8.128 13.627-15.143 12.628-24.545-.723-7.094-3.444-11.273-5.866-14.924-3.444-5.258-6.153-9.413-.85-19.596 7.967-15.269-.643-22.696-3.88-25.486a13.026 13.026 0 01-.987-.907.139.139 0 00-.098-.04.139.139 0 00-.053.01.15.15 0 00-.044.03.15.15 0 000 .207c.206.23.562.54 1.021.941 3.192 2.744 11.664 10.068 3.812 25.142-5.373 10.332-2.618 14.545.861 19.883 2.399 3.662 5.108 7.806 5.832 14.821.952 9.275-5.327 16.255-12.628 24.326-6.039 6.716-12.892 14.327-16.004 24.383-.005.018-.007.036-.005.054a.132.132 0 00.016.051c.008.016.02.031.034.042.014.012.03.02.047.025l.081-.045z" fill="#fff"/><path d="M279.837 166.586a1.405 1.405 0 00.796.895 1.406 1.406 0 001.197-.049 1.398 1.398 0 00.44-2.12 1.572 1.572 0 00-2.02-.873 1.563 1.563 0 00-.413 2.147zm-12.426 109.488l-9.143-1.634a.733.733 0 00-.853.594l-.753 4.215 10.589 1.892.754-4.215a.73.73 0 00-.328-.748.728.728 0 00-.266-.104z" fill="#fff"/><path d="M275.887 317.342a14.125 14.125 0 01-1.412 4.81c-3.444-1.148-27.437-6.395-32.304-6.532-1.068-2.365.298-5.407.183-5.419-.115-.011 21.181 2.239 33.533 7.141z" fill="#4A607A"/><path opacity=".2" d="M275.887 317.342a14.125 14.125 0 01-1.412 4.81c-3.444-1.148-27.437-6.395-32.304-6.532-1.068-2.365.298-5.407.183-5.419-.115-.011 21.181 2.239 33.533 7.141z" fill="#fff"/><path d="M152.68 362.223c3.272-1.729 6.577-3.282 9.459-4.392 2.856-1.099 5.37-1.793 7.032-1.739.435.008.859-.142 1.191-.422h.001l8.031-6.758a.34.34 0 00.077-.403l-3.934-7.536a.88.88 0 00-1.352-.239h0l-.002.002a132.97 132.97 0 00-2.903 2.614l-.553.509a122.382 122.382 0 01-4.058 3.575l-.002.001c-.96.804-3.004 2.451-5.245 4.256l-.954.768c-2.603 2.098-5.302 4.278-6.795 5.537-1.355 1.142-1.501 2.391-1.235 3.227.138.433.384.751.631.918.241.163.447.168.611.082zm0 0l.234.442m-.234-.442v-.001l.234.443m0 0c-1.458.769-3.559-2.526-.563-5.052 1.683-1.418 4.886-3.998 7.757-6.311 2.242-1.807 4.282-3.45 5.238-4.25l5.339 9c-.427.36-.97.551-1.527.54-3.1-.104-9.724 2.629-16.244 6.073z" fill="#fff" stroke="#4A607A"/><path d="M166.46 359.324l.138.161a.77.77 0 00.734.252c1.148-.264 2.193-3.444 2.4-4.029a.26.26 0 00-.081-.287.263.263 0 00-.287 0c-1.148.551-2.961 1.653-3.18 2.87a1.324 1.324 0 00.276 1.033zm2.549-3.157c-.494 1.355-1.263 2.928-1.791 3.054a.25.25 0 01-.241-.092.889.889 0 01-.276-.781c.092-.585.907-1.32 2.285-2.135l.023-.046z" fill="#4A607A"/><path d="M169.387 359.921a.513.513 0 00.15.161.755.755 0 00.964 0 1.252 1.252 0 00.551-.85c.264-1.4-1.309-3.616-1.378-3.719a.268.268 0 00-.252-.104.284.284 0 00-.207.161c-.379.976-.459 3.479.172 4.351zm.173-3.628c.596.83.935 1.816.975 2.836a.741.741 0 01-.321.505c-.218.149-.31.08-.345 0-.447-.31-.539-2.17-.309-3.341z" fill="#4A607A"/><path d="M296.804 161.179c-.092.746.23 1.401.712 1.458.482.058.964-.494 1.056-1.24.092-.746-.23-1.412-.723-1.469-.494-.058-.953.505-1.045 1.251zm8.449 1.022c-.092.758.241 1.412.723 1.469.483.058.965-.505 1.057-1.251.091-.746-.241-1.4-.724-1.458-.482-.057-.941.494-1.056 1.24z" fill="#806838"/><path d="M302.521 162.247a27.266 27.266 0 002.801 6.888 4.363 4.363 0 01-3.662.229l.861-7.117z" fill="#BC8F63"/><path d="M299.261 171.121a.218.218 0 00.21-.281.229.229 0 00-.039-.076.227.227 0 00-.148-.079 5.952 5.952 0 01-4.592-2.905.229.229 0 00-.052-.071.228.228 0 00-.162-.056.208.208 0 00-.085.024.241.241 0 00-.103.298 6.31 6.31 0 004.902 3.146h.069zm-4.627-12.973a.439.439 0 00.322-.137 3.527 3.527 0 012.996-1.148.45.45 0 00.406-.676.454.454 0 00-.245-.197 4.425 4.425 0 00-3.8 1.378.457.457 0 000 .631.49.49 0 00.321.149zm14.729 1.608h.149a.448.448 0 00.276-.563 4.409 4.409 0 00-2.859-2.858.42.42 0 00-.338.046.436.436 0 00-.201.275.45.45 0 00.321.54 3.449 3.449 0 012.296 2.296.433.433 0 00.356.264z" fill="#806838"/><path d="M253.249 197.295a208.35 208.35 0 00-7.554 16.658 137.855 137.855 0 00-3.192 8.69 81.08 81.08 0 00-2.583 9.322c-.16.838-.309 1.71-.436 2.617a27.818 27.818 0 00-.229 3.065 10.619 10.619 0 001.262 5.075 10.849 10.849 0 003.054 3.512 16.93 16.93 0 005.993 2.779 32.08 32.08 0 005.235.861 66.214 66.214 0 0018.93-1.493l-.608-6.727-4.282-.367c-1.435-.138-2.859-.31-4.271-.471a70.616 70.616 0 01-8.116-1.435 23.15 23.15 0 01-3.444-1.148 5.027 5.027 0 01-1.94-1.148c-.081-.126 0-.115.206.115.152.232.254.494.299.769v-.574l.149-.792c.138-.563.275-1.148.448-1.757.7-2.445 1.63-5.097 2.675-7.714a226.266 226.266 0 013.317-7.921c2.296-5.281 4.787-10.642 7.221-15.82l-12.134-6.096z" fill="#FBCA91"/><path d="M269.78 243.296l3.869-4.983a5.735 5.735 0 013.998-2.176 5.739 5.739 0 014.325 1.419 5.734 5.734 0 011.758 5.44 5.746 5.746 0 01-1.338 2.639 5.747 5.747 0 01-2.475 1.621 28.663 28.663 0 01-6.44 1.389l-3.697-5.349z" fill="#FFDBB1"/><path d="M260.906 190.809c-14.281 1.975-18.747 26.404-18.747 26.404l15.888 8.289a78.738 78.738 0 0012.812-17.484c5.637-10.642-.459-18.529-9.953-17.209z" fill="#0D1C41"/></g><defs><filter id="filter0_dd_60_2047" x="-7" y="-7" width="588" height="588" filterUnits="userSpaceOnUse" color-interpolation-filters="sRGB"><feFlood flood-opacity="0" result="BackgroundImageFix"/><feColorMatrix in="SourceAlpha" values="0 0 0 0 0 0 0 0 0 0 0 0 0 0 0 0 0 0 127 0" result="hardAlpha"/><feOffset dx="-2" dy="-2"/><feGaussianBlur stdDeviation="2.5"/><feColorMatrix values="0 0 0 0 0.0791667 0 0 0 0 0.114 0 0 0 0 0.2375 0 0 0 0.15 0"/><feBlend in2="BackgroundImageFix" result="effect1_dropShadow_60_2047"/><feColorMatrix in="SourceAlpha" values="0 0 0 0 0 0 0 0 0 0 0 0 0 0 0 0 0 0 127 0" result="hardAlpha"/><feOffset dx="2" dy="2"/><feGaussianBlur stdDeviation="2.5"/><feColorMatrix values="0 0 0 0 0.0784314 0 0 0 0 0.113725 0 0 0 0 0.239216 0 0 0 0.15 0"/><feBlend in2="effect1_dropShadow_60_2047" result="effect2_dropShadow_60_2047"/><feBlend in="SourceGraphic" in2="effect2_dropShadow_60_2047" result="shape"/></filter></defs></svg>