<svg width="30" height="30" fill="none" xmlns="http://www.w3.org/2000/svg"><rect width="30" height="30" rx="5" fill="#fff"/><g clip-path="url(#clip0_36_34)"><path d="M12.847 17.65l-.33 4.654c.473 0 .678-.203.924-.447l2.219-2.121 4.598 3.367c.844.47 1.438.223 1.665-.776l3.019-14.143c.268-1.248-.45-1.735-1.272-1.43L5.928 13.548c-1.21.47-1.192 1.145-.206 1.451l4.536 1.411 10.536-6.593c.496-.328.947-.146.576.182l-8.523 7.653z" fill="#17181C"/></g><defs><clipPath id="clip0_36_34"><path fill="#fff" transform="translate(5 5)" d="M0 0h20v20H0z"/></clipPath></defs></svg>