<svg width="30" height="30" fill="none" xmlns="http://www.w3.org/2000/svg"><rect width="30" height="30" rx="5" fill="#fff"/><g clip-path="url(#clip0_36_37)"><path d="M21.596 15.857c-.323-.409-.231-.59 0-.955.004-.004 2.673-3.693 2.948-4.944h.002c.137-.456 0-.791-.661-.791h-2.187c-.556 0-.813.287-.95.609 0 0-1.114 2.665-2.689 4.393-.508.499-.743.659-1.02.659-.137 0-.35-.16-.35-.616V9.958c0-.547-.156-.791-.616-.791h-3.439c-.349 0-.556.255-.556.492 0 .519.787.638.869 2.096v3.164c0 .694-.126.821-.405.821-.744 0-2.548-2.676-3.617-5.738-.216-.594-.427-.834-.988-.834H5.75c-.624 0-.75.287-.75.609 0 .568.743 3.394 3.457 7.127 1.808 2.549 4.355 3.93 6.671 3.93 1.393 0 1.563-.307 1.563-.835 0-2.435-.126-2.665.572-2.665.323 0 .88.16 2.18 1.39 1.485 1.457 1.73 2.11 2.561 2.11h2.187c.623 0 .939-.307.757-.912-.416-1.273-3.226-3.89-3.352-4.065z" fill="#17181C"/></g><defs><clipPath id="clip0_36_37"><path fill="#fff" transform="translate(5 5)" d="M0 0h20v20H0z"/></clipPath></defs></svg>