<svg width="495" height="277" viewBox="0 0 495 277" fill="none" xmlns="http://www.w3.org/2000/svg">
<g filter="url(#filter0_d_117_380)">
<path d="M342.5 16C348 16 349.5 18 354 27.5C358.5 37 361.5 57 396.5 57H464C471.18 57 477 62.8203 477 70V244C477 251.18 471.18 257 464 257H31C23.8203 257 18 251.18 18 244V69.5C18 62.5964 23.5964 57 30.5 57H288.5C324 57 326.5 37 331 27.5C335.5 18 337 16 342.5 16Z" fill="white"/>
</g>
<defs>
<filter id="filter0_d_117_380" x="0" y="0" width="495" height="277" filterUnits="userSpaceOnUse" color-interpolation-filters="sRGB">
<feFlood flood-opacity="0" result="BackgroundImageFix"/>
<feColorMatrix in="SourceAlpha" type="matrix" values="0 0 0 0 0 0 0 0 0 0 0 0 0 0 0 0 0 0 127 0" result="hardAlpha"/>
<feOffset dy="2"/>
<feGaussianBlur stdDeviation="9"/>
<feColorMatrix type="matrix" values="0 0 0 0 0.160784 0 0 0 0 0.160784 0 0 0 0 0.160784 0 0 0 0.1 0"/>
<feBlend mode="normal" in2="BackgroundImageFix" result="effect1_dropShadow_117_380"/>
<feBlend mode="normal" in="SourceGraphic" in2="effect1_dropShadow_117_380" result="shape"/>
</filter>
</defs>
</svg>
