<svg width="96" height="70" viewBox="0 0 96 70" fill="none" xmlns="http://www.w3.org/2000/svg">
<path d="M46.1407 34.1983C39.443 20.6169 22.1407 -3.86679 6.51281 6.84949C-9.11509 17.5658 22.6234 45.5117 28.7629 47.7442C34.9024 49.9768 38.1843 43.9269 31.6291 37.5472C23.1815 29.3256 12.6524 62.1053 24.3733 67.6867C33.75 72.1518 48.2978 48.3024 48.9314 43.6867C49.565 39.071 46.1407 34.1983 46.1407 34.1983Z" stroke="black" stroke-width="3"/>
<path d="M49.7528 31.9658C56.4505 18.3844 73.7528 -6.09933 89.3807 4.61695C105.009 15.3332 73.2702 43.2791 67.1307 45.5117C60.9911 47.7442 57.7093 41.6943 64.2645 35.3146C72.712 27.0931 83.2412 59.8727 71.5203 65.4541C62.1435 69.9193 47.5958 46.0698 46.9621 41.4541C46.3285 36.8385 49.7528 31.9658 49.7528 31.9658Z" stroke="black" stroke-width="3"/>
</svg>
