<svg width="462" height="277" viewBox="0 0 462 277" fill="none" xmlns="http://www.w3.org/2000/svg">
<g filter="url(#filter0_d_117_338)">
<path d="M163.5 16C169 16 170.5 18 175 27.5C179.5 37 182.5 57 217.5 57H431C438.18 57 444 62.8203 444 70V244C444 251.18 438.18 257 431 257H31C23.8203 257 18 251.18 18 244V69.5C18 62.5964 23.5964 57 30.5 57H109.5C145 57 147.5 37 152 27.5C156.5 18 158 16 163.5 16Z" fill="white"/>
</g>
<defs>
<filter id="filter0_d_117_338" x="0" y="0" width="462" height="277" filterUnits="userSpaceOnUse" color-interpolation-filters="sRGB">
<feFlood flood-opacity="0" result="BackgroundImageFix"/>
<feColorMatrix in="SourceAlpha" type="matrix" values="0 0 0 0 0 0 0 0 0 0 0 0 0 0 0 0 0 0 127 0" result="hardAlpha"/>
<feOffset dy="2"/>
<feGaussianBlur stdDeviation="9"/>
<feColorMatrix type="matrix" values="0 0 0 0 0.160784 0 0 0 0 0.160784 0 0 0 0 0.160784 0 0 0 0.1 0"/>
<feBlend mode="normal" in2="BackgroundImageFix" result="effect1_dropShadow_117_338"/>
<feBlend mode="normal" in="SourceGraphic" in2="effect1_dropShadow_117_338" result="shape"/>
</filter>
</defs>
</svg>
