<svg width="801" height="277" viewBox="0 0 801 277" fill="none" xmlns="http://www.w3.org/2000/svg">
<g filter="url(#filter0_d_60_2260)">
<path d="M284.5 16C290 16 291.5 18 296 27.5C300.5 37 303.5 57 338.5 57H770C777.18 57 783 62.8203 783 70V244C783 251.18 777.18 257 770 257H31C23.8203 257 18 251.18 18 244V69.5C18 62.5964 23.5964 57 30.5 57H230.5C266 57 268.5 37 273 27.5C277.5 18 279 16 284.5 16Z" fill="white"/>
</g>
<defs>
<filter id="filter0_d_60_2260" x="0" y="0" width="801" height="277" filterUnits="userSpaceOnUse" color-interpolation-filters="sRGB">
<feFlood flood-opacity="0" result="BackgroundImageFix"/>
<feColorMatrix in="SourceAlpha" type="matrix" values="0 0 0 0 0 0 0 0 0 0 0 0 0 0 0 0 0 0 127 0" result="hardAlpha"/>
<feOffset dy="2"/>
<feGaussianBlur stdDeviation="9"/>
<feColorMatrix type="matrix" values="0 0 0 0 0.160784 0 0 0 0 0.160784 0 0 0 0 0.160784 0 0 0 0.1 0"/>
<feBlend mode="normal" in2="BackgroundImageFix" result="effect1_dropShadow_60_2260"/>
<feBlend mode="normal" in="SourceGraphic" in2="effect1_dropShadow_60_2260" result="shape"/>
</filter>
</defs>
</svg>
