<svg width="510" height="377" viewBox="0 0 510 377" fill="none" xmlns="http://www.w3.org/2000/svg">
<path d="M509.283 254.939C509.283 260.722 509.092 266.461 508.709 272.155C506.803 300.864 500 329.037 488.593 355.458C486.82 359.532 484.958 363.549 483.005 367.509H26.7473C21.4484 356.833 16.9181 345.793 13.1908 334.473C10.9792 327.788 9.04588 320.984 7.39075 314.062C2.78087 294.692 0.461315 274.849 0.479599 254.939C0.463651 114.632 114.37 0.88894 254.874 0.88894C266.489 0.883941 278.091 1.66789 289.599 3.23536C292.258 3.60165 294.916 4.00512 297.574 4.45104C300.484 4.94298 303.381 5.47384 306.266 6.04363C342.153 13.4628 376.016 28.5227 405.546 50.1964C435.076 71.8701 459.577 99.6479 477.381 131.635C481.244 138.561 484.788 145.684 488.013 153.003C490.597 158.86 492.952 164.829 495.078 170.909C504.458 197.687 509.269 225.848 509.31 254.217C509.283 254.477 509.283 254.706 509.283 254.939Z" fill="#4A607A"/>
<path d="M509.283 254.939C509.283 260.722 509.092 266.461 508.709 272.155C506.803 300.864 499.999 329.037 488.592 355.458C486.82 359.532 484.958 363.549 483.005 367.509H26.7473C21.4484 356.833 16.9181 345.793 13.1908 334.473L158.027 245.086L294.123 257.827L477.365 131.662C481.228 138.588 484.772 145.71 487.997 153.029C490.581 158.886 492.936 164.855 495.062 170.935C504.442 197.714 509.253 225.875 509.294 254.244C509.283 254.477 509.283 254.706 509.283 254.939Z" fill="#1A3554"/>
<path d="M143.88 117.944C146.279 117.944 148.224 116.003 148.224 113.607C148.224 111.212 146.279 109.27 143.88 109.27C141.482 109.27 139.537 111.212 139.537 113.607C139.537 116.003 141.482 117.944 143.88 117.944Z" fill="#2C3149"/>
<path d="M405.308 89.4105H121.754C108.724 89.4105 98.1608 99.9586 98.1608 112.97V257.583C98.1608 270.595 108.724 281.143 121.754 281.143H405.308C418.338 281.143 428.901 270.595 428.901 257.583V112.97C428.901 99.9586 418.338 89.4105 405.308 89.4105Z" fill="#4F6097"/>
<path d="M396.27 80.9166H112.717C99.6863 80.9166 89.123 91.4647 89.123 104.476V249.089C89.123 262.101 99.6863 272.649 112.717 272.649H396.27C409.301 272.649 419.864 262.101 419.864 249.089V104.476C419.864 91.4647 409.301 80.9166 396.27 80.9166Z" fill="#303072"/>
<path d="M113.461 117.78V237.123H397.275V117.78H113.461ZM396.191 144.297H359.344V118.842H396.212L396.191 144.297ZM267.447 145.358H319.137V173.531H267.468L267.447 145.358ZM266.383 173.531H214.124V145.358H266.405L266.383 173.531ZM320.2 145.358H358.259V173.531H320.221L320.2 145.358ZM320.2 144.297V118.842H358.259V144.297H320.2ZM319.137 144.297H267.468V118.842H319.158L319.137 144.297ZM266.383 144.297H214.124V118.842H266.405L266.383 144.297ZM213.04 144.297H164.338V118.842H213.061L213.04 144.297ZM213.04 145.358V173.531H164.338V145.358H213.04ZM163.274 173.531H114.524V145.358H163.274V173.531ZM163.274 174.593V208.207H114.524V174.593H163.274ZM164.338 174.593H213.061V208.207H164.338V174.593ZM214.124 174.593H266.405V208.207H214.124V174.593ZM267.468 174.593H319.158V208.207H267.468V174.593ZM320.221 174.593H358.28V208.207H320.221V174.593ZM359.344 174.593H396.212V208.207H359.344V174.593ZM359.344 173.531V145.358H396.212V173.531H359.344ZM163.274 118.852V144.307H114.524V118.842L163.274 118.852ZM114.524 236.062V209.269H163.274V235.281H164.338V209.269H213.061V235.281H214.124V209.269H266.405V235.281H267.468V209.269H319.158V235.281H320.221V209.269H358.28V235.281H359.344V209.269H396.212V236.062H114.524Z" fill="white"/>
<path d="M112.701 235.467C112.519 235.465 112.339 235.431 112.169 235.366C111.773 235.219 111.452 234.922 111.275 234.539C111.099 234.155 111.082 233.718 111.228 233.322C116.247 220.641 122.704 208.575 130.473 197.362C137.809 186.92 145.667 178.622 153.838 172.714C164.146 165.255 174.991 161.565 186.012 161.788C187.325 161.788 207.208 161.836 227.867 187.673C236.82 198.869 250.413 205.165 265.129 204.985C284.879 204.725 304.065 193.598 319.169 173.664C348.637 134.709 365.984 121.926 396.478 116.739C396.895 116.669 397.323 116.767 397.668 117.012C398.013 117.257 398.247 117.628 398.317 118.045C398.388 118.462 398.289 118.89 398.044 119.234C397.799 119.579 397.427 119.812 397.009 119.882C367.121 124.978 350.928 136.949 321.678 175.575C313.613 186.229 304.384 194.474 294.246 200.085C284.916 205.245 274.852 208.048 265.139 208.17C249.414 208.377 234.911 201.63 225.342 189.659C205.48 164.825 186.23 164.979 186.001 164.974H185.927C162.392 164.501 144.205 183.294 133.067 199.14C125.444 210.144 119.103 221.981 114.168 234.421C114.058 234.723 113.858 234.984 113.597 235.171C113.335 235.358 113.022 235.461 112.701 235.467Z" fill="#EC685A"/>
<path d="M113.992 238.185C113.718 238.184 113.447 238.113 113.208 237.977C112.969 237.841 112.77 237.646 112.628 237.411C112.487 237.175 112.409 236.907 112.402 236.632C112.395 236.358 112.46 236.086 112.589 235.844C112.849 235.356 119.112 223.746 131.281 212.051C142.408 201.359 160.701 188.719 184.975 188.719H185.975C187.171 188.719 206.969 188.719 227.66 207.703C237.707 216.929 253.066 221.505 269.791 220.237C287.951 218.867 305.527 210.761 319.291 197.409C349.881 167.745 367.19 156.915 396.446 149.127C396.651 149.062 396.868 149.04 397.082 149.061C397.297 149.081 397.505 149.145 397.694 149.249C397.883 149.352 398.049 149.493 398.182 149.662C398.315 149.831 398.412 150.026 398.468 150.234C398.524 150.442 398.537 150.659 398.506 150.872C398.475 151.085 398.402 151.289 398.29 151.473C398.178 151.657 398.03 151.816 397.854 151.941C397.679 152.066 397.48 152.155 397.27 152.201C368.291 159.92 352.002 170.128 321.513 199.692C307.218 213.553 288.935 221.988 270.036 223.401C252.428 224.722 236.198 219.86 225.501 210.039C205.597 191.766 186.209 191.878 186.007 191.894H185.953C162.285 191.549 144.417 203.865 133.578 214.259C126.466 221.056 120.351 228.822 115.412 237.325C115.277 237.585 115.073 237.802 114.823 237.954C114.573 238.106 114.285 238.186 113.992 238.185Z" fill="#00132C"/>
<path d="M188.346 292.2L188.404 292.063C188.388 292.11 188.368 292.155 188.346 292.2Z" fill="#EC685A"/>
<path d="M188.42 292.063C188.532 291.749 188.67 291.415 188.824 291.065C188.627 291.537 188.484 291.877 188.42 292.063Z" fill="#EC685A"/>
<path d="M80.3087 352.188V363.336C75.8233 362.727 71.4492 361.475 67.321 359.62V352.188H80.3087Z" fill="#B8A375"/>
<path d="M116.039 352.188V360.231C112.318 362.004 107.879 362.97 103.046 363.453V352.188H116.039Z" fill="#B8A375"/>
<path d="M138.782 326.983V333.104C138.779 335.642 137.795 338.081 136.035 339.913C134.275 341.745 131.875 342.827 129.335 342.935C124.109 353.86 111.01 361.797 95.4068 362.577C74.9977 361.627 58.8203 348.446 58.8203 332.318C58.8239 330.069 59.1425 327.832 59.7666 325.672C54.764 324.265 52.2547 321.255 51.0054 318.393C53.0507 319.116 55.1838 319.563 57.3477 319.721C57.4965 319.46 57.6507 319.19 57.8102 318.967C59.2992 319.347 60.8181 319.599 62.3503 319.721C68.1982 309.831 80.6542 302.802 95.3377 302.101C98.1624 302.243 100.969 302.63 103.727 303.259C103.933 302.975 104.166 302.712 104.423 302.473C107.4 299.479 115.306 296.793 115.306 296.793V307.596C123.493 312.108 129.335 318.999 131.169 326.983H138.782Z" fill="#DDD0A4"/>
<path d="M115.295 296.793C115.295 296.793 108.288 300.095 106.874 304.012C106.874 304.012 102.796 302.133 101.069 301.974C99.3409 301.815 109.591 294.117 115.295 296.793Z" fill="#B8A375"/>
<path d="M95.3855 362.593C94.5296 362.641 93.663 362.662 92.7858 362.662C71.255 362.662 53.807 349.088 53.807 332.35C53.8067 330.089 54.1326 327.84 54.7745 325.672C43.8177 322.593 44.8438 311.768 44.8438 311.768C45.4073 315.283 48.0335 317.273 51.0266 318.394C52.2759 321.255 54.7852 324.265 59.7878 325.672C59.1535 327.841 58.8278 330.09 58.8202 332.35C58.8202 348.462 74.9976 361.643 95.3855 362.593Z" fill="#B8A375"/>
<path d="M95.3855 302.101C80.702 302.802 68.2354 309.831 62.3981 319.721C60.866 319.599 59.3471 319.347 57.858 318.967C64.2375 308.939 77.4857 302.038 92.8337 302.038C93.663 302.038 94.5189 302.059 95.3855 302.101Z" fill="#B8A375"/>
<path d="M113.179 328.921C115.593 328.921 117.549 326.967 117.549 324.557C117.549 322.147 115.593 320.193 113.179 320.193C110.766 320.193 108.809 322.147 108.809 324.557C108.809 326.967 110.766 328.921 113.179 328.921Z" fill="#2C3149"/>
<path d="M106.794 313.717H79.5643C79.4667 313.725 79.3684 313.713 79.2756 313.682C79.1828 313.65 79.0975 313.6 79.0253 313.534C78.953 313.468 78.8953 313.387 78.8559 313.297C78.8164 313.208 78.796 313.111 78.796 313.013C78.796 312.915 78.8164 312.819 78.8559 312.729C78.8953 312.639 78.953 312.559 79.0253 312.493C79.0975 312.427 79.1828 312.376 79.2756 312.345C79.3684 312.313 79.4667 312.301 79.5643 312.31H106.794C106.892 312.301 106.99 312.313 107.083 312.345C107.176 312.376 107.261 312.427 107.333 312.493C107.406 312.559 107.463 312.639 107.503 312.729C107.542 312.819 107.563 312.915 107.563 313.013C107.563 313.111 107.542 313.208 107.503 313.297C107.463 313.387 107.406 313.468 107.333 313.534C107.261 313.6 107.176 313.65 107.083 313.682C106.99 313.713 106.892 313.725 106.794 313.717Z" fill="#B8A375"/>
<path d="M92.5041 309.395C101.48 309.395 108.756 302.129 108.756 293.167C108.756 284.204 101.48 276.938 92.5041 276.938C83.5285 276.938 76.2523 284.204 76.2523 293.167C76.2523 302.129 83.5285 309.395 92.5041 309.395Z" fill="#EFB2A0"/>
<path d="M80.3087 363.32V366.776H67.321V359.62C71.45 361.47 75.8241 362.716 80.3087 363.32Z" fill="#DDD0A4"/>
<path d="M116.039 360.231V366.776H103.046V363.469C107.879 362.97 112.296 362.004 116.039 360.231Z" fill="#DDD0A4"/>
<path d="M92.5041 302.186C97.4926 302.186 101.536 298.148 101.536 293.167C101.536 288.186 97.4926 284.147 92.5041 284.147C87.5157 284.147 83.4718 288.186 83.4718 293.167C83.4718 298.148 87.5157 302.186 92.5041 302.186Z" fill="#FDE5CF"/>
<path d="M348.188 256.109C348.14 256.883 348.092 257.598 348.055 258.25C348.023 258.749 347.882 259.236 347.642 259.676C347.401 260.116 347.067 260.5 346.661 260.8C346.256 261.1 345.789 261.309 345.294 261.414C344.798 261.519 344.286 261.516 343.791 261.406L343.109 266.235L342.667 269.423C341.919 274.692 339.269 279.518 335.205 283.013C331.141 286.508 325.935 288.439 320.544 288.449C319.697 288.449 318.85 288.401 318.007 288.307C317.137 288.208 316.274 288.056 315.423 287.855L310.162 325.244L309.63 329.026L303.005 376H209.265L201.127 329.71L200.258 324.787L193.601 286.945C192.335 287.32 191.036 287.583 189.722 287.728C179.755 288.844 166.592 278.644 161.39 268.381C160.971 268.47 160.537 268.467 160.119 268.373C159.702 268.279 159.31 268.096 158.971 267.837C158.632 267.578 158.354 267.249 158.157 266.874C157.96 266.498 157.848 266.085 157.83 265.662L156.231 227.699L156.167 227.01C154.366 210.509 167.402 196.685 181.749 191.34L184.739 190.262C186.444 189.494 188.139 188.81 189.796 188.221L215.825 179C222.455 187.942 237.031 194.128 253.936 194.128C259.02 194.152 264.089 193.578 269.035 192.419C269.893 192.219 270.73 192.003 271.55 191.761C280.387 189.231 287.539 184.849 291.802 179.416L316.67 188.211C318.806 188.983 320.901 189.861 322.948 190.841L325.954 191.93C339.443 196.953 349.403 210.687 348.817 224.774C349.323 234.6 348.668 248.277 348.188 256.109Z" fill="#DDD0A4"/>
<path d="M291.779 179.392C285.027 188.194 270.674 194.256 254.034 194.256C237.165 194.256 222.62 187.997 216.006 178.978L233.949 172.544V140.267H273.332V172.783L291.779 179.392Z" fill="#F7AD83"/>
<path d="M273.597 144.307V154.309C269.291 159.012 262.8 164.278 255.352 164.278C245.964 164.278 238.095 157.653 234.215 153.661V144.918L247.962 144.307H273.597Z" fill="#EC685A"/>
<path d="M283.815 103.309C283.921 104.073 284.022 104.832 284.107 105.602V105.66C284.655 110.431 284.731 115.245 284.336 120.031C284.336 120.031 284.336 120.063 284.336 120.079C283.395 131.168 279.78 141.154 273.533 147.784C269.501 152.159 264.076 155.003 258.18 155.832C241.7 158.2 229.307 145.953 222.891 128.833C221.22 124.371 219.974 119.762 219.169 115.067C219.026 114.266 218.898 113.448 218.781 112.636C215.214 87.8339 213.959 69.7526 245.145 65.2774C250.461 64.513 255.315 68.3777 260.615 67.6185C272.752 65.8773 280.37 84.6062 283.369 100.75C283.369 100.819 283.395 100.888 283.411 100.952C283.563 101.73 283.698 102.516 283.815 103.309Z" fill="#F7AD83"/>
<path d="M275.942 102.034L256.532 98.7643C256.337 98.7322 256.155 98.6427 256.01 98.5072C255.866 98.3716 255.765 98.1963 255.721 98.0034C255.676 97.8104 255.69 97.6087 255.761 97.4237C255.831 97.2388 255.956 97.079 256.117 96.9647C259.461 94.6502 267.282 91.2102 276.824 100.261C276.969 100.42 277.062 100.618 277.092 100.83C277.122 101.042 277.087 101.258 276.991 101.45C276.896 101.642 276.744 101.8 276.557 101.904C276.37 102.009 276.155 102.054 275.942 102.034Z" fill="#FDE5CF"/>
<path d="M239.169 117.721C240.667 117.721 241.881 116.509 241.881 115.014C241.881 113.519 240.667 112.307 239.169 112.307C237.672 112.307 236.458 113.519 236.458 115.014C236.458 116.509 237.672 117.721 239.169 117.721Z" fill="#1A1A1A"/>
<path d="M268.536 113.512C270.034 113.512 271.248 112.3 271.248 110.804C271.248 109.309 270.034 108.097 268.536 108.097C267.039 108.097 265.825 109.309 265.825 110.804C265.825 112.3 267.039 113.512 268.536 113.512Z" fill="#1A1A1A"/>
<path d="M251.854 135.951C250.833 135.958 249.813 135.887 248.802 135.739C248.733 135.727 248.666 135.701 248.606 135.663C248.546 135.625 248.494 135.576 248.454 135.518C248.413 135.46 248.384 135.395 248.369 135.325C248.353 135.256 248.352 135.185 248.364 135.115C248.376 135.046 248.402 134.979 248.44 134.919C248.478 134.859 248.527 134.808 248.585 134.767C248.643 134.726 248.709 134.698 248.778 134.682C248.847 134.667 248.919 134.665 248.988 134.677C249.095 134.677 259.924 136.509 264.145 128.838C264.213 128.716 264.327 128.626 264.461 128.587C264.596 128.548 264.74 128.564 264.863 128.631C264.924 128.664 264.979 128.709 265.023 128.764C265.067 128.818 265.1 128.88 265.119 128.948C265.139 129.015 265.145 129.085 265.138 129.155C265.13 129.224 265.109 129.291 265.075 129.353C261.965 135.033 255.639 135.951 251.854 135.951Z" fill="#1A1A1A"/>
<path d="M255.001 139.301C254.941 139.3 254.882 139.28 254.835 139.242C254.788 139.205 254.755 139.153 254.741 139.094C254.733 139.06 254.732 139.024 254.738 138.99C254.744 138.955 254.756 138.922 254.775 138.893C254.794 138.863 254.818 138.837 254.847 138.817C254.876 138.797 254.908 138.783 254.943 138.775L261.455 137.284C261.489 137.275 261.524 137.273 261.559 137.279C261.593 137.284 261.627 137.296 261.656 137.314C261.686 137.333 261.712 137.357 261.732 137.385C261.752 137.414 261.767 137.446 261.774 137.48C261.79 137.548 261.778 137.62 261.741 137.68C261.705 137.74 261.646 137.782 261.577 137.799L255.06 139.296L255.001 139.301Z" fill="#1A1A1A"/>
<path d="M255.001 125.759C254.316 125.774 253.643 125.58 253.071 125.201C252.751 124.973 252.483 124.681 252.283 124.342C252.083 124.004 251.957 123.627 251.913 123.237L250.025 110.125C250.006 109.985 250.042 109.844 250.127 109.731C250.212 109.619 250.338 109.545 250.477 109.525C250.547 109.514 250.618 109.518 250.686 109.535C250.754 109.552 250.818 109.582 250.874 109.624C250.931 109.666 250.978 109.719 251.014 109.779C251.05 109.84 251.073 109.907 251.083 109.976L252.965 123.083C252.989 123.329 253.065 123.568 253.188 123.783C253.311 123.998 253.477 124.185 253.678 124.331C253.995 124.518 254.347 124.64 254.712 124.688C255.077 124.736 255.449 124.711 255.804 124.612C256.392 124.525 256.932 124.236 257.33 123.795C257.407 123.681 257.525 123.602 257.658 123.574C257.792 123.545 257.932 123.569 258.049 123.641C258.165 123.713 258.25 123.827 258.284 123.96C258.319 124.092 258.3 124.233 258.234 124.352C257.687 125.048 256.897 125.511 256.022 125.647C255.687 125.721 255.345 125.759 255.001 125.759Z" fill="#1A1A1A"/>
<path d="M225.134 109.483L244.273 104.774C244.466 104.728 244.641 104.626 244.775 104.48C244.91 104.335 244.997 104.152 245.027 103.957C245.057 103.761 245.027 103.561 244.942 103.382C244.857 103.203 244.72 103.054 244.549 102.953C241.041 100.893 232.987 98.0477 224.146 107.784C224.017 107.951 223.941 108.152 223.927 108.362C223.914 108.573 223.963 108.782 224.069 108.964C224.175 109.146 224.333 109.293 224.523 109.385C224.713 109.478 224.925 109.511 225.134 109.483Z" fill="#FDE5CF"/>
<path d="M222.976 128.827C222.506 129.26 221.983 129.631 221.418 129.931C218.393 131.598 212.673 129.353 210.833 124.83C208.994 120.307 210.1 115.587 213.295 114.292C215.012 113.597 217.266 113.915 219.27 115.067C220.07 119.76 221.31 124.367 222.976 128.827Z" fill="#EC685A"/>
<path d="M215.911 126.831C213.901 123.98 217.171 120.726 217.989 119.988C217.765 119.61 217.464 119.282 217.106 119.025C216.749 118.768 216.342 118.588 215.911 118.497C214.188 118.189 212.45 119.558 212.434 119.558L212.099 119.144C212.179 119.081 214.039 117.615 216.001 117.96C216.543 118.076 217.053 118.308 217.496 118.641C217.938 118.974 218.303 119.399 218.563 119.887L218.68 120.084L218.5 120.227C218.462 120.264 214.353 123.694 216.347 126.518L215.911 126.831Z" fill="#1A1A1A"/>
<path d="M294.91 112.763C294.421 117.621 289.557 121.384 286.186 120.636C285.572 120.505 284.975 120.3 284.411 120.025C284.413 119.985 284.413 119.944 284.411 119.903C284.586 117.87 284.666 115.8 284.644 113.708C284.644 113.177 284.644 112.646 284.644 112.116C284.591 110.146 284.464 108.161 284.251 106.17C284.251 105.989 284.214 105.809 284.193 105.639C284.428 105.402 284.676 105.179 284.937 104.97C286 104.071 287.306 103.505 288.69 103.346C288.987 103.316 289.286 103.316 289.583 103.346C293.012 103.691 295.394 107.906 294.91 112.763Z" fill="#EC685A"/>
<path d="M290.333 116.304C290.305 116.309 290.276 116.309 290.248 116.304C290.182 116.281 290.128 116.233 290.097 116.171C290.066 116.108 290.061 116.036 290.083 115.97C291.2 112.7 286.293 110.56 286.24 110.539L286.027 110.449L286.091 110.231C286.201 109.689 286.43 109.177 286.761 108.733C287.092 108.289 287.516 107.923 288.005 107.662C289.796 106.775 291.986 107.662 292.082 107.699C292.115 107.712 292.144 107.732 292.169 107.757C292.194 107.782 292.213 107.812 292.227 107.844C292.24 107.877 292.247 107.912 292.246 107.947C292.246 107.982 292.239 108.017 292.226 108.049C292.212 108.082 292.192 108.111 292.167 108.136C292.142 108.161 292.112 108.18 292.08 108.193C292.047 108.207 292.012 108.214 291.977 108.213C291.942 108.213 291.907 108.206 291.875 108.193C291.875 108.193 289.807 107.359 288.238 108.139C287.847 108.346 287.504 108.632 287.229 108.978C286.955 109.324 286.755 109.724 286.644 110.151C287.638 110.635 291.694 112.838 290.562 116.14C290.543 116.186 290.512 116.226 290.472 116.255C290.431 116.285 290.383 116.301 290.333 116.304Z" fill="#1A1A1A"/>
<path d="M234.087 131.981C236.955 131.981 239.281 129.658 239.281 126.794C239.281 123.93 236.955 121.607 234.087 121.607C231.218 121.607 228.893 123.93 228.893 126.794C228.893 129.658 231.218 131.981 234.087 131.981Z" fill="#EC685A"/>
<path d="M275.41 126.051C278.279 126.051 280.604 123.729 280.604 120.864C280.604 118 278.279 115.678 275.41 115.678C272.542 115.678 270.216 118 270.216 120.864C270.216 123.729 272.542 126.051 275.41 126.051Z" fill="#EC685A"/>
<path d="M284.246 107.301C284.246 107.301 277.675 98.276 277.298 89.8458C276.92 81.4157 273.316 77.1529 269.759 76.2716C268.047 75.8469 265.341 77.0414 262.348 78.8941C257.835 81.6811 252.667 85.9493 249.27 88.3594C243.082 92.7603 228.638 95.0855 221.216 89.2778C216.607 85.6786 219.09 114.228 220.403 119.006C220.403 119.006 216.947 110.072 211.503 106.722C206.06 103.372 202.375 97.9203 206.453 90.313C210.531 82.7057 203.752 77.2856 203.577 70.2888C203.401 63.292 213.726 56.0404 228.032 57.702C242.338 59.3636 253.523 50.9547 257.659 48.0881C261.795 45.2214 270.158 47.3236 271.412 58.9124C272.667 70.5011 279.291 60.9297 283.922 65.373C287.446 68.7652 283.39 70.4056 286.649 77.1688C289.908 83.932 291.768 77.4661 293.161 85.7263C294.214 91.9905 282.89 91.895 284.246 107.301Z" fill="#FDE5CF"/>
<path d="M236.798 130.685C233.915 130.677 231.132 129.633 228.956 127.745C226.779 125.858 225.355 123.251 224.943 120.402C224.596 117.984 224.998 115.517 226.095 113.333C227.192 111.149 228.931 109.352 231.079 108.183C233.228 107.014 235.683 106.528 238.116 106.792C240.548 107.056 242.842 108.056 244.689 109.658C246.536 111.26 247.849 113.388 248.451 115.756C249.053 118.125 248.915 120.62 248.056 122.908C247.198 125.196 245.659 127.167 243.647 128.557C241.635 129.947 239.245 130.69 236.798 130.685ZM236.83 107.242C236.282 107.245 235.735 107.284 235.193 107.359C232.251 107.782 229.589 109.327 227.766 111.671C225.943 114.014 225.102 116.973 225.42 119.923C225.738 122.873 227.189 125.585 229.469 127.488C231.75 129.391 234.68 130.337 237.644 130.125C240.608 129.914 243.374 128.562 245.36 126.355C247.347 124.148 248.397 121.257 248.292 118.292C248.187 115.326 246.933 112.517 244.795 110.456C242.657 108.395 239.802 107.243 236.83 107.242Z" fill="#1A1A1A"/>
<path d="M270.508 125.849C267.398 125.847 264.41 124.64 262.172 122.482C259.935 120.324 258.624 117.383 258.514 114.279C258.405 111.175 259.506 108.149 261.585 105.839C263.665 103.53 266.561 102.115 269.663 101.895C272.766 101.674 275.833 102.664 278.22 104.657C280.606 106.649 282.125 109.488 282.457 112.577C282.789 115.665 281.908 118.761 280 121.214C278.092 123.667 275.305 125.285 272.226 125.727C271.657 125.809 271.083 125.85 270.508 125.849ZM270.54 102.406C268.963 102.401 267.402 102.72 265.954 103.345C264.506 103.969 263.202 104.885 262.125 106.035C261.047 107.185 260.218 108.544 259.691 110.028C259.163 111.512 258.947 113.089 259.057 114.66C259.167 116.232 259.6 117.763 260.33 119.16C261.059 120.556 262.069 121.787 263.296 122.777C264.523 123.766 265.942 124.492 267.463 124.909C268.983 125.326 270.574 125.426 272.135 125.201C275.003 124.789 277.609 123.309 279.429 121.057C281.249 118.806 282.148 115.95 281.946 113.064C281.744 110.177 280.456 107.474 278.34 105.497C276.225 103.52 273.438 102.416 270.54 102.406Z" fill="#1A1A1A"/>
<path d="M248.425 117.297C248.375 117.298 248.325 117.284 248.282 117.258C248.24 117.231 248.206 117.193 248.184 117.147C248.163 117.102 248.155 117.051 248.162 117.001C248.169 116.951 248.19 116.905 248.223 116.867C248.265 116.808 252.795 111.447 259.041 115.306C259.101 115.343 259.144 115.403 259.16 115.472C259.176 115.54 259.164 115.612 259.127 115.672C259.089 115.732 259.03 115.775 258.961 115.791C258.892 115.807 258.82 115.795 258.76 115.757C252.912 112.137 248.659 117.153 248.659 117.201C248.631 117.235 248.594 117.261 248.554 117.278C248.513 117.295 248.469 117.301 248.425 117.297Z" fill="#1A1A1A"/>
<path d="M216.814 76.5742C218.549 76.9781 220.315 77.2286 222.093 77.3227C223.837 77.4283 225.586 77.3732 227.319 77.1582C228.971 76.9532 230.59 76.5448 232.141 75.9425C233.578 75.3729 234.917 74.585 236.112 73.6067C236.675 73.1194 237.196 72.5868 237.67 72.0141C237.911 71.7404 238.137 71.4533 238.345 71.1541L238.659 70.7082L239.121 70.103C239.745 69.2567 240.414 68.4451 241.126 67.6716C241.498 67.2788 241.833 66.87 242.247 66.4878L243.502 65.3464C245.463 63.6473 247.79 62.4229 250.302 61.7684C250.663 61.673 251.031 61.6038 251.402 61.5614C251.785 61.5136 252.157 61.4499 252.556 61.434C252.954 61.418 253.353 61.434 253.752 61.434C254.163 61.4521 254.573 61.491 254.98 61.5507C255.828 61.6672 256.661 61.8773 257.462 62.1772C257.887 62.3306 258.302 62.5078 258.707 62.708C258.924 62.8301 259.142 62.9522 259.355 63.0796L259.727 63.3238L259.913 63.4566C260.025 63.5415 260.137 63.637 260.248 63.7326C260.809 64.2415 261.264 64.8557 261.586 65.5401C261.909 66.2245 262.094 66.9657 262.13 67.7214C262.166 68.4771 262.053 69.2325 261.796 69.9444C261.54 70.6564 261.146 71.3109 260.636 71.8708C260.127 72.4306 259.512 72.8846 258.826 73.2071C258.141 73.5295 257.399 73.714 256.642 73.75C255.885 73.786 255.129 73.6728 254.416 73.4168C253.703 73.1609 253.047 72.7672 252.486 72.2583C252.55 72.3176 252.618 72.3725 252.689 72.4229L252.736 72.4494L252.827 72.4919H252.896C252.896 72.4919 252.933 72.4441 252.896 72.4175C252.867 72.3402 252.817 72.2722 252.752 72.2211C252.704 72.1946 252.673 72.1415 252.614 72.115C252.55 72.0944 252.49 72.0659 252.433 72.03C252.361 72.0244 252.288 72.0226 252.215 72.0247C252.131 71.9912 252.04 71.975 251.95 71.9769C250.819 71.9776 249.708 72.2683 248.723 72.821L247.771 73.3519C247.452 73.5271 247.144 73.7819 246.819 73.9889C246.158 74.4429 245.522 74.9338 244.916 75.4594L244.432 75.8575L243.8 76.415C243.383 76.7935 242.944 77.148 242.487 77.4767C239.84 79.4397 236.748 80.7166 233.486 81.1927C231.459 81.4947 229.402 81.5464 227.362 81.3467C225.407 81.1594 223.475 80.7915 221.588 80.2478C219.731 79.7243 217.924 79.0386 216.187 78.1987C216.012 78.0978 215.879 77.9388 215.809 77.7495C215.74 77.5601 215.739 77.3525 215.808 77.1628C215.876 76.9731 216.009 76.8135 216.183 76.7117C216.358 76.61 216.562 76.5726 216.761 76.6061L216.814 76.5742Z" fill="#FCF4ED"/>
<path d="M262.348 78.894C256.134 84.4787 246.357 95.7118 236.373 96.1524C224.459 96.6833 221.216 89.2777 221.216 89.2777C228.659 95.0854 243.082 92.7602 249.27 88.3593C252.667 85.9492 257.835 81.6811 262.348 78.894Z" fill="#EC685A"/>
<path d="M296.308 290.449L229.228 280.702L295.538 290.311L296.308 290.449Z" fill="#406468"/>
<g opacity="0.7">
<path opacity="0.7" d="M307.276 240.24L306.372 257.912L342.959 267.016L343.639 262.143C344.132 262.254 344.644 262.257 345.138 262.151C345.632 262.045 346.097 261.834 346.502 261.531C346.906 261.228 347.24 260.841 347.48 260.397C347.72 259.953 347.861 259.462 347.892 258.958C347.929 258.3 347.977 257.578 348.025 256.797C311.524 254.244 307.276 240.24 307.276 240.24Z" fill="#B8A375"/>
<path opacity="0.7" d="M309.392 326.51C308.727 326.452 308.004 326.383 307.234 326.298C306.776 326.25 306.298 326.192 305.793 326.128C302.571 325.746 298.499 325.119 293.433 324.143L292.321 323.925L291.024 323.654C289.217 323.283 287.303 322.874 285.251 322.417L284.602 322.269C283.608 322.046 282.582 321.807 281.535 321.563L280.689 321.361C279.559 321.088 278.393 320.804 277.191 320.506L276.293 320.283C274.767 319.901 273.199 319.498 271.577 319.073L270.594 318.813L268.6 318.282L266.644 317.751C264.049 317.034 261.328 316.275 258.51 315.452L256.649 314.922C253.172 313.899 249.506 312.788 245.65 311.588L244.358 311.179C237.027 308.88 229.015 306.247 220.265 303.216L218.771 302.685C216.331 307.803 214.023 312.342 211.918 316.286C209.483 320.846 205.289 324.164 200.483 326.102L201.339 331.086C205.363 329.913 216.469 325.183 220.632 308.132C220.632 308.132 289.291 329.584 309.562 330.391L310.094 326.574H309.961L309.392 326.51Z" fill="#B8A375"/>
<path opacity="0.7" d="M197.66 275.558L206.591 257.949C197.995 249.79 197.229 242.735 197.229 242.735C197.229 242.735 193.093 255.295 177.984 261.527C181.816 260.611 185.74 260.138 189.68 260.12C190.488 260.12 191.312 260.12 192.152 260.12C192.471 260.12 192.79 260.12 193.109 260.158C193.806 260.184 194.518 260.232 195.236 260.29L196.044 260.354L197.054 260.45L198.085 260.566L198.043 261.984L197.66 275.558Z" fill="#B8A375"/>
<path opacity="0.7" d="M295.538 290.311L299.339 290.842C299.963 290.932 300.6 290.887 301.205 290.709C302.062 290.457 302.821 289.949 303.381 289.253C303.941 288.558 304.274 287.708 304.336 286.818L304.815 280.023C296.84 281.509 281.683 281.716 281.683 281.716C259.887 280.272 243.715 276.768 231.711 272.421C231.604 272.681 231.509 272.952 231.402 273.206C231.211 273.737 231.014 274.22 230.817 274.719C230.034 276.719 229.256 278.665 228.484 280.559L229.228 280.67L295.538 290.311Z" fill="#B8A375"/>
</g>
<path d="M277.122 198.689L277.186 198.742C277.16 198.857 277.109 198.966 277.037 199.06L276.022 200.345L277.957 201.869L277.691 202.209C277.096 202.962 275.873 202.984 274.958 202.262L274.554 201.943L277.122 198.689Z" fill="#EFCEC5"/>
<path d="M227.022 161.741L272.561 197.579L271.093 199.432L225.071 163.211C225.833 162.89 226.504 162.385 227.022 161.741Z" fill="#EC685A"/>
<path d="M220.78 156.851L227.021 161.741C226.504 162.385 225.833 162.89 225.07 163.211L224.183 162.516L220.158 157.557L220.509 157.159L220.78 156.851Z" fill="#FDEFE7"/>
<path d="M217.415 154.197L220.78 156.851L220.509 157.181L220.158 157.579L217.415 154.197Z" fill="#2C3149"/>
<path d="M228 159.729L273.922 195.875L272.561 197.601L227.021 161.741L227.053 161.709C227.511 161.126 227.834 160.45 228 159.729Z" fill="#9A3836"/>
<path d="M227.011 158.954L228 159.729C227.837 160.458 227.513 161.141 227.053 161.73L227.022 161.762L220.78 156.851L220.94 156.65C221.094 156.459 221.243 156.262 221.381 156.066L227.011 158.954Z" fill="#F7AD83"/>
<path d="M221.381 156.066C221.243 156.262 221.094 156.459 220.94 156.65L220.78 156.851L217.415 154.197L217.187 153.916L221.381 156.066Z" fill="#030205"/>
<path d="M277.122 198.689L277.186 198.742C277.16 198.858 277.109 198.966 277.037 199.061L274.911 201.715C274.826 201.822 274.714 201.905 274.586 201.954C274.391 202.023 274.18 202.04 273.976 202.003C273.771 201.966 273.581 201.876 273.422 201.741L271.258 200.037C271.025 199.885 270.86 199.647 270.801 199.375C270.741 199.103 270.791 198.819 270.939 198.583L272.035 197.192L275.883 200.223L277.122 198.689Z" fill="#2C3149"/>
<path d="M277.202 198.742L277.537 199.007C278.456 199.729 278.722 200.924 278.127 201.662L277.973 201.858L276.038 200.335L277.053 199.05C277.123 198.959 277.174 198.854 277.202 198.742Z" fill="#E2BEB5"/>
<path d="M273.06 195.928L272.045 197.213L275.894 200.244L276.022 200.345L277.037 199.061C277.109 198.966 277.159 198.858 277.186 198.742C277.221 198.527 277.196 198.307 277.112 198.106C277.028 197.906 276.89 197.732 276.713 197.606L274.544 195.902C274.342 195.712 274.074 195.609 273.797 195.614C273.52 195.619 273.255 195.732 273.06 195.928Z" fill="#191E30"/>
<path d="M343.655 262.143C343.655 262.143 343.554 297.61 332.172 315.967C328.637 321.664 324.033 325.704 318.004 326.542C317.389 326.629 316.77 326.68 316.149 326.696C315.281 326.765 314.409 326.783 313.539 326.749L312.714 326.723C311.944 326.723 311.04 326.643 309.977 326.558L309.408 326.51C308.743 326.452 308.02 326.383 307.249 326.298C306.792 326.25 306.314 326.192 305.809 326.128C302.587 325.746 298.515 325.12 293.448 324.143L292.337 323.925L291.024 323.654C289.217 323.283 287.303 322.874 285.251 322.417L284.602 322.269C283.608 322.046 282.582 321.807 281.535 321.563L280.689 321.361C279.559 321.089 278.393 320.804 277.191 320.506L276.293 320.283C274.767 319.901 273.199 319.498 271.577 319.073L270.594 318.813L268.6 318.282L266.644 317.751C264.049 317.035 261.328 316.275 258.51 315.453L256.649 314.922C253.172 313.899 249.506 312.788 245.65 311.588L244.358 311.179C237.027 308.88 229.015 306.247 220.265 303.216L218.771 302.685L218.563 302.616C217.022 302.085 215.453 301.554 213.869 300.971L210.515 299.787L213.231 292.068L214.56 288.293L216.687 282.316L217.846 279.035L220.908 279.481L223.837 279.906L224.624 280.023L228.516 280.553L229.26 280.665L295.57 290.274L299.371 290.804C299.995 290.895 300.632 290.85 301.237 290.672C302.094 290.419 302.853 289.911 303.413 289.216C303.972 288.52 304.306 287.671 304.368 286.781L304.846 279.985L304.942 278.573L306.399 257.87C306.399 257.87 314.538 257.397 323.246 257.673C332.066 257.992 341.529 259.043 343.655 262.143Z" fill="#F7AD83"/>
<path d="M332.156 315.967C328.621 321.664 324.017 325.704 317.988 326.542C317.373 326.629 316.754 326.68 316.133 326.696C315.265 326.765 314.393 326.783 313.523 326.749L312.699 326.723C311.928 326.723 311.024 326.643 309.961 326.558L309.392 326.51C308.727 326.452 308.004 326.383 307.233 326.298C306.776 326.25 306.298 326.192 305.793 326.128C302.571 325.746 298.499 325.12 293.432 324.143L292.321 323.925L291.024 323.654C289.217 323.283 287.303 322.874 285.251 322.417L284.602 322.269C283.608 322.046 282.582 321.807 281.535 321.563L280.689 321.361C279.559 321.089 278.393 320.804 277.191 320.506L276.293 320.283C274.767 319.901 273.199 319.498 271.577 319.073L270.594 318.813L268.6 318.282L266.644 317.751C264.049 317.035 261.328 316.275 258.51 315.453L256.649 314.922C253.172 313.899 249.506 312.788 245.65 311.588L244.358 311.179C237.027 308.88 229.015 306.247 220.265 303.216L218.771 302.685L218.563 302.616C217.022 302.085 215.453 301.555 213.869 300.971L210.515 299.787L213.231 292.068L214.56 288.293L220.887 283.08L221.179 282.841L223.306 281.106L224.619 280.044L228.51 280.575L229.254 280.686C229.042 281.217 228.574 282.358 228.064 283.871L227.952 284.216C226.94 287.111 226.29 290.119 226.017 293.172C225.831 296.485 226.548 299.394 229.207 300.365C234.672 302.42 283.762 318.569 312.991 319.715C321.71 320.06 328.653 319.068 332.156 315.967Z" fill="#EC685A"/>
<path d="M323.246 257.721C317.478 259.648 314.782 268.482 312.858 279.821C312.087 284.397 309.732 287.078 307.196 288.644C306.651 288.976 306.085 289.273 305.5 289.53C304.134 290.129 302.689 290.533 301.21 290.73C302.067 290.478 302.826 289.97 303.386 289.274C303.946 288.579 304.279 287.729 304.341 286.839L304.82 280.044L304.915 278.632L306.372 257.928C306.372 257.928 314.511 257.456 323.219 257.732L323.246 257.721Z" fill="#EC685A"/>
<path d="M271.466 187.121C271.211 188.03 270.886 188.918 270.493 189.776C265.708 200.457 249.919 215.172 249.919 215.172C245.421 232.659 240.488 248.341 235.533 262.148C234.89 263.927 234.257 265.673 233.614 267.393C233.353 268.089 233.082 268.774 232.843 269.464C232.46 270.472 232.088 271.46 231.711 272.447C231.604 272.707 231.509 272.978 231.402 273.233C231.211 273.764 231.014 274.247 230.817 274.746C230.034 276.745 229.256 278.692 228.484 280.585C228.053 281.647 227.617 282.709 227.186 283.77C227.139 283.887 227.091 283.993 227.048 284.105C225.833 287.035 224.627 289.84 223.433 292.519C221.838 296.145 220.243 299.542 218.76 302.717C216.32 307.835 214.013 312.373 211.907 316.318C208.447 322.8 201.44 326.77 194.183 327.843C190.114 328.483 185.949 328.098 182.067 326.723C181.615 326.548 181.163 326.367 180.728 326.16C176.867 324.461 173.829 321.315 172.269 317.401C166.709 303.365 163.498 283.877 161.743 269.198C162.18 269.105 162.589 268.912 162.939 268.636C163.581 268.126 164.302 267.606 165.103 267.075C169.041 264.495 173.4 262.623 177.984 261.543C181.816 260.626 185.74 260.154 189.68 260.136C190.488 260.136 191.312 260.136 192.152 260.136L193.109 260.174C193.806 260.205 194.513 260.248 195.236 260.312L196.044 260.375L197.054 260.471L198.085 260.588L198.043 262.005L197.66 275.553L206.591 257.944L232.827 206.211L232.545 189.165C232.333 183.161 233.55 177.191 236.096 171.747L238.223 167.177L241.338 152.541L241.498 152.578C241.802 152.645 242.095 152.754 242.37 152.902H242.396C247.282 155.593 244.592 169.481 244.119 171.732V171.822C244.081 171.965 244.066 172.045 244.066 172.045L269.759 147.253C269.796 147.386 269.839 147.524 269.865 147.662C269.891 147.745 269.909 147.831 269.919 147.917C269.945 148.044 269.966 148.172 269.988 148.305C270.069 148.849 270.094 149.401 270.062 149.95C270.062 150.099 270.062 150.253 270.03 150.407C270.035 150.42 270.035 150.435 270.03 150.449C270.03 150.546 270.019 150.642 269.998 150.736C269.998 150.954 269.934 151.177 269.892 151.405C269.796 151.883 269.679 152.366 269.53 152.854C269.483 153.024 269.429 153.188 269.371 153.358C269.312 153.528 269.201 153.857 269.105 154.107C269.057 154.234 269.009 154.356 268.956 154.484C268.685 155.158 268.366 155.837 268.021 156.517C267.866 156.814 267.702 157.117 267.542 157.414C267.383 157.711 267.266 157.903 267.122 158.147C266.819 158.678 266.5 159.171 266.171 159.676C266.032 159.888 265.894 160.1 265.751 160.313C265.607 160.525 265.458 160.748 265.309 160.966L264.709 161.815C264.087 162.659 263.454 163.487 262.832 164.262C262.518 164.65 262.205 165.027 261.902 165.393C260.174 167.447 258.568 169.141 257.574 170.171C257.524 170.216 257.476 170.264 257.431 170.314C257.38 170.357 257.332 170.404 257.287 170.452L257.165 170.58L257.08 170.659L256.952 170.787L256.809 170.925L256.724 171.01L256.522 171.201L257.957 170.574C258.59 170.296 259.294 170.22 259.972 170.357C260.737 170.5 261.43 170.899 261.939 171.487L262.088 171.647C262.624 172.277 262.946 173.062 263.007 173.887C263.068 174.713 262.866 175.536 262.428 176.239C262.834 175.946 263.312 175.767 263.811 175.719C264.31 175.671 264.812 175.757 265.267 175.968L265.469 176.079C265.505 176.097 265.539 176.118 265.57 176.143L265.628 176.18C265.676 176.209 265.723 176.241 265.767 176.276C265.909 176.379 266.041 176.497 266.16 176.626L267.409 177.98C267.887 178.506 268.172 179.179 268.216 179.888C268.26 180.597 268.062 181.3 267.654 181.882L267.08 182.699L266.936 182.906C267.397 182.635 267.922 182.49 268.457 182.487C268.566 182.479 268.676 182.479 268.786 182.487C269.24 182.541 269.677 182.696 270.064 182.939C270.451 183.182 270.779 183.508 271.024 183.894C271.322 184.37 271.515 184.904 271.591 185.46C271.667 186.017 271.624 186.583 271.466 187.121Z" fill="#F7AD83"/>
<path d="M244.156 171.748L244.092 171.854L241.051 175.777C241.179 175.342 247.101 155.965 242.433 152.912C247.324 155.604 244.634 169.491 244.156 171.748Z" fill="#EC685A"/>
<path d="M256.5 171.19L250.913 176.791C250.913 176.791 250.381 174.896 253.954 171.169C257.441 167.522 271.365 154.245 269.865 147.652C272.013 156.368 256.936 170.765 256.5 171.19Z" fill="#EC685A"/>
<path d="M262.986 174.174C262.99 174.906 262.783 175.625 262.391 176.244L256.336 182.158C256.336 182.158 256.017 180.597 258.148 178.224C260.206 175.941 262.869 172.087 259.935 170.357C260.698 170.504 261.391 170.902 261.902 171.487L262.045 171.647C262.657 172.346 262.992 173.245 262.986 174.174Z" fill="#EC685A"/>
<path d="M267.633 181.914L267.053 182.731L261.79 187.875C261.79 187.875 261.46 186.32 263.603 183.947C265.644 181.68 268.281 177.852 265.437 176.106C265.695 176.246 265.93 176.425 266.133 176.637L267.377 177.991C267.86 178.518 268.149 179.194 268.195 179.907C268.241 180.62 268.043 181.328 267.633 181.914Z" fill="#EC685A"/>
<path d="M271.465 187.121C271.211 188.03 270.886 188.918 270.493 189.776C265.708 200.457 249.919 215.172 249.919 215.172C245.421 232.659 240.488 248.341 235.533 262.148C234.89 263.927 234.257 265.673 233.614 267.393C233.353 268.089 233.082 268.779 232.843 269.464C232.46 270.472 232.088 271.46 231.71 272.447L231.407 273.233C231.216 273.764 231.019 274.247 230.823 274.746C230.039 276.745 229.261 278.692 228.489 280.585C228.058 281.647 227.622 282.709 227.192 283.771C227.144 283.887 227.096 283.994 227.053 284.105C225.838 287.035 224.633 289.84 223.438 292.519C221.843 296.145 220.249 299.543 218.765 302.717C216.325 307.835 214.018 312.374 211.913 316.318C208.452 322.8 201.445 326.771 194.188 327.843C190.119 328.484 185.955 328.099 182.073 326.723C185.359 327.643 188.845 327.567 192.088 326.505C197.139 324.913 202.051 321.032 206.017 314.826C208.606 310.776 211.243 306.088 213.864 301.024C215.459 297.913 217.053 294.653 218.648 291.282C219.871 288.692 221.089 286.043 222.285 283.362L222.412 283.08C222.699 282.438 222.986 281.806 223.268 281.159L223.8 279.959C225.108 276.965 226.399 273.944 227.654 270.934C228.597 268.694 229.515 266.463 230.408 264.24C234.353 254.504 237.92 245.076 240.844 237.086C245.729 223.698 248.818 214.344 248.818 214.344C248.818 214.344 249.02 209.933 249.929 208.101C250.838 206.27 264.889 195.026 268.834 189.866C268.849 189.856 268.86 189.841 268.866 189.823C272.768 184.706 268.706 182.62 268.706 182.62L268.749 182.561C269.203 182.616 269.639 182.77 270.026 183.013C270.413 183.257 270.741 183.583 270.987 183.968C271.28 184.432 271.474 184.952 271.557 185.495C271.639 186.037 271.608 186.591 271.465 187.121Z" fill="#EC685A"/>
<path d="M198.085 260.593L198.043 262.01L197.66 275.558C197.66 275.558 195.06 279.577 192.535 283.946C191.171 286.254 189.929 288.632 188.813 291.07C189.765 288.598 190.548 286.066 191.158 283.489C192.62 277.342 193.556 268.991 190.573 261.973C190.31 261.34 190.012 260.721 189.68 260.12C190.488 260.12 191.312 260.12 192.152 260.12L193.109 260.158C193.805 260.189 194.513 260.232 195.236 260.296L196.044 260.359L197.054 260.455L198.085 260.593Z" fill="#EC685A"/>
<path opacity="0.41" d="M241.668 155.28C241.28 158.333 239.722 167.384 239.722 167.384C239.722 167.384 234.284 177.651 233.991 188.618C233.699 199.586 235.256 205.898 235.256 205.898C235.256 205.898 219.308 237.219 207.995 259.218C202.976 268.975 198.867 276.88 197.463 279.391C196.278 281.514 195.092 283.42 193.992 285.034C192.346 287.537 190.482 289.889 188.42 292.062L191.169 283.489C190.559 286.066 189.776 288.598 188.824 291.07C189.94 288.632 191.182 286.254 192.546 283.946C195.071 279.577 197.67 275.558 197.67 275.558L206.602 257.949L232.838 206.216L232.545 189.165C232.333 183.161 233.55 177.191 236.096 171.747L238.223 167.177L241.338 152.541C241.365 152.529 241.395 152.527 241.424 152.533C241.453 152.54 241.479 152.556 241.498 152.578C241.705 152.716 241.928 153.247 241.668 155.28Z" fill="white"/>
<path opacity="0.41" d="M269.759 147.253L243.916 172.061L241.072 175.777C241.072 175.777 242.752 176.127 246.25 172.416C249.748 168.706 268.281 150.253 269.759 147.253Z" fill="white"/>
<path d="M500.926 366.716H10.7666C8.12409 366.716 5.98193 368.855 5.98193 371.494C5.98193 374.133 8.12409 376.272 10.7666 376.272H500.926C503.569 376.272 505.711 374.133 505.711 371.494C505.711 368.855 503.569 366.716 500.926 366.716Z" fill="#04050F"/>
</svg>
