<svg width="298" height="200" viewBox="0 0 298 200" fill="none" xmlns="http://www.w3.org/2000/svg">
<g filter="url(#filter0_d_117_295)">
<path d="M94.4999 16C99.9999 16 101.5 18 106 27.5C110.5 37 113.5 57 148.5 57H267C274.18 57 280 62.8203 280 70V167C280 174.18 274.18 180 267 180H30.9999C23.8202 180 17.9999 174.18 17.9999 167V69.5C17.9999 62.5964 23.5964 57 30.4999 57H40.4999C75.9999 57 78.4999 37 82.9999 27.5C87.4999 18 88.9999 16 94.4999 16Z" fill="white"/>
</g>
<defs>
<filter id="filter0_d_117_295" x="0" y="0" width="298" height="200" filterUnits="userSpaceOnUse" color-interpolation-filters="sRGB">
<feFlood flood-opacity="0" result="BackgroundImageFix"/>
<feColorMatrix in="SourceAlpha" type="matrix" values="0 0 0 0 0 0 0 0 0 0 0 0 0 0 0 0 0 0 127 0" result="hardAlpha"/>
<feOffset dy="2"/>
<feGaussianBlur stdDeviation="9"/>
<feColorMatrix type="matrix" values="0 0 0 0 0.160784 0 0 0 0 0.160784 0 0 0 0 0.160784 0 0 0 0.1 0"/>
<feBlend mode="normal" in2="BackgroundImageFix" result="effect1_dropShadow_117_295"/>
<feBlend mode="normal" in="SourceGraphic" in2="effect1_dropShadow_117_295" result="shape"/>
</filter>
</defs>
</svg>
